<svg id="BACKGROUND2" xmlns="http://www.w3.org/2000/svg" xmlns:xlink="http://www.w3.org/1999/xlink" viewBox="0 0 851.25 611.37"><defs><style>.cls-1{fill:none;}.cls-2{clip-path:url(#clip-path);}.cls-3{fill:#58f9f1;}.cls-4{fill:#51f2eb;}.cls-5{fill:#67fff2;}.cls-6{fill:#19dde9;}.cls-7{fill:#19acd1;}.cls-8{fill:#0b87a9;}</style><clipPath id="clip-path" transform="translate(27.85 24.37)"><rect class="cls-1" width="750" height="500"/></clipPath></defs><title>298990-P7H2SR-977</title><g class="cls-2"><rect class="cls-3" x="27.85" y="24.37" width="750" height="500"/><path class="cls-4" d="M0,115.7c48.57-1.68,97.74-.56,145.8,1.74,133.8,6.41,269.66,20.42,400.86,1.8C619,109,686.63,89.19,750,63.76V12c-94.65,33.3-187.76,68.63-292.75,67.44C336.37,78.08,231.06,28.11,117.42,0H0Z" transform="translate(27.85 24.37)"/><path class="cls-5" d="M750,352.66c-120.55-47.83-265.68-67.89-404.76-55.26C216.68,309.08,94.36,348.59,0,407.88V500H49.62c20.84-9.58,38.85-22.79,56.31-35.26C184.78,408.42,284.45,355.66,400,355.12c91.05-.42,174.85,31.87,248.86,67.23,33.69,16.09,66.85,33.17,101.12,48.84Z" transform="translate(27.85 24.37)"/><path class="cls-5" d="M440.42,258.9c110,6.68,207.64,45.5,309.58,75.05V120.7a1230.18,1230.18,0,0,1-141.89,31.51c-121.93,19.44-248.65,19.8-373,30.27C154.75,189.24,73.08,201,0,223.4V353.25C140.25,305.81,284.58,249.44,440.42,258.9Z" transform="translate(27.85 24.37)"/><path class="cls-4" d="M750,193.25C626.17,201,499.87,195,374.91,195,247.76,195,115.6,202.56,0,235.24V279.4c61.4-16.77,121.11-36.54,184.29-50.06,153.59-32.87,320.18-27.1,478.85-7.74,28.7,3.5,57.88,7.44,86.86,7.3Z" transform="translate(27.85 24.37)"/><path class="cls-5" d="M750,85.19c-72,32.67-159.77,48-246.79,53.55-92.67,5.95-186,1.67-279.1.65-75-.83-151,.57-224.11,10.92v27.76c19.73-3.34,39.39-7.41,58.76-10.82,117.09-20.59,240.17-16.64,361.2-19.37,114.18-2.57,232.84-12.38,330-51.56Z" transform="translate(27.85 24.37)"/><path class="cls-6" d="M271.67,256.67a2.34,2.34,0,1,1-2.33-2.34A2.33,2.33,0,0,1,271.67,256.67Z" transform="translate(27.85 24.37)"/><path class="cls-6" d="M282.14,235a1.33,1.33,0,1,1-1.33-1.33A1.33,1.33,0,0,1,282.14,235Z" transform="translate(27.85 24.37)"/><circle class="cls-6" cx="289.69" cy="264.54" r="1.5"/><path class="cls-6" d="M252,161.89a2.56,2.56,0,1,1-2.56-2.56A2.56,2.56,0,0,1,252,161.89Z" transform="translate(27.85 24.37)"/><path class="cls-6" d="M259.67,158a1.34,1.34,0,1,1-1.34-1.33A1.33,1.33,0,0,1,259.67,158Z" transform="translate(27.85 24.37)"/><path class="cls-6" d="M252,146a1.28,1.28,0,1,1-1.28-1.28A1.28,1.28,0,0,1,252,146Z" transform="translate(27.85 24.37)"/><path class="cls-6" d="M315,87.16a2.29,2.29,0,1,1-2.28-2.29A2.28,2.28,0,0,1,315,87.16Z" transform="translate(27.85 24.37)"/><circle class="cls-6" cx="325.26" cy="107.18" r="1.14"/><path class="cls-6" d="M204,134.79a3.17,3.17,0,1,1-3.17-3.16A3.17,3.17,0,0,1,204,134.79Z" transform="translate(27.85 24.37)"/><circle class="cls-6" cx="220.85" cy="150.04" r="1"/><path class="cls-6" d="M209,104.36a1.36,1.36,0,1,1-1.36-1.36A1.36,1.36,0,0,1,209,104.36Z" transform="translate(27.85 24.37)"/><circle class="cls-6" cx="145.1" cy="120.16" r="1.67"/><path class="cls-6" d="M126.12,101.88a1.12,1.12,0,1,1-1.12-1.12A1.12,1.12,0,0,1,126.12,101.88Z" transform="translate(27.85 24.37)"/><circle class="cls-6" cx="178.54" cy="89.08" r="1.44"/><path class="cls-6" d="M87.84,14.57a2.74,2.74,0,1,1-2.73-2.74A2.73,2.73,0,0,1,87.84,14.57Z" transform="translate(27.85 24.37)"/><path class="cls-6" d="M96.26,17.44a2,2,0,1,1-2-2A2,2,0,0,1,96.26,17.44Z" transform="translate(27.85 24.37)"/><path class="cls-6" d="M91.2,25.77a1,1,0,1,1-1-1A1,1,0,0,1,91.2,25.77Z" transform="translate(27.85 24.37)"/><path class="cls-6" d="M227.83,219.13a2.87,2.87,0,1,1-2.87-2.86A2.87,2.87,0,0,1,227.83,219.13Z" transform="translate(27.85 24.37)"/><circle class="cls-6" cx="259.85" cy="251.37" r="0.67"/><path class="cls-6" d="M233.67,279.83a2.17,2.17,0,1,1-2.17-2.16A2.17,2.17,0,0,1,233.67,279.83Z" transform="translate(27.85 24.37)"/><path class="cls-6" d="M231.33,292a1.75,1.75,0,1,1-1.75-1.75A1.75,1.75,0,0,1,231.33,292Z" transform="translate(27.85 24.37)"/><circle class="cls-6" cx="165.69" cy="461.37" r="3.5"/><path class="cls-6" d="M150.4,450.22a1.39,1.39,0,1,1-1.39-1.39A1.38,1.38,0,0,1,150.4,450.22Z" transform="translate(27.85 24.37)"/><circle class="cls-6" cx="189.14" cy="477.59" r="1.62"/><circle class="cls-6" cx="181.85" cy="495.71" r="2.5"/><circle class="cls-6" cx="205.69" cy="504.09" r="3.5"/><path class="cls-6" d="M313.51,365.49a2.16,2.16,0,1,1-2.15-2.16A2.16,2.16,0,0,1,313.51,365.49Z" transform="translate(27.85 24.37)"/><path class="cls-6" d="M300.89,355.5a1.17,1.17,0,1,1-1.17-1.17A1.18,1.18,0,0,1,300.89,355.5Z" transform="translate(27.85 24.37)"/><path class="cls-6" d="M306.62,355.14a1.9,1.9,0,1,1-1.89-1.89A1.9,1.9,0,0,1,306.62,355.14Z" transform="translate(27.85 24.37)"/><path class="cls-6" d="M381.16,275.39a2.58,2.58,0,1,1-2.58-2.58A2.59,2.59,0,0,1,381.16,275.39Z" transform="translate(27.85 24.37)"/><path class="cls-6" d="M389.15,271.07a1.74,1.74,0,1,1-1.74-1.74A1.74,1.74,0,0,1,389.15,271.07Z" transform="translate(27.85 24.37)"/><path class="cls-6" d="M380.91,266.17a1.17,1.17,0,1,1-1.16-1.17A1.16,1.16,0,0,1,380.91,266.17Z" transform="translate(27.85 24.37)"/><circle class="cls-6" cx="533.19" cy="255.04" r="3"/><path class="cls-6" d="M497,227.83a.84.84,0,0,1-.83.84.85.85,0,0,1-.84-.84.84.84,0,0,1,.84-.83A.83.83,0,0,1,497,227.83Z" transform="translate(27.85 24.37)"/><circle class="cls-6" cx="531.69" cy="245" r="1.5"/><path class="cls-6" d="M509.51,214.18a2.09,2.09,0,1,1-2.09-2.09A2.1,2.1,0,0,1,509.51,214.18Z" transform="translate(27.85 24.37)"/><circle class="cls-6" cx="582.19" cy="260.7" r="3"/><circle class="cls-6" cx="551.52" cy="334.58" r="1.64"/><circle class="cls-6" cx="519.45" cy="340.5" r="2"/><path class="cls-6" d="M493.58,305.83a2,2,0,1,1-4-.57,2,2,0,0,1,4,.57Z" transform="translate(27.85 24.37)"/><circle class="cls-6" cx="527.19" cy="336.66" r="2.07"/><circle class="cls-6" cx="491.56" cy="360.36" r="1.77"/><circle class="cls-6" cx="494.87" cy="344.04" r="1.54"/><path class="cls-6" d="M473.6,326.36h0Z" transform="translate(27.85 24.37)"/><path class="cls-6" d="M456.6,368.71a1.67,1.67,0,1,1-1.67-1.66A1.67,1.67,0,0,1,456.6,368.71Z" transform="translate(27.85 24.37)"/><circle class="cls-6" cx="595.35" cy="179.54" r="1.5"/><path class="cls-6" d="M554.33,152.83a1.17,1.17,0,1,1-1.16-1.16A1.16,1.16,0,0,1,554.33,152.83Z" transform="translate(27.85 24.37)"/><path class="cls-6" d="M563.78,161.89a2.56,2.56,0,1,1-2.55-2.56A2.55,2.55,0,0,1,563.78,161.89Z" transform="translate(27.85 24.37)"/><path class="cls-6" d="M581.61,98.47a2.81,2.81,0,1,1-2.81-2.8A2.8,2.8,0,0,1,581.61,98.47Z" transform="translate(27.85 24.37)"/><circle class="cls-6" cx="597.85" cy="128.37" r="1"/><path class="cls-6" d="M679.92,63a2.16,2.16,0,1,1-2.16-2.16A2.17,2.17,0,0,1,679.92,63Z" transform="translate(27.85 24.37)"/><circle class="cls-6" cx="706.45" cy="48.27" r="3"/><path class="cls-6" d="M666,23.67a1.78,1.78,0,1,1-1.78-1.78A1.78,1.78,0,0,1,666,23.67Z" transform="translate(27.85 24.37)"/><path class="cls-6" d="M675.82,35.11a1.88,1.88,0,1,1-1.88-1.88A1.88,1.88,0,0,1,675.82,35.11Z" transform="translate(27.85 24.37)"/><circle class="cls-6" cx="563.55" cy="129.01" r="3.36"/><circle class="cls-6" cx="570.35" cy="137.87" r="1.5"/><path class="cls-6" d="M536,122.52a1.82,1.82,0,1,1-1.82-1.82A1.82,1.82,0,0,1,536,122.52Z" transform="translate(27.85 24.37)"/><path class="cls-6" d="M470.51,59.25a1.92,1.92,0,1,1-1.92-1.92A1.92,1.92,0,0,1,470.51,59.25Z" transform="translate(27.85 24.37)"/><path class="cls-6" d="M491.41,61a1.71,1.71,0,1,1-1.7-1.71A1.71,1.71,0,0,1,491.41,61Z" transform="translate(27.85 24.37)"/><path class="cls-6" d="M480.62,64.31A1.65,1.65,0,1,1,479,62.67,1.65,1.65,0,0,1,480.62,64.31Z" transform="translate(27.85 24.37)"/><circle class="cls-6" cx="435.02" cy="55.82" r="1.5"/><path class="cls-6" d="M412.72,41.86a1.2,1.2,0,1,1-1.19-1.19A1.19,1.19,0,0,1,412.72,41.86Z" transform="translate(27.85 24.37)"/><path class="cls-6" d="M403.68,45.06a2,2,0,1,1-2-2A2,2,0,0,1,403.68,45.06Z" transform="translate(27.85 24.37)"/><path class="cls-6" d="M396.33,107.05a1.33,1.33,0,1,1-1.33-1.33A1.33,1.33,0,0,1,396.33,107.05Z" transform="translate(27.85 24.37)"/><circle class="cls-6" cx="433.03" cy="137.87" r="1.5"/><path class="cls-6" d="M393.67,117.26a2.26,2.26,0,1,1-2.26-2.26A2.26,2.26,0,0,1,393.67,117.26Z" transform="translate(27.85 24.37)"/><circle class="cls-6" cx="427.63" cy="148.33" r="1.45"/><rect class="cls-1" x="152.85" y="24.37" width="500" height="500"/><path class="cls-6" d="M316.16,506.62c-2.33-13,1.63-25.9-.54-38.89-2.73-16.36-9.7-31.3-16.18-46.42-2.24-1.89-4.54-7.73-8.45-3.83.33-2.14-.43-4.64-1-6.64-2.61-.16-9.79,3.73-11.62,2.3-3.76-2.92,1.85-8.07,4.28-9.2-5.63-.78-2-4.1-4.35-6.75-4.05-4.62-5.94-4.74-12.86-5.89-10.12-1.68-15.28-5.53-24.19-7.73-.85-11.31-5.09-3.91-10.1-5.14a24.35,24.35,0,0,1-13.85-10.05c4.06-3.87,11.12-2.18,16.15-4.94-1.6-1-2.11-3-5-3.64,10.34-6.14,16.11-8.27,5.41-15.89-4.51-3.2-10.73-5.9-13-11.7-7.72,3.81-8.89-7.66-13.52-8.61-6.51-1.33-8.48,5.77-15.24,2.61-6-2.79-8.6-13.33-1.73-16.89,5.45-2.83,10.7,1.5,15.73-4.87,2.93-3.73,3.41-9.12,2.77-13.61-1.19.16-2.8-.41-4-.25.18-3.3.08-6.9-1.12-9.86a10.6,10.6,0,0,0-3.93,0c-1.77,5.79-12.84,6.19-11.2-.4.51-2,6.94-.71,6.9-4.82,0-3-5.05-4.15-6.84-5-4.28-2.12-13.79-5.79-18.4-6.17-6.26-.52-8.21,5.62-13.58,4.32.94-8.31-7.9-8.24-6-15.92,2.25-9.36-8.78-8.78-14.3-10.13,2.67-6.78-8.53-9.81-13.33-10.75,1.93-.94,3.31-3.39,4.93-4.45-3.21-5.05-10.66-4.5-16.18-4.25-11.79.54-26.76.55-38,3.38,4.83,6.88.52,20.11,2.54,27.93,3.2,12.42,11.86,22.06,18.11,34.5,6.1,12.14,15.38,21.58,19.66,34.85,5,15.62-6.68,32.11-3.2,48.13,4.28,19.7,8.16,31-.48,48.14-11.64,23-4.66,50.28,7.61,73.65C129.72,515.88,144.6,525,169,519.87c15.66-3.29,30.49-10.05,46.65-11.13,17.44-1.16,34.22,5,51.57,5.25,16.75.19,33.17-2.17,49.85-2.22C316.78,510.09,316.47,508.38,316.16,506.62Z" transform="translate(27.85 24.37)"/><path class="cls-6" d="M625.86,239.59c-9.06,0-20.6-2-29.32.28-4.41,1.14-8.36,6.28-15.58,7,1,1.72.64,4.48,2.42,6.53-8.86,3.78-15.19,13.4-23.55,14.16-.51-1.91-1.36-3.24-1.89-5.14-7.53-1-10.58,5.31-9.84,12.23-13.69,2.79-6.37-25-23.75-23.47-13,1.16,9.9,16.64,5.42,27.7-8.09,1.63-11.21-5.25-9.87-12.36-7.44,3.47-5.85,8.26-2.63,14.05.25.44,11.84,13.14,11.23,12.69,8.92,6.69,21.79,5.67,18.19,22.27-4.94.18-10.13.3-15.08.36.87,3.7-.44,7.86,1,11.21-6.21,2.28-14.54.91-20.73,2.57-1-4-4-5.4-5.91-8.42-5,1.85-8.83,4.87-11.11,9.62,5.32,5.43,12.61,7.37,19.21,11.35-6.62,1.33-46.06,5.89-46.08,15.89,0,7.88,24.18,7.07,30.53,6.95-7.79,1.93-15.66.15-22.08,6.09,6.79,3,16.89,4.2,24.93,5.19-4.79,2.12-17.27,3.05-16.61,9.9.65,6.67,12.39,4.62,16.89,6.74-22.21,1.24-30.69,18.06-51.84,6.13-.45,1.37-.05,2.55-.44,3.94-11.51-17.57-20.55.84-12.93,7.12-5.78,2.9-8.12,9-8.23,15.3-10,1.45-21.86,15.05-22,25.31-.24,15.37,15.73,15.9,26.44,22.61,13.75,8.6,17.51,26.24,29.49,35.73,11.56,9.16,31.53,5.56,45.2,5.45,55.7-.46,98.68-32.35,140.56-65.78,32.88-26.25,44.27-55.81,52.3-96.55,5.58-28.3,12.67-50.51-7.86-74-15-17.18-27.8-19.75-49-21.73-9.68-.9-18.49-2-24.56-9.86" transform="translate(27.85 24.37)"/><path class="cls-6" d="M356.76,444c.11-1.89.31-3.68.31-5,0-6.67.58-13.3-1.2-19.82-1.13-4.15-2.73-7.66-3.17-13.94-.61-8.89-10-24.72-3.44-32,8.36,6.08,5.55,28.61,9.11,37.77,2.35,6,5.7,7.62,6.86,14.79.93,5.68-.08,11.89-1,17.53-.17,1.09-1.57,4.36.08,4.71,1.2.25,2.89-2.71,3.21-3.57.94-2.53,0-4.66,0-7.14-.08-4.93,2.06-8.56.5-13.65a71,71,0,0,1-1.37-7.15c-.55-2.75-1.74-3.9-2.84-6.32-2.35-5.13,1.18-12,.66-17.57-.15-1.59-1.38-5.34,1.27-5.6,2.22-.22,2.38,2.65,2.35,4.15a76.68,76.68,0,0,1-1.2,11.48c-.29,1.57-1.09,2.93-.8,4.62.36,2.09,2,2.72,3,4,2.7,3.26,2.14,8.19,2.93,12.05.54,2.67-1.05,12.27,1.95,13.34s4.64-3.73,4.66-5.78c0-2.73-1.78-5.1-2.49-7.75a31.79,31.79,0,0,1-.71-9.86c.18-3.93-1.05-6.36-1.87-10.09-.42-1.94-1.05-5.08.73-6.41s2.85-.32,3.57,1.42c.83,2-.53,4-.59,6s.54,2.82,1.07,4.55c.72,2.37-1,12.92,2.58,12.87,4.46-.05,1-12.72.85-15-.17-3.53-1.29-6.9-1.44-10.41-.14-3.27.64-6.37.88-9.59.21-2.92-.82-9.8,3.42-10.49,2.61,5-2.06,9.2-2,14.18,0,4.38,1.64,8.74,1.72,13.11.05,2.54.06,4.51,1.27,6.72s2.39,3.23,2.43,6.18c.08,4.7-.19,8.8.28,13.37.15,1.39.11,6.16,1.43,7.05,2,1.34,3.52-1.86,4-3.31,1-2.83.35-5-.4-7.58s-.61-4.69-.48-7.55a56.58,56.58,0,0,0-.65-10.32c-.52-3.88-.23-7.44-.5-11.27-.08-1.19-2.2-10.55,2-8.17,2,1.13.85,8.73.78,10.7-.15,4,1.56,7.58,2.27,11.69.59,3.4.32,6.82.93,10a18.73,18.73,0,0,1-.21,7.81c-.48,2.63-1.58,12.2,3.42,8.64,3.36-2.4,3.49-5.88,3.32-9.34a107.09,107.09,0,0,1,.32-13.31c.17-2.39-.59-4.6-.86-6.94-.36-2.93.49-4,1.13-6.7s.17-5-.3-7.45c-.26-1.39-1.17-5.34.87-6.2,2.53-1.05,2.18,5.06,2.27,6.79.19,3.66,1.58,8.18.52,11.68-.51,1.65-1.47,2-1.37,4s1.3,3.23,1.79,5.12c.62,2.44-.58,4.4-.67,6.79a21.8,21.8,0,0,0,.87,5c.92,4.86-3.23,10.8-6.13,15-1.55,2.23-2.35,4.76-4.3,6.67-4.34,4.26-11,6.43-16.93,6.86-6.19.45-16.8,1.38-22.36-2.3C356.67,451.48,356.56,447.59,356.76,444Z" transform="translate(27.85 24.37)"/><path class="cls-7" d="M-27.85,248.3c12.94-3.25,30.14-3.27,43.69-3.89,6.34-.29,14.9-.92,18.59,4.89-1.86,1.21-3.45,4-5.67,5.11,5.51,1.08,18.39,4.55,15.31,12.35,6.35,1.55,19,.89,16.44,11.64-2.13,8.83,8,8.74,6.94,18.3,6.17,1.48,8.41-5.57,15.61-5,5.29.44,16.23,4.65,21.14,7.09,2.06,1,7.83,2.36,7.86,5.79,0,4.72-7.35,3.21-7.93,5.54-1.88,7.57,10.83,7.12,12.87.46a12.21,12.21,0,0,1,4.51,0c1.38,3.4,1.5,7.54,1.29,11.34,1.34-.19,3.2.46,4.56.27.74,5.17.19,11.37-3.18,15.65-5.78,7.32-11.81,2.34-18.08,5.59-7.89,4.09-4.88,16.2,2,19.41,7.77,3.64,10-4.52,17.52-3,5.32,1.09,6.67,14.28,15.54,9.9,2.58,6.66,9.73,9.76,14.9,13.44,12.3,8.76,5.67,11.21-6.21,18.26,3.35.72,3.93,3,5.77,4.18-5.78,3.18-13.89,1.23-18.56,5.67,3.28,5.48,10.15,10.15,15.92,11.56s10.62-7.1,11.6,5.9c10.25,2.53,16.17,7,27.8,8.88,8,1.33,10.12,1.46,14.78,6.78,2.66,3-1.47,6.85,5,7.75-2.8,1.3-9.24,7.21-4.92,10.57,2.1,1.65,10.35-2.83,13.35-2.64.62,2.3,1.49,5.18,1.11,7.62,5.62-5.58,8.33,6.27,11.65,4.95,8.59-3.42.36-7.71-2.06-12s-5-8.73-1.84-12.11c5.92-6.38,7.83.9,10.49,3.9,1.75,2,1.89,11.12,8,7.36s-1.67-9-3-12.48c-2-5.26-1.09-9.82-1.89-15.31s-2.63-8.94-3.93-14.23c-1.55-6.3.47-12.93.09-19.06-.28-4.55-3.57-8.35-4-12.73-.19-1.92.19-2.51-1.16-4.18-1.14-1.4-2.76-2.13-3.22-4-.6-2.51,1.66-4.09,1.32-6.4,3.23-.25,2.71,6.81,3.15,8.47,1,3.92,4.85,4.69,4,9.05-.21,1.13-.87,2.64-.32,3.83s2.22,2.21,2.88,3.62a14.89,14.89,0,0,1,1.16,7.72c-.32,3.37-1.61,6.52.16,9.76,1,1.78,1.73,2.4,1.77,4.54,0,1.6-1,4.24.29,5.43,1.41,1.34,2.55-.49,3.36,1.94.72,2.15,0,4.73.78,7,.9,2.63.81,13.19,6.32,8,3.54-3.31-1.8-7.71-2-11.36-.2-3.45,0-4.53-2.53-6.89s-2.36-3.59-2.81-6.76c-.77-5.48-.69-11-1.21-16.65-.3-3.34-2.65-4.38-3.68-7.28-.39-1.11,0-2.17-.16-3.28-.32-1.83-.19-1-1.27-2.41-.81-1.06-1.49-1.37-1.66-2.86-.12-1,.67-2,.47-3a22.72,22.72,0,0,0-2.68-5.72c-1.27-1.92-3.22-2-3.19-4.73,0-1.91,1.13-4,2.86-3.4,1.28.47,2.28,3.24,3.11,4.36a9,9,0,0,1,2,3.54c.34,1.47-.45,3.34,0,4.74.73,2.19,3.09,2.5,3.86,4.83.91,2.76.12,4.51,1.75,6.86a12.34,12.34,0,0,1,2.14,6c.43,3.5.57,3.92,2.91,6.38,3.68,3.88-1.26,7.62.46,11.73.68,1.63,2,1.89,2.31,3.92.36,2.42-1.19,5.25.54,7.06.51.53,1.74.37,2.34,1.12s.34,1.91.76,2.7a48.62,48.62,0,0,0,3.27,5.27c.84,1.17,2,1.89,2.5,3.2.82,2.05-.48,4.63.49,6.58.88,1.77,4,4.3,5.42,2.12,1-1.46.32-4-.36-5.34-.36-.68-1.14-.84-1.43-1.62-.52-1.41.6-3.46,0-4.85-1.07-2.41-2.9-2.31-3.43-5.18s-.2-7.44-1.5-10c-1.59-3.15-4.88-2.42-3.22-6.73,1.8-4.69,4.41-8.44,2.19-13.62-2.31-5.41-6.61-10.71-2.28-16.16,2.95,1,3,3,2.74,5.9-.36,3.84,1.75,4,3.29,7.23,1,2.11,1.19,6.56,1,9-.14,2.2-2.83,5.1-1.39,7.29,1.31,2,3.7,1.34,4.29,4.3.3,1.52-.29,3.23-.25,4.78.06,2.23.72,2.95,1.76,4.8,1.22,2.2,2.84,4.53,3.64,6.79a45.33,45.33,0,0,0,2.61,6.51c-.06,1.72,1,2.48,2.68,1.28,1.47-1.07.38-2.83.17-4.23-.33-2.28.23-3.84.49-6,.41-3.4-1.7-5.34-2.63-8.41-.73-2.42-.3-4.66-.23-7.14.13-3.9-.65-6.27.93-10,2.17-5.16,1.17-9.14,1.25-14.54.06-3.5,2.09-6.1,3.12-9.32s0-4.94-1.42-7.86a11.07,11.07,0,0,1-1.47-6.17c.13-1,1.61-5.58,2.94-5.51,1.71.09.9,4.44.73,5.48s-1.29,3.25-1,4.29c.15.5,1.54,1.32,1.93,1.84,2.68,3.58,2.54,5.53.9,9.58-1.26,3.13-2.87,7.16-1.95,10.58,1.11,4.09,2,5.26.55,9.52a9.54,9.54,0,0,0-.31,5,19.25,19.25,0,0,1,.06,8.31c-.3,1.69-.42,3.08.5,4.56s2.62,1.82,3.18,3.7c.67,2.28.37,6.87.41,9.28,0,.95-.66,3.61,0,4.28,2.48,2.43,3.16-2.44,3.19-3.71.07-2.83-.81-5.54-1-8.35-.2-3.2,1.13-6.45.75-9.62-.32-2.72-2.08-4.77-2.2-7.64-.16-3.73,1.37-7.6,2.67-11.05.5-1.32.76-3.66,2.37-3.75,2,3.42-1.68,7.46-1.35,11.14.38,4.27,1.71,8,1.71,12.21s3.28,8.48,2.63,12.78c-.31,2-1.79,4.11-1.07,6.27.25.75,1.25,1.11,1.49,1.81.18.52-.28,2,0,2.33,1.52,1.84,3.11-1.16,3.67-2.56,1.3-3.24.31-5-.27-8-.51-2.61,1.09-4.33,1.85-6.76,1-3.14.75-6.93.6-10.2-.14-2.89-.82-5.75.71-8.37,2-3.49,4.6-5.64,5.42-9.83.58-3,.77-6.66-1-9.37-1.45-2.18-2.73-2.59-2.91-5.46-.11-1.72-.25-5.42,1.7-6.36s2,.49,1.95,2-.95,3.16-.27,4.81,2.46,2.81,3.42,4.24a16.91,16.91,0,0,1,1.44,14.77c-1.81,4.32-4.34,7.17-4.6,12.11-.12,2.33.49,3.88,1,6.07.68,2.73.05,4-.8,6.56-.38,1.12-1.15,2.91-1,4.08.2,1.51.94,1.39,1.39,2.54,1,2.57.06,3.9-.64,6.51-.77,2.84,1,6.08-.95,8.37-1,1.15-2.28,1.36-3.11,2.91s-.2,2-.52,3.32c-.42,1.76-3.45,5.07-.94,5.9s3.54-3.1,5.9-2c1.64.79,1.17,3.79,3,4.4,1.08.35,1.95-.55,2.93-.11s2.09,2.55,3.15,3.25c.87-.21.89-1.66,1.67-2.18s1.6.13,2.22-.23c1.63-.95,1.82-2.1,2.59-3.7,1.19-2.45.79-2,2.92-1.67,1.83.25,1.55.87,3.48.08.08.55.55,1,.5,1.61,1.33-1.13,4-4,5.32-.82-.66-2.7,3.46-4.52,5.1-2.64-1-3.51,3.39-1.26,4.36.32-.25-1.37.13-3.58,1.62-3.92-.68-2.3-1.47-5.07,2-4.9-3.21-4.15,4.14-9,3.26-3.62.54-.91,1-1,1.7-.45.53-.53,1.15-.4,1.62-.65a25,25,0,0,1,.54,3c2-2.48,3.8-2.94,6-.63.16-.14.36-.37.53-.51a2.51,2.51,0,0,1,1.16,2c-.06-2.87,3.24-1.92,4.37-.35,1.71-1.91,4.49-5,5.39-.53a1.84,1.84,0,0,1,1.9,2.22c1.77,0,5.07-2,6.24-3.14,3.41-3.37,6.22-10.9,12.41-9.94.27,2.16-.94,4.5-1.83,6.41,2.13-1.72,5.14-5.65,8.16-5.68a11.87,11.87,0,0,1-1.41,4.32c1.67-.83,4-3.22,6-3.1,2.4.14,1.65,1.77,1.77,3.84,5.26-1.56,10.5-9.87,16.66-8.78,7.72,1.36-7.74,18.77-9.42,20.92,1.67-.79,4.81-1.65,4.9,1.21,1.73-2.08,5.12-3.44,7.07-.75.51-.49,1.8-1.59,2.6-1.46,2.38.37,1.12,3.77,2.2,5.16s1,.15,2.9.46c1,.16,1.51,0,1.76,1.17,2.45-2,2.67,2.42,4.06,3.39.68.48,1.89,0,2.74.53a3.9,3.9,0,0,1,1.63,2.92c5.93-3.28-.6-8.62-1.41-12.26-.73-3.25,1.76-6.36,1.43-9.75s-2.72-5.91-3.68-9c-.78-2.52-1.52-8.38,1-10.49,1.76-1.49,2.53-.69,3.24,1,1.44,3.45-.07,6.53,2.3,9.88,2.91,4.11,3.74,6.31,1.93,10.92a13.33,13.33,0,0,0-.9,6c.24,2.7,1.54,3.06,3,5.08,1.63,2.18.56,13.34,5.89,8.89,1.79-1.48,1.76-6.08.8-8s-3.13-2.78-4.16-4.61c-2.44-4.32.91-7.8,1.41-12.13a9.44,9.44,0,0,0-.72-5.63c-.83-1.59-2.1-2.51-2.39-4.38s.38-4.38,2.5-4.93c2.64-.69,2.63,1.23,2.86,3.36.45,4.18-.39,8.57.17,12.66.61,4.52,2.84,7.22,5.41,10.7,2.11,2.86,1.69,6,1.69,9.4,0,2-.28,3.56.94,5.2,2,2.65,4.43.81,5.08-1.94.77-3.24-2.77-6.89-3.29-10.24-.32-2.07,1.11-4.09.7-6s-3-3-3.38-5.07a4.61,4.61,0,0,1,2.69-4.9c2.48-.89,2.65,1,3.14,3.23.59,2.56-.17,4.84.18,7.34s2.19,3.13,2.69,5.42c.45,2-.12,4,.47,6,.76,2.54,1,3.19.07,5.89-.69,2.06-1.7,4-.08,6,1.49,1.78,3.36,1.82,4.64.06,2.25-3.07-1-7.15-.51-10.39.31-2,1-4.15,1.24-6.26.19-1.54-.14-5,.47-6.33,1.75-3.86,3.61,1.17,3.41,3.39-.37,4.22-3,5.42-.49,9.5,2.15,3.47.11,7.23,2.61,10.81s3.75,4.6,2.66,8.84c-.46,1.81-.61,3,.23,4.43s3.23,2.14,1.05,4.55A30.66,30.66,0,0,1,496,487.9c1.07-.3,1.79.62,2.84-.24,1.37-1.13.51-4,1.15-5.57,1.59.7,2-.52,3.35-1,1.54-.55,2.84.15,4.12-.23,6.32-1.84,3.49-2.22,5.42-6.24.39-.81-2.48-4-1.65-5.94,1.19-2.79,4.06-2.61,5.48-4.57,4.17-5.73,7.81-9.57.27-16.53,2.71-.87,7-4.16,9.7-4.2,2.43,0,5.52,5,7.75,4.1,7.64-3,.37-12.29-1.23-15.63-9.82-20.53-4.08-44.31-8.46-66-.75-3.72-3.87-5.71-2.81-10.53,11.06,1.38,10.28,29.81,11.46,38,1,7.1,4.65,14.07,5.87,21.33,1.72,10.25,4.55,10.24,10.46,18.23,3.37-18.95-3.07-28.85-8.09-43.68-2.83-8.39-.9-14.47-2.56-22.83-1.09-5.45-8.86-11.48-3.69-16.11,7.69,4.72,3.7,12.56,5.8,19.53,1.93,6.38,7.12,12.39,9.52,18.43,2.05,5.18,2.28,12.29,4.08,18.47,2.11,7.28,7.31,12.16,7,21.19,14.59-1.72,2.82-22.57,1.8-29-.88-5.59-.49-9.78-1.94-15.22-1-3.77-4.7-15.35,3.68-8.78,2.39,1.87,4.4,11.62,4.86,14.3,1.3,7.57,1.2,11.13,4.1,17.5,7.83,17.21,8.73,1.87,9.84-8.57,4.13-1.49,8.75-1.42,11.5,1.79,7.8-4.37-2.35-15,6.65-14.71a15,15,0,0,1,.29-3.61c1.44,1.24,5,2.67,6.65,4.85,9.07-7.05-.42-9.81-4-14.71,3.78-8.44,13.06-4.1,18.78-12,5.41-7.49,3.27-10.22,12.56-13.42,14-4.82,22.92,2.34,33.86,10.15C675.53,360,691.52,374,699,372.51c8.81-1.72,5.22-14,15.06,1.07,12.06,18.46,7.08,37.73,1.1,57.25C706,460.71,702.7,492,692.4,521.47c-5.86,16.78-13.77,42.06-33.95,45.39-12,2-24.63.95-36.87,3.07-20.88,3.63-36.85-.84-57.5-2.87-19.23-1.9-37.22,3.93-56.12,5.65-21.59,2-43.55.26-64.93,4.15-40,7.27-76.78,5.48-117.23,5.48-20.68,0-40.05-4.17-60.56-5.77-23.89-1.86-47.08,2.35-70.85,2.08-19.94-.23-39.21-7.36-59.25-6-18.58,1.24-35.62,9-53.61,12.78-28.05,5.89-45.15-4.58-58.54-30.07-14.11-26.85-13.17-56.29.2-82.75,9.94-19.66,18.87-35.68,14-58.31-4-18.41-12.89-36.24-18.68-54.19-4.92-15.25-5.53-34.22-12.54-48.17-7.18-14.3-27.19-17.25-30.87-31.52C-27.25,271.4-22.31,256.2-27.85,248.3Z" transform="translate(27.85 24.37)"/><path class="cls-8" d="M168.81,206.34a23,23,0,0,1,2.66-.83c-.65-1.35-2.38-1.53-3-2.79-.42-.83,0-2-.1-2.85-.31-2.09-.48-3.42-2.78-1.52-.27-1.55-1.93-.85-3.21-.51,1.34-.73,1.66-3.86-.25-4-1.18-.08-1.41,1.55-2.11,1.89a18.08,18.08,0,0,1-2.35.46c-.3-2.1-1.34-.28-2.36-.47s-1.8-1.33-3.49-1.07a2.57,2.57,0,0,0-4.48,1.49c-.68-2.94-2.72-1-4.19.07-.7-2.59-3-.6-4.22-1.87-1.07-1.1.66-3.57-2.39-2.37.06-.82-.14-1.75-.08-2.56-1.76-.15-5.4.41-6.56-.31a3.79,3.79,0,0,0,3.61-.29c-.14-1.88-2.07-2.42-3.07-3.62,3.47-.49-1-3.07-2.5-4l.12-.05c1.17-2.46-3.3-4.75-5-5.78,3.5-.64,2.36-3.34-.23-4.41.57-1.41-2.15-4.17-3.53-4.3,2,.18,1.76-5.59-.5-5.59-.3-1.27-.06-1-1.31-1.31.81-3.71-3.81-2.9-5.82-3.18.35-2.21-1.46-3.13-3.42-2.9.63-3.3-4-1.64-3.48-6,1.3.67,8.06,3.51,7.62-.22-2.34-1-5.27-1.33-7.41-2.69,1.32-.45,9.28-.49,6.2-2.69-1.25-.89-4.71.82-5.63-.21-2-2.26,5.15-1.58,4.87-3.71a2.56,2.56,0,0,0,2.3-1.55c1.09.41,4.43,2.2,5.23,1.83a5.67,5.67,0,0,1-.29-.7c1.48.65,5.47,1.93,4.28-.89.29-.54,1.22-.33.63-1.29,1,.94,6.17-5,.79-5.62,0-.31-.17-.87-.14-1.24-.44.06-1.07-.16-1.5-.08-.22-1.31-1.61-1.76-2.91-1.58-.07-.25,0-.47-.08-.72-1.7,1.51-3.78-1.26-5.51.76a2.17,2.17,0,0,0-3.11.24c-.86-1-1.69-1.1-1.94.25-1.13-.2-2.27-.15-2.37,1-1-.16-1.27,0-1.82.57a1.79,1.79,0,0,0-3.17.24c-1.39-1.07-3.7-1.77-4.74.22-1.27-1.2-2.7-2.4-4.44-2.57,5.64,0,12,.14,16.64-3.43-.6-1.48-2.84-1.26-4.25-1.53,1.86-.36,3.95-.25,5.7-.85-2.49-1.74-6-1.61-8.83-2.58,3.87-.3,8.3.36,11.84-.59-4.35-3.51-10.21-3.78-15.79-3.69,1.37-.57,4-1,5.2-1.79,3.62-2.47-.87-2-2.65-2.18,1.5-.29,4.6-1.4,4.19-3.4-1.71-.4-2.49,1.09-4.1,1,.8-.54,3.14-1.9,2.49-3.18-.78-1.56-3.12.21-4.3,1,1.33-1.07,3.54-4.21.92-4.5-1.36-.15-3.45,4.25-4.44,5.22-1.2-3.39-4.4,0-5.81,1.11-.51-1.75-2.12-1.5-3.48-1,2.24-1.48.4-3.42-1.79-2.84.66-1.46-.13-2.66-1.87-2.21.29-2.12-.35-3.62-2.68-3.14.43-2-.53-3.39-2.6-2.94,0-.63-.39-1.15-.34-1.77-1.11-.12-1.59-.09-1.8.93-1-2.53-4.1-.83-3,1.59A3.45,3.45,0,0,0,68.53,96,2.38,2.38,0,0,0,66,94.56c1.4-1.81.29-3.53-2-3.2.54-1.65,1.52-3.19,1.19-5-.24.13-.51.27-.77.43C63.2,85.09,63.58,83.47,61,83c3-.78,4.45-1.35,1.47-3.81C58.12,75.57,51,74.8,45.72,72.63c2.9,1.09,11.84,3.19,13.07.48,1.08-2.38-5.27-5.54-6.7-6.24a14.31,14.31,0,0,0,4,.19c-.77-1.66-2.91-2.47-4.68-3.14,2.7-.41,5.22,2,7.88.74-1.38-3.25-6.08-3-8-5.5-1-1.36-1.14-4.85-3.84-2.46a3.69,3.69,0,0,0-2.1-2.7c1.2-.21,2.13-1.78,2.35-3,1.51,0,4,0,3.68-2.09.88,1.17,5.06,2.73,6.55,2.54-.07-.45.16-1.08.07-1.52,1.16.26,2.11,1,3.35,1,.16-2-1.55-3.27-3.06-3.93-.51-.22-1.45.29-1.93,0s-.46-1.12-.78-1.35a13.34,13.34,0,0,0-2.39-1.57c-1.4-.67-3.43-1-4.55-2-1.94-1.8-1.55-2.65-4.9-2.76-.08-2.49-1.57-2.18-3-3.13-1.2-.82-2.35-2.78-4.24-1.81-.54-1.57-1.52-1.74-3.16-2.15-.24-.06-.5,0-.75,0,.23-2-1.52-2.76-2.88-1.66C29.36,27,.15,19.72-2.58,19.53L-8.79,432.66c0,15.72-.24,31.35,1.28,47,1.29,13.38,3.25,26.78,5,40.12,1.8,13.86,8.17,25.57,22.61,28.62,13.74,2.9,28.74.94,42.23-2.57,5.94-1.54,11.52-5.06,17.75-5.23,5.37-.15,10.45.43,15.82-.2,6.53-.76,18.53-.49,22.12-6.61.86-1.46.1-1.56,1.85-2.63,1.2-.74,3-.74,3.72-2.38,1.52-3.67-2.56-6.55-4.86-2.58-.89,1.53-.21,2.5-2,3.57-.89.52-2.9,1.16-3.72,0-1.89-2.79,4.86-4.86,5.66-6.76.66-1.59-.57-6.76-2.2-7.62-.75-.4-4.09.14-4.27,1-.22,1,2.63,2.51,3,3.45,1,2.57-2.09,6.17-4.75,5.5.93-3.83-4.14-2.58-5.87-1.07-2.18,1.9-1.42,4.78-3.8,6.72-4,3.27-2.82-3.19-6-3.46a30.84,30.84,0,0,0-2.79,1.61,9.53,9.53,0,0,1-3.73,1.22c-.56-3.13-3.85-2.43-5.33-4.26-.58-.71-.33-1.85-.85-2.57-.84-1.16-.64-.66-1.75-1.33-1.55-.92-2.16.8-3-1.56a1.54,1.54,0,0,1,1.34-2.13c0-2.63,3.45-.64,5.08-1.5,1.29-.67,3.38-3,3.15-4.53,2.64-.14,7.62,1.35,9.76-.62,1.3-1.21,1.53-6,4.42-5.19.32,2.82,3.06,1.65,4.34,3.56a3.64,3.64,0,0,1,2.89-2c2,0,2,1.7,3.84,2.13,3.82.89,4.39-4.39,7.44-4.48-.62,3.2-.17,5.59,3.24,6,3.74.5,7.43-2,7.08-5.87-.1-1.21-.61-4.18-2.38-3.87-1.17.2-1.5,3.5-2.69,4-3.64,1.57-1.15-5-4.7-4.59-2,.21-4.08,5.38-6.08,1.64-.49-.92-.53-3.43.19-4.28,1-1.12,2-.46,3.24-1.05,3.21-1.57,5.15-13.87-.48-12.37-.06,2.13,1.69,6,0,7.9-1.28,1.47-3.48.22-5.1,1.5-2.09,1.65-.08,3.83-1.1,6.15-1.14,2.61-6.46,3.71-6.81,0,1.2,0,3-.73,3.41-2.05s-1.18-2-1.06-3,1.47-1.54,1.64-2.65-1-1.83-1.08-2.9c-.11-2.77,4.43-3.56,3.65-6.29-.45,0-1.09-.26-1.46-.23a3.24,3.24,0,0,0,.52-3.33c-.2-.53-1.16.12-1.48-.43s-.25-1.91-.63-2.22c-2.63-2.16-2.88,2.59-2.5,4.76-1-1-3.62-1.3-3.92.35-.08-.32-2.46-2.08-3.17-3.24a15,15,0,0,1-1.57-4.65c-.32-1.22-1.16-7.63-2.91-4.89-2.91-1.28-2.15,1.77-2.71,3.51-1.25-1.57-2.45-.42-3.85,0-.39-2.76-2.32-1.79-3.75-3.13,1.68-.15,5.8-2.91,2.4-3,1.55-.55,2.35-3.18-.2-2.56,1.31-1.1,1.33-3.53-.87-3.21.67-1.08,1-2.54-.51-2.66.58-1.2.51-2.64-1-2.65.34-1.73-1.68-3.53-2.48-1.56,0-.31-.47-1.33-.52-1.81-.71.51-1.27.26-2,.49.19-1.55-.34-2.16-1.29-3.14-.57-.59-2.27-1.07-2.51-1.39-1.33-1.72.49-3.9-.23-6.24-1.17.15-2.67-2-2.64-3.22s1.92-1.55,1.08-2.9c4.86-.34,9.74-.26,14.58-.9,1.72-.23,6.51-.25,7.93-1.67,1.68-1.67.28-2.19-1.82-2.7.44-2.1,3.76-1.59,5.45-1.63a5.34,5.34,0,0,0-3.09-2.38,97.31,97.31,0,0,0,11.77-.94c4.7-.5,19.41-5.29,7.45-7.47,2.9-.29,5-.48,5.6-3.1.35-1.62-.46-3.08.58-4.56,1.56-2.24,2.76-1.63,3-4.69.14-1.42-.31-3.75,1.56-3.73a7.37,7.37,0,0,0,2.62,4.43c.9-1.76-.82-4.24,1.06-5.5,1.18,2.5.14,6.22,1.64,8.4,2.24-1,.18-10.16,2.64-8.92.69-.89.58-2,.83-3.15,1-.4,2.48.65,3.14.23,1.38-.89,0-3.65,1.31-5,1.69-1.78,4.64-1.11,4.27-4.66,3.83-.31,4.33-2.1,6-5.37,1.87.32,2.21,2.31,4.24,1.84s2.1-2.8,2.68-4.39c3.7,3.12,8.62-2.48,8.37-6.18-.06-1.06-1.53-.86-1.52-1.81s1.31-1.35,1.51-2a4.94,4.94,0,0,0-1.28-4.81c.87,0,3.86.05,4.4-.82.85-1.37-1.07-2.19-1-3.21s1.5-.79,1.38-1.83-1.9-1-1.87-1.58c3.2-1.8,2.52-3.49-.05-5,3.68-3.65-8.5-1.26-9.42-1.36-.18-1.39-1.61-1.78-2.9-1.59-.7-2.13-1.15-3.8-4-3.92,3.24.19,7.12-1.36,10-2.63-1.35-1.9-5.95-2.14-8.17-2.91a12.65,12.65,0,0,1,2.88-1.32c-1.06-1.45-4.8-1.71-6.58-1.59,2.51-3-10.47-3.21-11.62-3.43.86,0,5.51-1.41,5.83-2.17.61-1.47-1.66-2.06-2.92-2.59-1.79-2.7-2.74-3.58-6.3-3.72-.09-1.52.46-4.31-1-5.33-.93-.64-3.19.16-3.77,1-.92-.78-2.71-.54-4-.44.1-4.19-2.63-7.68-7.42-6.1-.51-.84-.35-2.6-1-3.15,3.48,1.53,12.92,1.84,9.78-3.92,1.43-.07,3.3.29,4.64-.24,2.09-.84.71-.18.69-1.44s-.86-3.4-2.68-3.15c.18-.25.34-.77.55-1-.31-.21-1.78-.39-1.89-.5a9.19,9.19,0,0,1-.84-1.34,5.78,5.78,0,0,0-3.87-1.09,2.31,2.31,0,0,0-2.68-2.08c1.1-.35,4.29-2.15,4.23-3.45-.14-3.15-4.44-.49-5.82-.25,6.32-3.36,1.94-8.25-1.58-3.69,1-1.57,2.63-3.13,1.34-5-2,.45-3.11,2.68-4,4.25-.88-.87-.16-2.1-1.06-3l-.75.26c.07-1.73,0-3.91-2.38-3.43a3.83,3.83,0,0,0-2.42-3.4,2.37,2.37,0,0,0,2.28-2.7l0,0c.06-1,1.52-2.56,2.7-2s.69,1.43.79,2.43c.14,1.45-.72,7.59,2.89,4.74,1.94,1.43,4.18-1.06,3.68-3.13,1.75,4.25,7.2-2.37,3.76-3.63a2.71,2.71,0,0,0-1-4.4c1.25-1.05,2-2.88.71-4.25,2.21,1.84,5.91,2.54,7.43-.32.4-.75-.46-1.64,0-2.39.27-.5,1.62-.65,1.9-1.24.71-1.55-.73-2.72-.84-4.25-.09-1.23,1.54-2.46-.42-2.88.87-2.09-1.49-2.37-2.46-.84-1.39-1.05-2.69-.49-4.5-.49,1.82-.57,3.25-1.94,5.08-2.52,1.63-.52,3.31-.11,4.87-.7,2-.75,6.07-5.12,1.69-5.54.82-1.52,2.8-2.17,3.38-3.35-.44.08-1.06-.11-1.51-.07-.09-1.53-.61-3.82,1-4.5-.73-1.28-2.5-1.71-3.41-2.87,2.78-3.63,3.44-3,2.63-7.55-.27-1.55.87-5.88-.47-6.49a2.92,2.92,0,0,0-1.08-3.59c2.51-1.21,1.24-3.11-.47-4.25a18.48,18.48,0,0,0,7,.71,5.21,5.21,0,0,0-.48-2.33c2,.58,3.47,2.18,5.75,1.8a3.2,3.2,0,0,0-1.73-2.57c2.07.43,8.78,4.65,8.64.24,1.67,1.39,6.28,3,7.43.56,2.93,0,6.33.55,5.26-3.19a16.67,16.67,0,0,0,2.89-.6C169.62,207.45,169.38,206.71,168.81,206.34ZM127.59,181l-.08-.06A.12.12,0,0,1,127.59,181Z" transform="translate(27.85 24.37)"/><path class="cls-8" d="M819.39,430c-2.85-22.32-6-44.74-9.64-66.95-1.41-8.68-7.59-24.48-3.61-33.15L803.9,57.23c-5-10.85-9.12-22.18-15.1-32.58a73.1,73.1,0,0,0-10.51-14.38c-1.87-1.95-5.08-3.72-6.52-5.94-1.28-2-1.28-4.93-2.35-7.08-1.35-2.74-4.79-4.66-5.71-8-1-3.59,3-13.2-4.47-13.57-2.43-.12-2.63,1.63-2.24,3.58.19.9,2,.89,2.25,1.89.42,1.63-.14,2.18-.25,3.7-.21,3.14-1.17,5.21-.22,8.49s3.55,5.49,3,9.27c-4.82.87-3.87-5.62-5.3-8-1.76-2.94-4.07-2.79-4.94,1.33-1.29,6.11,4.11,9.53,6.72,13.88,2.43,4.05.71,3.05-1.89,4.38-1,.49-2.05.26-3.37,1.1-1.14.72-1.54,2.5-2.92,3.39-4.46,2.86-12-.6-10.55,7.62,5.36,1.16,9,4.47,7.09,10-1.25,3.64-5.19,10.35-8.4,6.69-1.43-1.62.15-5.7-3.71-4.41-2.09.7-1.41,3.62-4.46,4.43-5.1,1.34-6.17-1.6-6.33,5.74-2.9-.45-5.53.69-4.93,4-3.18-.65-5.58,1.81-3.06,4.54-3,.66-5.57-1.06-5.37-4,.19-2.73,2.7-2.63,3.71-4.43,1.58-2.81.44-11.76-1.55-13.94-4.75-5.18-5.17,2.33-4.74,5.37.31,2.22,1.77,4.3-.54,6-3.32,2.4-3.27-1-4.49-2.46s0-4.1-3.6-3.05c-2.16.64-2.52,2.79-2.22,5,.44,3.26,3,5.33,4,8.5s2.45,7.07,5.81,8.51c3.65,1.57,7.67,1.33,10.31,5.37,1.55,2.37.13,7.75-.07,11.57-7.37.52,8.89,9.53,9.37,11.36,1.08,4.06-5.45,2.45-8.57,3-3.75.69-18.46,5.1-17.57,9.78,4.77,1.28,9.84.24,14.5,2.21-4.08.91-7.5,1.79-10.69,4.56,1.63,2.28,5.28,1.58,6.28,4.51-8.89,2.13-17.88,4.29-26.82,7.16-1.38.44-6.86,1-7.19,2.66-.63,3.05,5.3,3.48,7.18,3.7-2.4.42-5.66.1-7.07,2.8-1.53,2.91.21,5,2.69,6.06a.71.71,0,0,1-1,.44c-3.06-.82-7.63.07-9.87-1.31-1.85-1.14-1.61-4.88-3-6.33-3.07-3.25-8.48-2-10.43-6.67-2.07-5,2.94-7.86,2.69-12.1-.38-6.67-5.94-2-7.07,2-.64,2.29-.42,4.77-1.1,6.83-.73,2.23-2.77,2.8-1.81,6.37.66,2.43,8.9,9.67,1,9-5.63-.48-5-9.09-8.59-11.69-1.53-1.1-3.78-1-4.86-2.22-1.75-2,.43-4.67-.41-6.3-2.2-4.24-7.1-.09-7.3,3.72-.17,3,2.42,6.93,5.14,8.73,1.19.78,3.59.41,4.39,1.08,1.76,1.47,1,2.65,1.77,4.41,1.59,3.77,3.48,4.2,6.18,7.15,1.3,1.42,1.14,3.36,2.89,4.37,1.47.86,2.94,0,4.36.56,2.54,1,4.87,3.41.91,4.94-1.46.56-2.74-1-4-.92s-3.47,1.4-4.49,1.28a5.39,5.39,0,0,1-4.09-8c-2.94-2.61-6.66-3.59-6.77.57,0,1.94,4.85,7.39,1,8.43s-3.34-6-5.35-7.1c-4.93-2.81-8.08,4.35-6.33,7.89,1.16,2.37,7.26,6.95,9.87,7.35,2.88.44,7.09-2.07,10-3.14,1.76-.66,6.45-2.63,8.42-1.46,1.78,1.07,2,5.64,2.16,8-3.42.46-5,2.49-6.1,5.53-.41,1.09.17,2.39-.17,3.5s-2.77,1.87-2.22,3.58c2.54,7.86,10.52-5,11.76-7.11,4.48.52,3.47.15,5.86-3.09.93-1.26,3.36-6.06,6.07-4.05,1.8,1.34-.21,5.42-.46,7.08-.62,4.12-.47,7.55-3.07,11.19-1.07,1.49-2.84,2.81-3.67,4.45-2.32,4.64-.17,6.42-5.24,4.95s-15.89-5.35-14.72,4.41c2.42.66,5.55-.08,7.55.48,2.65.76,3.72,3.54,6.63,3.7,1.37,2.62-.6,4.48-.88,7-3.19-.65-5.24,3.12-5.87,5.42-1.23,4.48.28,6.31,5,6.81,3.3,6.26,1,4.63-4,5.74-2.57.58-12,4.93-13.43,7.18-3.54,5.72,7.26,2.95,9.75,3.1,4.68.28,7.67,2.61,12.59,1.89-.92,4.16-9.41,1.71-11.57,5.29,8.13,6.74,15.62,1.48,24.61,3.6,5.07,1.19,2.72,3.36-1.81,4-1.73.25-4.1-.57-5.71.1-2,.83-2.55,2.55-4.5,3.1.4,4.06,8.72,4.3,12,4.48a12.23,12.23,0,0,1,.07,3.52c-.61,2.36-3.44,1.33-5.74,1-.39,2.81-4.19,2.65-5.46,5.3-.56,1.17,1.12,1.65.85,2.68-.34,1.3-1.44,2.57-1.82,4-4.31-.87-3.35,4.12-2.2,6.71-3.46-.3-3.25,3.48-1.3,5.44-3.31-.4-2.12,2.59-3.68,4-2.45,2.28-1.18,1.64-4.15,1.23-1.52-.2-2.1-2.71-4.26-1.53-1.65.9-.6,3-1.34,3.88-.45.55-1.27,1.68-1.67,2.15,0,0-2.07-.15-2.73.51s-.12,2.73-.59,3.59a8.64,8.64,0,0,1-5.19,4.4c-3.61,1.37-12.45.88-12.62,6.29,3.68-.24,5.62,2.49,8.86,2.38-.11.27-19.43,7.86-11.63,10.31-5.2,3.92,8.65,5.73,11.26,5.73a62.42,62.42,0,0,1,12.44.91c2.08.39,9.55.3,10.84,1.75,3.52,3.95-4.7,4.24-6.66,5.93a5.46,5.46,0,0,0,2.48,6.2c-10.32,4,5.74,9.62,8.64,11.63-.19,1.26-1.65,3.15-1.43,4.38.38,2.14,3.11,3.15,3.8,4.91,1.59,4.06-2,8.2,1.1,12.46,6.47,8.81,18,4.24,25.63,8.7-3.14.52-9.93.42-11.21,4-1.17,3.29,3.11,4.6,5.37,4.94,6.36,1,12.84.74,19,3-2.41,2.08-4.32,2.25-2,5.42,2.13,2.91,9.21,3.58,12.49,4.64,0,2.64,3.08,3.21,5.39,3.13.73,3.91-2.51,2.29-4.42,3.49-2.75,1.71-3.47,3.42-3.19,7.11-4.59-.33-9.36-5.59-9,2.7-.58-.36-2.38-.43-3-.78-1.19,2.67-.38,5.11,1.25,7.11-2.06-.59-5.32,1.69-6.27,2.66-1.94,2-3,3.8-2.69,7.19-.31-1.31-2.19-1.87-3.61-2.21-.33,1.34-.66,2.91-.94,4.4-3.76-1.95-5,4.48-5.36,7.08-2.88-3.42-5.35,2.93-5.82,5.43-3.61.16-5.24-5.2-2.77-7.57a4.21,4.21,0,0,0-4.36,2.33c.78-2.51-3.11-4.13-5-2.33,2.21-3.26,1.76-8.48-2.92-8.1-.38-.75.35-.55.39-.82a4.49,4.49,0,0,0-4-2.7c.42-2.35.9-15.32-4.41-8.1-1.09-6-4.14.14-4.19,3.14-9.87-.2-7.58,14.07-4.42,20.64-2.88,1.5-2.73,7.58-2.24,10.85.7,4.75,6.87,6.67,7.21,10.18.3,3-5,5.69-4.65,9.31.14,1.59,1.63,3,1.94,4.59.43,2.15-1,3.75.43,6.26-1.76.89-3.07,4.69-3.2,6.66-4.63-.26-2.08-5.86-7.53-3.09-2.31,1.18-.33,4-3.94,1.36-2.21-1.63-1.67-5.46-3.68-7.17-5.24-4.48-4.86,2.58-4,5.82.91,3.63,1,10.39-4.35,5.51-3.9-3.58-.91-11.36-.57-15.78.22-2.9,1.53-5-2.26-5.88-3.31-.77-3.8,1.22-4.46,3.74-.76,2.92,1,5.34-1.33,7.61-1.88,1.79-4.11,0-5.71,2.56-2.53,4.11,4.44,10.43-1.9,13.58-7.07,3.51-6.24-8.82-4.52-12.61-12.44-1.94-7.49,14.06-2.74,19.09,4.43,4.71,7.83,2.91,13.08,1,3-1.08,9.08-1.56,11.09,1.89,1.79,3.07-1.92,7.83-5.12,8.43-5,.92-8.33-6.41-11,.1-2.2,5.36,3.24,7.2,7.83,6.59,3.57-.47,6.58-3.16,10.17-3.62,4.53,4.52-3.53,8.64-4.92,12.13-6.4,16,64.52,19.47,73.57,16.76,11-3.3,19.8-9.45,32-8.14,6.08.65,11.92,2.35,18.06,2.75,5.58.36,11.58-.55,17.08.16,8.58,1.12,15.68,5.77,24.65,6.32,10,.61,18.73-.87,26.2-7.86,11.9-11.12,16-31.05,17.65-46.55C824.85,478.25,822.46,454,819.39,430Z" transform="translate(27.85 24.37)"/><path class="cls-5" d="M145.38,275.3a3,3,0,1,1-3-3A3,3,0,0,1,145.38,275.3Z" transform="translate(27.85 24.37)"/><path class="cls-5" d="M156.71,282.77a2.47,2.47,0,1,1-2.47-2.47A2.47,2.47,0,0,1,156.71,282.77Z" transform="translate(27.85 24.37)"/><path class="cls-5" d="M150.83,290.81a1.55,1.55,0,1,1-1.55-1.55A1.55,1.55,0,0,1,150.83,290.81Z" transform="translate(27.85 24.37)"/><circle class="cls-5" cx="242.74" cy="377.45" r="3.05"/><path class="cls-5" d="M200.08,369.06a2.12,2.12,0,1,1-2.12-2.12A2.11,2.11,0,0,1,200.08,369.06Z" transform="translate(27.85 24.37)"/><path class="cls-5" d="M214.88,376.93a1.53,1.53,0,1,1-1.52-1.53A1.53,1.53,0,0,1,214.88,376.93Z" transform="translate(27.85 24.37)"/><circle class="cls-5" cx="246.5" cy="410.82" r="1.64"/><path class="cls-5" d="M570.68,337.81a2.35,2.35,0,1,1-2.35-2.35A2.35,2.35,0,0,1,570.68,337.81Z" transform="translate(27.85 24.37)"/><circle class="cls-5" cx="600.37" cy="379.57" r="2.11"/><path class="cls-5" d="M583.73,347.59a2.44,2.44,0,1,1-2.44-2.43A2.44,2.44,0,0,1,583.73,347.59Z" transform="translate(27.85 24.37)"/><path class="cls-5" d="M496.62,411.18a3.53,3.53,0,1,1-3.53-3.52A3.53,3.53,0,0,1,496.62,411.18Z" transform="translate(27.85 24.37)"/><path class="cls-5" d="M508.6,422.52a2.47,2.47,0,1,1-2.46-2.47A2.46,2.46,0,0,1,508.6,422.52Z" transform="translate(27.85 24.37)"/><path class="cls-5" d="M494.5,422.52a2.47,2.47,0,1,1-2.46-2.47A2.46,2.46,0,0,1,494.5,422.52Z" transform="translate(27.85 24.37)"/><path class="cls-5" d="M513.54,359.78a2.47,2.47,0,1,1-2.47-2.47A2.47,2.47,0,0,1,513.54,359.78Z" transform="translate(27.85 24.37)"/></g></svg>