<svg width="732.25" height="490.37" xmlns="http://www.w3.org/2000/svg">
 <defs>
  <style>.cls-1{fill:none;}.cls-2{clip-path:url(#clip-path);}.cls-3{fill:#58f9f1;}.cls-4{fill:#51f2eb;}.cls-5{fill:#67fff2;}.cls-6{fill:#19dde9;}.cls-7{fill:#19acd1;}.cls-8{fill:#0b87a9;}</style>
  <clipPath id="clip-path">
   <rect id="svg_1" height="500" width="750" class="cls-1"/>
  </clipPath>
 </defs>
 <title>298990-P7H2SR-977</title>
 <g>
  <title>background</title>
  <rect fill="none" id="canvas_background" height="492.37" width="734.25" y="-1" x="-1"/>
 </g>
 <g>
  <title>Layer 1</title>
  <g id="svg_2" class="cls-2">
   <rect id="svg_3" height="500" width="750" y="38.37" x="-4.15" class="cls-3"/>
   <path id="svg_4" d="m-1.15,129.070001c48.57,-1.68 97.74,-0.56 145.8,1.74c133.8,6.41 269.66,20.42 400.86,1.8c72.34,-10.24 139.97,-30.05 203.34,-55.48l0,-51.76c-94.65,33.3 -187.76,68.63 -292.75,67.44c-120.88,-1.36 -226.19,-51.33 -339.83,-79.44l-117.42,0l0,115.7z" class="cls-4"/>
   <path id="svg_5" d="m748.85,366.030001c-120.55,-47.83 -265.68,-67.89 -404.76,-55.26c-128.56,11.68 -250.88,51.19 -345.24,110.48l0,92.12l49.62,0c20.84,-9.58 38.85,-22.79 56.31,-35.26c78.85,-56.32 178.52,-109.08 294.07,-109.62c91.05,-0.42 174.85,31.87 248.86,67.23c33.69,16.09 66.85,33.17 101.12,48.84l0.02,-118.53z" class="cls-5"/>
   <path id="svg_6" d="m439.27,272.270001c110,6.68 207.64,45.5 309.58,75.05l0,-213.25a1230.18,1230.18 0 0 1 -141.89,31.51c-121.93,19.44 -248.65,19.8 -373,30.27c-80.36,6.76 -162.03,18.52 -235.11,40.92l0,129.85c140.25,-47.44 284.58,-103.81 440.42,-94.35z" class="cls-5"/>
   <path id="svg_7" d="m748.85,206.620001c-123.83,7.75 -250.13,1.75 -375.09,1.75c-127.15,0 -259.31,7.56 -374.91,40.24l0,44.16c61.4,-16.77 121.11,-36.54 184.29,-50.06c153.59,-32.87 320.18,-27.1 478.85,-7.74c28.7,3.5 57.88,7.44 86.86,7.3l0,-35.65z" class="cls-4"/>
   <path id="svg_8" d="m748.85,98.560001c-72,32.67 -159.77,48 -246.79,53.55c-92.67,5.95 -186,1.67 -279.1,0.65c-75,-0.83 -151,0.57 -224.11,10.92l0,27.76c19.73,-3.34 39.39,-7.41 58.76,-10.82c117.09,-20.59 240.17,-16.64 361.2,-19.37c114.18,-2.57 232.84,-12.38 330,-51.56l0.04,-11.13z" class="cls-5"/>
   <path id="svg_9" d="m270.52,270.040001a2.34,2.34 0 1 1 -2.33,-2.34a2.33,2.33 0 0 1 2.33,2.34z" class="cls-6"/>
   <path id="svg_10" d="m280.99,248.370001a1.33,1.33 0 1 1 -1.33,-1.33a1.33,1.33 0 0 1 1.33,1.33z" class="cls-6"/>
   <circle id="svg_11" r="1.5" cy="253.54" cx="260.69" class="cls-6"/>
   <path id="svg_12" d="m250.85,175.260001a2.56,2.56 0 1 1 -2.56,-2.56a2.56,2.56 0 0 1 2.56,2.56z" class="cls-6"/>
   <path id="svg_13" d="m258.52,171.370001a1.34,1.34 0 1 1 -1.34,-1.33a1.33,1.33 0 0 1 1.34,1.33z" class="cls-6"/>
   <path id="svg_14" d="m250.85,159.370001a1.28,1.28 0 1 1 -1.28,-1.28a1.28,1.28 0 0 1 1.28,1.28z" class="cls-6"/>
   <path id="svg_15" d="m313.85,100.530001a2.29,2.29 0 1 1 -2.28,-2.29a2.28,2.28 0 0 1 2.28,2.29z" class="cls-6"/>
   <circle id="svg_16" r="1.14" cy="96.18" cx="296.26" class="cls-6"/>
   <path id="svg_17" d="m202.85,148.160001a3.17,3.17 0 1 1 -3.17,-3.16a3.17,3.17 0 0 1 3.17,3.16z" class="cls-6"/>
   <circle id="svg_18" r="1" cy="139.04" cx="191.85" class="cls-6"/>
   <path id="svg_19" d="m207.85,117.730001a1.36,1.36 0 1 1 -1.36,-1.36a1.36,1.36 0 0 1 1.36,1.36z" class="cls-6"/>
   <circle id="svg_20" r="1.67" cy="109.16" cx="116.1" class="cls-6"/>
   <path id="svg_21" d="m124.97,115.250001a1.12,1.12 0 1 1 -1.12,-1.12a1.12,1.12 0 0 1 1.12,1.12z" class="cls-6"/>
   <circle id="svg_22" r="1.44" cy="78.08" cx="149.54" class="cls-6"/>
   <path id="svg_23" d="m86.69,27.940001a2.74,2.74 0 1 1 -2.73,-2.74a2.73,2.73 0 0 1 2.73,2.74z" class="cls-6"/>
   <path id="svg_24" d="m95.11,30.810001a2,2 0 1 1 -2,-2a2,2 0 0 1 2,2z" class="cls-6"/>
   <path id="svg_25" d="m90.05,39.140001a1,1 0 1 1 -1,-1a1,1 0 0 1 1,1z" class="cls-6"/>
   <path id="svg_26" d="m226.68,232.500001a2.87,2.87 0 1 1 -2.87,-2.86a2.87,2.87 0 0 1 2.87,2.86z" class="cls-6"/>
   <circle id="svg_27" r="0.67" cy="240.37" cx="230.85" class="cls-6"/>
   <path id="svg_28" d="m232.52,293.200001a2.17,2.17 0 1 1 -2.17,-2.16a2.17,2.17 0 0 1 2.17,2.16z" class="cls-6"/>
   <path id="svg_29" d="m230.18,305.370001a1.75,1.75 0 1 1 -1.75,-1.75a1.75,1.75 0 0 1 1.75,1.75z" class="cls-6"/>
   <circle id="svg_30" r="3.5" cy="450.37" cx="136.69" class="cls-6"/>
   <path id="svg_31" d="m149.25,463.590001a1.39,1.39 0 1 1 -1.39,-1.39a1.38,1.38 0 0 1 1.39,1.39z" class="cls-6"/>
   <circle id="svg_32" r="1.62" cy="466.59" cx="160.14" class="cls-6"/>
   <circle id="svg_33" r="2.5" cy="484.71" cx="152.85" class="cls-6"/>
   <circle id="svg_34" r="3.5" cy="493.09" cx="176.69" class="cls-6"/>
   <path id="svg_35" d="m312.36,378.860001a2.16,2.16 0 1 1 -2.15,-2.16a2.16,2.16 0 0 1 2.15,2.16z" class="cls-6"/>
   <path id="svg_36" d="m299.74,368.870001a1.17,1.17 0 1 1 -1.17,-1.17a1.18,1.18 0 0 1 1.17,1.17z" class="cls-6"/>
   <path id="svg_37" d="m305.47,368.510001a1.9,1.9 0 1 1 -1.89,-1.89a1.9,1.9 0 0 1 1.89,1.89z" class="cls-6"/>
   <path id="svg_38" d="m380.01,288.760001a2.58,2.58 0 1 1 -2.58,-2.58a2.59,2.59 0 0 1 2.58,2.58z" class="cls-6"/>
   <path id="svg_39" d="m388,284.440001a1.74,1.74 0 1 1 -1.74,-1.74a1.74,1.74 0 0 1 1.74,1.74z" class="cls-6"/>
   <path id="svg_40" d="m379.76,279.540001a1.17,1.17 0 1 1 -1.16,-1.17a1.16,1.16 0 0 1 1.16,1.17z" class="cls-6"/>
   <circle id="svg_41" r="3" cy="244.04" cx="504.19" class="cls-6"/>
   <path id="svg_42" d="m495.85,241.200001a0.84,0.84 0 0 1 -0.83,0.84a0.85,0.85 0 0 1 -0.84,-0.84a0.84,0.84 0 0 1 0.84,-0.83a0.83,0.83 0 0 1 0.83,0.83z" class="cls-6"/>
   <circle id="svg_43" r="1.5" cy="234" cx="502.69" class="cls-6"/>
   <path id="svg_44" d="m508.36,227.550001a2.09,2.09 0 1 1 -2.09,-2.09a2.1,2.1 0 0 1 2.09,2.09z" class="cls-6"/>
   <circle id="svg_45" r="3" cy="249.7" cx="553.19" class="cls-6"/>
   <circle id="svg_46" r="1.64" cy="323.58" cx="522.52" class="cls-6"/>
   <circle id="svg_47" r="2" cy="329.5" cx="490.45" class="cls-6"/>
   <path id="svg_48" d="m492.43,319.200001a2,2 0 1 1 -4,-0.57a2,2 0 0 1 4,0.57z" class="cls-6"/>
   <circle id="svg_49" r="2.07" cy="325.66" cx="498.19" class="cls-6"/>
   <circle id="svg_50" r="1.77" cy="349.36" cx="462.56" class="cls-6"/>
   <circle id="svg_51" r="1.54" cy="333.04" cx="465.87" class="cls-6"/>
   <path id="svg_52" d="m472.45,339.730001l0,0z" class="cls-6"/>
   <path id="svg_53" d="m455.45,382.080001a1.67,1.67 0 1 1 -1.67,-1.66a1.67,1.67 0 0 1 1.67,1.66z" class="cls-6"/>
   <circle id="svg_54" r="1.5" cy="168.54" cx="566.35" class="cls-6"/>
   <path id="svg_55" d="m553.18,166.200001a1.17,1.17 0 1 1 -1.16,-1.16a1.16,1.16 0 0 1 1.16,1.16z" class="cls-6"/>
   <path id="svg_56" d="m562.63,175.260001a2.56,2.56 0 1 1 -2.55,-2.56a2.55,2.55 0 0 1 2.55,2.56z" class="cls-6"/>
   <path id="svg_57" d="m580.46,111.840001a2.81,2.81 0 1 1 -2.81,-2.8a2.8,2.8 0 0 1 2.81,2.8z" class="cls-6"/>
   <circle id="svg_58" r="1" cy="117.37" cx="568.85" class="cls-6"/>
   <path id="svg_59" d="m678.77,76.370001a2.16,2.16 0 1 1 -2.16,-2.16a2.17,2.17 0 0 1 2.16,2.16z" class="cls-6"/>
   <circle id="svg_60" r="3" cy="37.27" cx="677.45" class="cls-6"/>
   <path id="svg_61" d="m664.85,37.040001a1.78,1.78 0 1 1 -1.78,-1.78a1.78,1.78 0 0 1 1.78,1.78z" class="cls-6"/>
   <path id="svg_62" d="m674.67,48.480001a1.88,1.88 0 1 1 -1.88,-1.88a1.88,1.88 0 0 1 1.88,1.88z" class="cls-6"/>
   <circle id="svg_63" r="3.36" cy="118.01" cx="534.55" class="cls-6"/>
   <circle id="svg_64" r="1.5" cy="126.87" cx="541.35" class="cls-6"/>
   <path id="svg_65" d="m534.85,135.890001a1.82,1.82 0 1 1 -1.82,-1.82a1.82,1.82 0 0 1 1.82,1.82z" class="cls-6"/>
   <path id="svg_66" d="m469.36,72.620001a1.92,1.92 0 1 1 -1.92,-1.92a1.92,1.92 0 0 1 1.92,1.92z" class="cls-6"/>
   <path id="svg_67" d="m490.26,74.370001a1.71,1.71 0 1 1 -1.7,-1.71a1.71,1.71 0 0 1 1.7,1.71z" class="cls-6"/>
   <path id="svg_68" d="m479.47,77.680001a1.65,1.65 0 1 1 -1.62,-1.64a1.65,1.65 0 0 1 1.62,1.64z" class="cls-6"/>
   <circle id="svg_69" r="1.5" cy="44.82" cx="406.02" class="cls-6"/>
   <path id="svg_70" d="m411.57,55.230001a1.2,1.2 0 1 1 -1.19,-1.19a1.19,1.19 0 0 1 1.19,1.19z" class="cls-6"/>
   <path id="svg_71" d="m402.53,58.430001a2,2 0 1 1 -2,-2a2,2 0 0 1 2,2z" class="cls-6"/>
   <path id="svg_72" d="m395.18,120.420001a1.33,1.33 0 1 1 -1.33,-1.33a1.33,1.33 0 0 1 1.33,1.33z" class="cls-6"/>
   <circle id="svg_73" r="1.5" cy="126.87" cx="404.03" class="cls-6"/>
   <path id="svg_74" d="m392.52,130.630001a2.26,2.26 0 1 1 -2.26,-2.26a2.26,2.26 0 0 1 2.26,2.26z" class="cls-6"/>
   <circle id="svg_75" r="1.45" cy="137.33" cx="398.63" class="cls-6"/>
   <rect id="svg_76" height="500" width="500" y="207.37" x="454.85" class="cls-1"/>
   <path id="svg_77" d="m308.01,466.990001c-2.33,-13 1.63,-25.9 -0.54,-38.89c-2.73,-16.36 -9.7,-31.3 -16.18,-46.42c-2.24,-1.89 -4.54,-7.73 -8.45,-3.83c0.33,-2.14 -0.43,-4.64 -1,-6.64c-2.61,-0.16 -9.79,3.73 -11.62,2.3c-3.76,-2.92 1.85,-8.07 4.28,-9.2c-5.63,-0.78 -2,-4.1 -4.35,-6.75c-4.05,-4.62 -5.94,-4.74 -12.86,-5.89c-10.12,-1.68 -15.28,-5.53 -24.19,-7.73c-0.85,-11.31 -5.09,-3.91 -10.1,-5.14a24.35,24.35 0 0 1 -13.85,-10.05c4.06,-3.87 11.12,-2.18 16.15,-4.94c-1.6,-1 -2.11,-3 -5,-3.64c10.34,-6.14 16.11,-8.27 5.41,-15.89c-4.51,-3.2 -10.73,-5.9 -13,-11.7c-7.72,3.81 -8.89,-7.66 -13.52,-8.61c-6.51,-1.33 -8.48,5.77 -15.24,2.61c-6,-2.79 -8.6,-13.33 -1.73,-16.89c5.45,-2.83 10.7,1.5 15.73,-4.87c2.93,-3.73 3.41,-9.12 2.77,-13.61c-1.19,0.16 -2.8,-0.41 -4,-0.25c0.18,-3.3 0.08,-6.9 -1.12,-9.86a10.6,10.6 0 0 0 -3.93,0c-1.77,5.79 -12.84,6.19 -11.2,-0.4c0.51,-2 6.94,-0.71 6.9,-4.82c0,-3 -5.05,-4.15 -6.84,-5c-4.28,-2.12 -13.79,-5.79 -18.4,-6.17c-6.26,-0.52 -8.21,5.62 -13.58,4.32c0.94,-8.31 -7.9,-8.24 -6,-15.92c2.25,-9.36 -8.78,-8.78 -14.3,-10.13c2.67,-6.78 -8.53,-9.81 -13.33,-10.75c1.93,-0.94 3.31,-3.39 4.93,-4.45c-3.21,-5.05 -10.66,-4.5 -16.18,-4.25c-11.79,0.54 -26.76,0.55 -38,3.38c4.83,6.88 0.52,20.11 2.54,27.93c3.2,12.42 11.86,22.06 18.11,34.5c6.1,12.14 15.38,21.58 19.66,34.85c5,15.62 -6.68,32.11 -3.2,48.13c4.28,19.7 8.16,31 -0.48,48.14c-11.64,23 -4.66,50.28 7.61,73.65c11.66,22.14 26.54,31.26 50.94,26.13c15.66,-3.29 30.49,-10.05 46.65,-11.13c17.44,-1.16 34.22,5 51.57,5.25c16.75,0.19 33.17,-2.17 49.85,-2.22c-0.29,-1.68 -0.6,-3.39 -0.91,-5.15z" class="cls-6"/>
   <path id="svg_78" d="m591.71,234.960001c-9.06,0 -20.6,-2 -29.32,0.28c-4.41,1.14 -8.36,6.28 -15.58,7c1,1.72 0.64,4.48 2.42,6.53c-8.86,3.78 -15.19,13.4 -23.55,14.16c-0.51,-1.91 -1.36,-3.24 -1.89,-5.14c-7.53,-1 -10.58,5.31 -9.84,12.23c-13.69,2.79 -6.37,-25 -23.75,-23.47c-13,1.16 9.9,16.64 5.42,27.7c-8.09,1.63 -11.21,-5.25 -9.87,-12.36c-7.44,3.47 -5.85,8.26 -2.63,14.05c0.25,0.44 11.84,13.14 11.23,12.69c8.92,6.69 21.79,5.67 18.19,22.27c-4.94,0.18 -10.13,0.3 -15.08,0.36c0.87,3.7 -0.44,7.86 1,11.21c-6.21,2.28 -14.54,0.91 -20.73,2.57c-1,-4 -4,-5.4 -5.91,-8.42c-5,1.85 -8.83,4.87 -11.11,9.62c5.32,5.43 12.61,7.37 19.21,11.35c-6.62,1.33 -46.06,5.89 -46.08,15.89c0,7.88 24.18,7.07 30.53,6.95c-7.79,1.93 -15.66,0.15 -22.08,6.09c6.79,3 16.89,4.2 24.93,5.19c-4.79,2.12 -17.27,3.05 -16.61,9.9c0.65,6.67 12.39,4.62 16.89,6.74c-22.21,1.24 -30.69,18.06 -51.84,6.13c-0.45,1.37 -0.05,2.55 -0.44,3.94c-11.51,-17.57 -20.55,0.84 -12.93,7.12c-5.78,2.9 -8.12,9 -8.23,15.3c-10,1.45 -21.86,15.05 -22,25.31c-0.24,15.37 15.73,15.9 26.44,22.61c13.75,8.6 17.51,26.24 29.49,35.73c11.56,9.16 31.53,5.56 45.2,5.45c55.7,-0.46 98.68,-32.35 140.56,-65.78c32.88,-26.25 44.27,-55.81 52.3,-96.55c5.58,-28.3 12.67,-50.51 -7.86,-74c-15,-17.18 -27.8,-19.75 -49,-21.73c-9.68,-0.9 -18.49,-2 -24.56,-9.86" class="cls-6"/>
   <path id="svg_79" d="m311.61,414.370001c0.11,-1.89 0.31,-3.68 0.31,-5c0,-6.67 0.58,-13.3 -1.2,-19.82c-1.13,-4.15 -2.73,-7.66 -3.17,-13.94c-0.61,-8.89 -10,-24.72 -3.44,-32c8.36,6.08 5.55,28.61 9.11,37.77c2.35,6 5.7,7.62 6.86,14.79c0.93,5.68 -0.08,11.89 -1,17.53c-0.17,1.09 -1.57,4.36 0.08,4.71c1.2,0.25 2.89,-2.71 3.21,-3.57c0.94,-2.53 0,-4.66 0,-7.14c-0.08,-4.93 2.06,-8.56 0.5,-13.65a71,71 0 0 1 -1.37,-7.15c-0.55,-2.75 -1.74,-3.9 -2.84,-6.32c-2.35,-5.13 1.18,-12 0.66,-17.57c-0.15,-1.59 -1.38,-5.34 1.27,-5.6c2.22,-0.22 2.38,2.65 2.35,4.15a76.68,76.68 0 0 1 -1.2,11.48c-0.29,1.57 -1.09,2.93 -0.8,4.62c0.36,2.09 2,2.72 3,4c2.7,3.26 2.14,8.19 2.93,12.05c0.54,2.67 -1.05,12.27 1.95,13.34s4.64,-3.73 4.66,-5.78c0,-2.73 -1.78,-5.1 -2.49,-7.75a31.79,31.79 0 0 1 -0.71,-9.86c0.18,-3.93 -1.05,-6.36 -1.87,-10.09c-0.42,-1.94 -1.05,-5.08 0.73,-6.41s2.85,-0.32 3.57,1.42c0.83,2 -0.53,4 -0.59,6s0.54,2.82 1.07,4.55c0.72,2.37 -1,12.92 2.58,12.87c4.46,-0.05 1,-12.72 0.85,-15c-0.17,-3.53 -1.29,-6.9 -1.44,-10.41c-0.14,-3.27 0.64,-6.37 0.88,-9.59c0.21,-2.92 -0.82,-9.8 3.42,-10.49c2.61,5 -2.06,9.2 -2,14.18c0,4.38 1.64,8.74 1.72,13.11c0.05,2.54 0.06,4.51 1.27,6.72s2.39,3.23 2.43,6.18c0.08,4.7 -0.19,8.8 0.28,13.37c0.15,1.39 0.11,6.16 1.43,7.05c2,1.34 3.52,-1.86 4,-3.31c1,-2.83 0.35,-5 -0.4,-7.58s-0.61,-4.69 -0.48,-7.55a56.58,56.58 0 0 0 -0.65,-10.32c-0.52,-3.88 -0.23,-7.44 -0.5,-11.27c-0.08,-1.19 -2.2,-10.55 2,-8.17c2,1.13 0.85,8.73 0.78,10.7c-0.15,4 1.56,7.58 2.27,11.69c0.59,3.4 0.32,6.82 0.93,10a18.73,18.73 0 0 1 -0.21,7.81c-0.48,2.63 -1.58,12.2 3.42,8.64c3.36,-2.4 3.49,-5.88 3.32,-9.34a107.09,107.09 0 0 1 0.32,-13.31c0.17,-2.39 -0.59,-4.6 -0.86,-6.94c-0.36,-2.93 0.49,-4 1.13,-6.7s0.17,-5 -0.3,-7.45c-0.26,-1.39 -1.17,-5.34 0.87,-6.2c2.53,-1.05 2.18,5.06 2.27,6.79c0.19,3.66 1.58,8.18 0.52,11.68c-0.51,1.65 -1.47,2 -1.37,4s1.3,3.23 1.79,5.12c0.62,2.44 -0.58,4.4 -0.67,6.79a21.8,21.8 0 0 0 0.87,5c0.92,4.86 -3.23,10.8 -6.13,15c-1.55,2.23 -2.35,4.76 -4.3,6.67c-4.34,4.26 -11,6.43 -16.93,6.86c-6.19,0.45 -16.8,1.38 -22.36,-2.3c-2.42,-1.58 -2.53,-5.47 -2.33,-9.06z" class="cls-6"/>
   <path id="svg_80" d="m-23,202.670001c12.94,-3.25 30.14,-3.27 43.69,-3.89c6.34,-0.29 14.9,-0.92 18.59,4.89c-1.86,1.21 -3.45,4 -5.67,5.11c5.51,1.08 18.39,4.55 15.31,12.35c6.35,1.55 19,0.89 16.44,11.64c-2.13,8.83 8,8.74 6.94,18.3c6.17,1.48 8.41,-5.57 15.61,-5c5.29,0.44 16.23,4.65 21.14,7.09c2.06,1 7.83,2.36 7.86,5.79c0,4.72 -7.35,3.21 -7.93,5.54c-1.88,7.57 10.83,7.12 12.87,0.46a12.21,12.21 0 0 1 4.51,0c1.38,3.4 1.5,7.54 1.29,11.34c1.34,-0.19 3.2,0.46 4.56,0.27c0.74,5.17 0.19,11.37 -3.18,15.65c-5.78,7.32 -11.81,2.34 -18.08,5.59c-7.89,4.09 -4.88,16.2 2,19.41c7.77,3.64 10,-4.52 17.52,-3c5.32,1.09 6.67,14.28 15.54,9.9c2.58,6.66 9.73,9.76 14.9,13.44c12.3,8.76 5.67,11.21 -6.21,18.26c3.35,0.72 3.93,3 5.77,4.18c-5.78,3.18 -13.89,1.23 -18.56,5.67c3.28,5.48 10.15,10.15 15.92,11.56s10.62,-7.1 11.6,5.9c10.25,2.53 16.17,7 27.8,8.88c8,1.33 10.12,1.46 14.78,6.78c2.66,3 -1.47,6.85 5,7.75c-2.8,1.3 -9.24,7.21 -4.92,10.57c2.1,1.65 10.35,-2.83 13.35,-2.64c0.62,2.3 1.49,5.18 1.11,7.62c5.62,-5.58 8.33,6.27 11.65,4.95c8.59,-3.42 0.36,-7.71 -2.06,-12s-5,-8.73 -1.84,-12.11c5.92,-6.38 7.83,0.9 10.49,3.9c1.75,2 1.89,11.12 8,7.36s-1.67,-9 -3,-12.48c-2,-5.26 -1.09,-9.82 -1.89,-15.31s-2.63,-8.94 -3.93,-14.23c-1.55,-6.3 0.47,-12.93 0.09,-19.06c-0.28,-4.55 -3.57,-8.35 -4,-12.73c-0.19,-1.92 0.19,-2.51 -1.16,-4.18c-1.14,-1.4 -2.76,-2.13 -3.22,-4c-0.6,-2.51 1.66,-4.09 1.32,-6.4c3.23,-0.25 2.71,6.81 3.15,8.47c1,3.92 4.85,4.69 4,9.05c-0.21,1.13 -0.87,2.64 -0.32,3.83s2.22,2.21 2.88,3.62a14.89,14.89 0 0 1 1.16,7.72c-0.32,3.37 -1.61,6.52 0.16,9.76c1,1.78 1.73,2.4 1.77,4.54c0,1.6 -1,4.24 0.29,5.43c1.41,1.34 2.55,-0.49 3.36,1.94c0.72,2.15 0,4.73 0.78,7c0.9,2.63 0.81,13.19 6.32,8c3.54,-3.31 -1.8,-7.71 -2,-11.36c-0.2,-3.45 0,-4.53 -2.53,-6.89s-2.36,-3.59 -2.81,-6.76c-0.77,-5.48 -0.69,-11 -1.21,-16.65c-0.3,-3.34 -2.65,-4.38 -3.68,-7.28c-0.39,-1.11 0,-2.17 -0.16,-3.28c-0.32,-1.83 -0.19,-1 -1.27,-2.41c-0.81,-1.06 -1.49,-1.37 -1.66,-2.86c-0.12,-1 0.67,-2 0.47,-3a22.72,22.72 0 0 0 -2.68,-5.72c-1.27,-1.92 -3.22,-2 -3.19,-4.73c0,-1.91 1.13,-4 2.86,-3.4c1.28,0.47 2.28,3.24 3.11,4.36a9,9 0 0 1 2,3.54c0.34,1.47 -0.45,3.34 0,4.74c0.73,2.19 3.09,2.5 3.86,4.83c0.91,2.76 0.12,4.51 1.75,6.86a12.34,12.34 0 0 1 2.14,6c0.43,3.5 0.57,3.92 2.91,6.38c3.68,3.88 -1.26,7.62 0.46,11.73c0.68,1.63 2,1.89 2.31,3.92c0.36,2.42 -1.19,5.25 0.54,7.06c0.51,0.53 1.74,0.37 2.34,1.12s0.34,1.91 0.76,2.7a48.62,48.62 0 0 0 3.27,5.27c0.84,1.17 2,1.89 2.5,3.2c0.82,2.05 -0.48,4.63 0.49,6.58c0.88,1.77 4,4.3 5.42,2.12c1,-1.46 0.32,-4 -0.36,-5.34c-0.36,-0.68 -1.14,-0.84 -1.43,-1.62c-0.52,-1.41 0.6,-3.46 0,-4.85c-1.07,-2.41 -2.9,-2.31 -3.43,-5.18s-0.2,-7.44 -1.5,-10c-1.59,-3.15 -4.88,-2.42 -3.22,-6.73c1.8,-4.69 4.41,-8.44 2.19,-13.62c-2.31,-5.41 -6.61,-10.71 -2.28,-16.16c2.95,1 3,3 2.74,5.9c-0.36,3.84 1.75,4 3.29,7.23c1,2.11 1.19,6.56 1,9c-0.14,2.2 -2.83,5.1 -1.39,7.29c1.31,2 3.7,1.34 4.29,4.3c0.3,1.52 -0.29,3.23 -0.25,4.78c0.06,2.23 0.72,2.95 1.76,4.8c1.22,2.2 2.84,4.53 3.64,6.79a45.33,45.33 0 0 0 2.61,6.51c-0.06,1.72 1,2.48 2.68,1.28c1.47,-1.07 0.38,-2.83 0.17,-4.23c-0.33,-2.28 0.23,-3.84 0.49,-6c0.41,-3.4 -1.7,-5.34 -2.63,-8.41c-0.73,-2.42 -0.3,-4.66 -0.23,-7.14c0.13,-3.9 -0.65,-6.27 0.93,-10c2.17,-5.16 1.17,-9.14 1.25,-14.54c0.06,-3.5 2.09,-6.1 3.12,-9.32s0,-4.94 -1.42,-7.86a11.07,11.07 0 0 1 -1.47,-6.17c0.13,-1 1.61,-5.58 2.94,-5.51c1.71,0.09 0.9,4.44 0.73,5.48s-1.29,3.25 -1,4.29c0.15,0.5 1.54,1.32 1.93,1.84c2.68,3.58 2.54,5.53 0.9,9.58c-1.26,3.13 -2.87,7.16 -1.95,10.58c1.11,4.09 2,5.26 0.55,9.52a9.54,9.54 0 0 0 -0.31,5a19.25,19.25 0 0 1 0.06,8.31c-0.3,1.69 -0.42,3.08 0.5,4.56s2.62,1.82 3.18,3.7c0.67,2.28 0.37,6.87 0.41,9.28c0,0.95 -0.66,3.61 0,4.28c2.48,2.43 3.16,-2.44 3.19,-3.71c0.07,-2.83 -0.81,-5.54 -1,-8.35c-0.2,-3.2 1.13,-6.45 0.75,-9.62c-0.32,-2.72 -2.08,-4.77 -2.2,-7.64c-0.16,-3.73 1.37,-7.6 2.67,-11.05c0.5,-1.32 0.76,-3.66 2.37,-3.75c2,3.42 -1.68,7.46 -1.35,11.14c0.38,4.27 1.71,8 1.71,12.21s3.28,8.48 2.63,12.78c-0.31,2 -1.79,4.11 -1.07,6.27c0.25,0.75 1.25,1.11 1.49,1.81c0.18,0.52 -0.28,2 0,2.33c1.52,1.84 3.11,-1.16 3.67,-2.56c1.3,-3.24 0.31,-5 -0.27,-8c-0.51,-2.61 1.09,-4.33 1.85,-6.76c1,-3.14 0.75,-6.93 0.6,-10.2c-0.14,-2.89 -0.82,-5.75 0.71,-8.37c2,-3.49 4.6,-5.64 5.42,-9.83c0.58,-3 0.77,-6.66 -1,-9.37c-1.45,-2.18 -2.73,-2.59 -2.91,-5.46c-0.11,-1.72 -0.25,-5.42 1.7,-6.36s2,0.49 1.95,2s-0.95,3.16 -0.27,4.81s2.46,2.81 3.42,4.24a16.91,16.91 0 0 1 1.44,14.77c-1.81,4.32 -4.34,7.17 -4.6,12.11c-0.12,2.33 0.49,3.88 1,6.07c0.68,2.73 0.05,4 -0.8,6.56c-0.38,1.12 -1.15,2.91 -1,4.08c0.2,1.51 0.94,1.39 1.39,2.54c1,2.57 0.06,3.9 -0.64,6.51c-0.77,2.84 1,6.08 -0.95,8.37c-1,1.15 -2.28,1.36 -3.11,2.91s-0.2,2 -0.52,3.32c-0.42,1.76 -3.45,5.07 -0.94,5.9s3.54,-3.1 5.9,-2c1.64,0.79 1.17,3.79 3,4.4c1.08,0.35 1.95,-0.55 2.93,-0.11s2.09,2.55 3.15,3.25c0.87,-0.21 0.89,-1.66 1.67,-2.18s1.6,0.13 2.22,-0.23c1.63,-0.95 1.82,-2.1 2.59,-3.7c1.19,-2.45 0.79,-2 2.92,-1.67c1.83,0.25 1.55,0.87 3.48,0.08c0.08,0.55 0.55,1 0.5,1.61c1.33,-1.13 4,-4 5.32,-0.82c-0.66,-2.7 3.46,-4.52 5.1,-2.64c-1,-3.51 3.39,-1.26 4.36,0.32c-0.25,-1.37 0.13,-3.58 1.62,-3.92c-0.68,-2.3 -1.47,-5.07 2,-4.9c-3.21,-4.15 4.14,-9 3.26,-3.62c0.54,-0.91 1,-1 1.7,-0.45c0.53,-0.53 1.15,-0.4 1.62,-0.65a25,25 0 0 1 0.54,3c2,-2.48 3.8,-2.94 6,-0.63c0.16,-0.14 0.36,-0.37 0.53,-0.51a2.51,2.51 0 0 1 1.16,2c-0.06,-2.87 3.24,-1.92 4.37,-0.35c1.71,-1.91 4.49,-5 5.39,-0.53a1.84,1.84 0 0 1 1.9,2.22c1.77,0 5.07,-2 6.24,-3.14c3.41,-3.37 6.22,-10.9 12.41,-9.94c0.27,2.16 -0.94,4.5 -1.83,6.41c2.13,-1.72 5.14,-5.65 8.16,-5.68a11.87,11.87 0 0 1 -1.41,4.32c1.67,-0.83 4,-3.22 6,-3.1c2.4,0.14 1.65,1.77 1.77,3.84c5.26,-1.56 10.5,-9.87 16.66,-8.78c7.72,1.36 -7.74,18.77 -9.42,20.92c1.67,-0.79 4.81,-1.65 4.9,1.21c1.73,-2.08 5.12,-3.44 7.07,-0.75c0.51,-0.49 1.8,-1.59 2.6,-1.46c2.38,0.37 1.12,3.77 2.2,5.16s1,0.15 2.9,0.46c1,0.16 1.51,0 1.76,1.17c2.45,-2 2.67,2.42 4.06,3.39c0.68,0.48 1.89,0 2.74,0.53a3.9,3.9 0 0 1 1.63,2.92c5.93,-3.28 -0.6,-8.62 -1.41,-12.26c-0.73,-3.25 1.76,-6.36 1.43,-9.75s-2.72,-5.91 -3.68,-9c-0.78,-2.52 -1.52,-8.38 1,-10.49c1.76,-1.49 2.53,-0.69 3.24,1c1.44,3.45 -0.07,6.53 2.3,9.88c2.91,4.11 3.74,6.31 1.93,10.92a13.33,13.33 0 0 0 -0.9,6c0.24,2.7 1.54,3.06 3,5.08c1.63,2.18 0.56,13.34 5.89,8.89c1.79,-1.48 1.76,-6.08 0.8,-8s-3.13,-2.78 -4.16,-4.61c-2.44,-4.32 0.91,-7.8 1.41,-12.13a9.44,9.44 0 0 0 -0.72,-5.63c-0.83,-1.59 -2.1,-2.51 -2.39,-4.38s0.38,-4.38 2.5,-4.93c2.64,-0.69 2.63,1.23 2.86,3.36c0.45,4.18 -0.39,8.57 0.17,12.66c0.61,4.52 2.84,7.22 5.41,10.7c2.11,2.86 1.69,6 1.69,9.4c0,2 -0.28,3.56 0.94,5.2c2,2.65 4.43,0.81 5.08,-1.94c0.77,-3.24 -2.77,-6.89 -3.29,-10.24c-0.32,-2.07 1.11,-4.09 0.7,-6s-3,-3 -3.38,-5.07a4.61,4.61 0 0 1 2.69,-4.9c2.48,-0.89 2.65,1 3.14,3.23c0.59,2.56 -0.17,4.84 0.18,7.34s2.19,3.13 2.69,5.42c0.45,2 -0.12,4 0.47,6c0.76,2.54 1,3.19 0.07,5.89c-0.69,2.06 -1.7,4 -0.08,6c1.49,1.78 3.36,1.82 4.64,0.06c2.25,-3.07 -1,-7.15 -0.51,-10.39c0.31,-2 1,-4.15 1.24,-6.26c0.19,-1.54 -0.14,-5 0.47,-6.33c1.75,-3.86 3.61,1.17 3.41,3.39c-0.37,4.22 -3,5.42 -0.49,9.5c2.15,3.47 0.11,7.23 2.61,10.81s3.75,4.6 2.66,8.84c-0.46,1.81 -0.61,3 0.23,4.43s3.23,2.14 1.05,4.55a30.66,30.66 0 0 1 3.92,-1.96c1.07,-0.3 1.79,0.62 2.84,-0.24c1.37,-1.13 0.51,-4 1.15,-5.57c1.59,0.7 2,-0.52 3.35,-1c1.54,-0.55 2.84,0.15 4.12,-0.23c6.32,-1.84 3.49,-2.22 5.42,-6.24c0.39,-0.81 -2.48,-4 -1.65,-5.94c1.19,-2.79 4.06,-2.61 5.48,-4.57c4.17,-5.73 7.81,-9.57 0.27,-16.53c2.71,-0.87 7,-4.16 9.7,-4.2c2.43,0 5.52,5 7.75,4.1c7.64,-3 0.37,-12.29 -1.23,-15.63c-9.82,-20.53 -4.08,-44.31 -8.46,-66c-0.75,-3.72 -3.87,-5.71 -2.81,-10.53c11.06,1.38 10.28,29.81 11.46,38c1,7.1 4.65,14.07 5.87,21.33c1.72,10.25 4.55,10.24 10.46,18.23c3.37,-18.95 -3.07,-28.85 -8.09,-43.68c-2.83,-8.39 -0.9,-14.47 -2.56,-22.83c-1.09,-5.45 -8.86,-11.48 -3.69,-16.11c7.69,4.72 3.7,12.56 5.8,19.53c1.93,6.38 7.12,12.39 9.52,18.43c2.05,5.18 2.28,12.29 4.08,18.47c2.11,7.28 7.31,12.16 7,21.19c14.59,-1.72 2.82,-22.57 1.8,-29c-0.88,-5.59 -0.49,-9.78 -1.94,-15.22c-1,-3.77 -4.7,-15.35 3.68,-8.78c2.39,1.87 4.4,11.62 4.86,14.3c1.3,7.57 1.2,11.13 4.1,17.5c7.83,17.21 8.73,1.87 9.84,-8.57c4.13,-1.49 8.75,-1.42 11.5,1.79c7.8,-4.37 -2.35,-15 6.65,-14.71a15,15 0 0 1 0.29,-3.61c1.44,1.24 5,2.67 6.65,4.85c9.07,-7.05 -0.42,-9.81 -4,-14.71c3.78,-8.44 13.06,-4.1 18.78,-12c5.41,-7.49 3.27,-10.22 12.56,-13.42c14,-4.82 22.92,2.34 33.86,10.15c5.12,3.55 21.11,17.55 28.59,16.06c8.81,-1.72 5.22,-14 15.06,1.07c12.06,18.46 7.08,37.73 1.1,57.25c-9.16,29.88 -12.46,61.17 -22.76,90.64c-5.86,16.78 -13.77,42.06 -33.95,45.39c-12,2 -24.63,0.95 -36.87,3.07c-20.88,3.63 -36.85,-0.84 -57.5,-2.87c-19.23,-1.9 -37.22,3.93 -56.12,5.65c-21.59,2 -43.55,0.26 -64.93,4.15c-40,7.27 -76.78,5.48 -117.23,5.48c-20.68,0 -40.05,-4.17 -60.56,-5.77c-23.89,-1.86 -47.08,2.35 -70.85,2.08c-19.94,-0.23 -39.21,-7.36 -59.25,-6c-18.58,1.24 -35.62,9 -53.61,12.78c-28.05,5.89 -45.15,-4.58 -58.54,-30.07c-14.11,-26.85 -13.17,-56.29 0.2,-82.75c9.94,-19.66 18.87,-35.68 14,-58.31c-4,-18.41 -12.89,-36.24 -18.68,-54.19c-4.92,-15.25 -5.53,-34.22 -12.54,-48.17c-7.18,-14.3 -27.19,-17.25 -30.87,-31.52c-2.35,-9.02 2.59,-24.22 -2.95,-32.12z" class="cls-7"/>
   <path id="svg_81" d="m171.66,186.710001a23,23 0 0 1 2.66,-0.83c-0.65,-1.35 -2.38,-1.53 -3,-2.79c-0.42,-0.83 0,-2 -0.1,-2.85c-0.31,-2.09 -0.48,-3.42 -2.78,-1.52c-0.27,-1.55 -1.93,-0.85 -3.21,-0.51c1.34,-0.73 1.66,-3.86 -0.25,-4c-1.18,-0.08 -1.41,1.55 -2.11,1.89a18.08,18.08 0 0 1 -2.35,0.46c-0.3,-2.1 -1.34,-0.28 -2.36,-0.47s-1.8,-1.33 -3.49,-1.07a2.57,2.57 0 0 0 -4.48,1.49c-0.68,-2.94 -2.72,-1 -4.19,0.07c-0.7,-2.59 -3,-0.6 -4.22,-1.87c-1.07,-1.1 0.66,-3.57 -2.39,-2.37c0.06,-0.82 -0.14,-1.75 -0.08,-2.56c-1.76,-0.15 -5.4,0.41 -6.56,-0.31a3.79,3.79 0 0 0 3.61,-0.29c-0.14,-1.88 -2.07,-2.42 -3.07,-3.62c3.47,-0.49 -1,-3.07 -2.5,-4l0.12,-0.05c1.17,-2.46 -3.3,-4.75 -5,-5.78c3.5,-0.64 2.36,-3.34 -0.23,-4.41c0.57,-1.41 -2.15,-4.17 -3.53,-4.3c2,0.18 1.76,-5.59 -0.5,-5.59c-0.3,-1.27 -0.06,-1 -1.31,-1.31c0.81,-3.71 -3.81,-2.9 -5.82,-3.18c0.35,-2.21 -1.46,-3.13 -3.42,-2.9c0.63,-3.3 -4,-1.64 -3.48,-6c1.3,0.67 8.06,3.51 7.62,-0.22c-2.34,-1 -5.27,-1.33 -7.41,-2.69c1.32,-0.45 9.28,-0.49 6.2,-2.69c-1.25,-0.89 -4.71,0.82 -5.63,-0.21c-2,-2.26 5.15,-1.58 4.87,-3.71a2.56,2.56 0 0 0 2.3,-1.55c1.09,0.41 4.43,2.2 5.23,1.83a5.67,5.67 0 0 1 -0.29,-0.7c1.48,0.65 5.47,1.93 4.28,-0.89c0.29,-0.54 1.22,-0.33 0.63,-1.29c1,0.94 6.17,-5 0.79,-5.62c0,-0.31 -0.17,-0.87 -0.14,-1.24c-0.44,0.06 -1.07,-0.16 -1.5,-0.08c-0.22,-1.31 -1.61,-1.76 -2.91,-1.58c-0.07,-0.25 0,-0.47 -0.08,-0.72c-1.7,1.51 -3.78,-1.26 -5.51,0.76a2.17,2.17 0 0 0 -3.11,0.24c-0.86,-1 -1.69,-1.1 -1.94,0.25c-1.13,-0.2 -2.27,-0.15 -2.37,1c-1,-0.16 -1.27,0 -1.82,0.57a1.79,1.79 0 0 0 -3.17,0.24c-1.39,-1.07 -3.7,-1.77 -4.74,0.22c-1.27,-1.2 -2.7,-2.4 -4.44,-2.57c5.64,0 12,0.14 16.64,-3.43c-0.6,-1.48 -2.84,-1.26 -4.25,-1.53c1.86,-0.36 3.95,-0.25 5.7,-0.85c-2.49,-1.74 -6,-1.61 -8.83,-2.58c3.87,-0.3 8.3,0.36 11.84,-0.59c-4.35,-3.51 -10.21,-3.78 -15.79,-3.69c1.37,-0.57 4,-1 5.2,-1.79c3.62,-2.47 -0.87,-2 -2.65,-2.18c1.5,-0.29 4.6,-1.4 4.19,-3.4c-1.71,-0.4 -2.49,1.09 -4.1,1c0.8,-0.54 3.14,-1.9 2.49,-3.18c-0.78,-1.56 -3.12,0.21 -4.3,1c1.33,-1.07 3.54,-4.21 0.92,-4.5c-1.36,-0.15 -3.45,4.25 -4.44,5.22c-1.2,-3.39 -4.4,0 -5.81,1.11c-0.51,-1.75 -2.12,-1.5 -3.48,-1c2.24,-1.48 0.4,-3.42 -1.79,-2.84c0.66,-1.46 -0.13,-2.66 -1.87,-2.21c0.29,-2.12 -0.35,-3.62 -2.68,-3.14c0.43,-2 -0.53,-3.39 -2.6,-2.94c0,-0.63 -0.39,-1.15 -0.34,-1.77c-1.11,-0.12 -1.59,-0.09 -1.8,0.93c-1,-2.53 -4.1,-0.83 -3,1.59a3.45,3.45 0 0 0 -2.35,-0.25a2.38,2.38 0 0 0 -2.53,-1.44c1.4,-1.81 0.29,-3.53 -2,-3.2c0.54,-1.65 1.52,-3.19 1.19,-5c-0.24,0.13 -0.51,0.27 -0.77,0.43c-1.22,-1.7 -0.84,-3.32 -3.42,-3.79c3,-0.78 4.45,-1.35 1.47,-3.81c-4.35,-3.62 -11.47,-4.39 -16.75,-6.56c2.9,1.09 11.84,3.19 13.07,0.48c1.08,-2.38 -5.27,-5.54 -6.7,-6.24a14.31,14.31 0 0 0 4,0.19c-0.77,-1.66 -2.91,-2.47 -4.68,-3.14c2.7,-0.41 5.22,2 7.88,0.74c-1.38,-3.25 -6.08,-3 -8,-5.5c-1,-1.36 -1.14,-4.85 -3.84,-2.46a3.69,3.69 0 0 0 -2.1,-2.7c1.2,-0.21 2.13,-1.78 2.35,-3c1.51,0 4,0 3.68,-2.09c0.88,1.17 5.06,2.73 6.55,2.54c-0.07,-0.45 0.16,-1.08 0.07,-1.52c1.16,0.26 2.11,1 3.35,1c0.16,-2 -1.55,-3.27 -3.06,-3.93c-0.51,-0.22 -1.45,0.29 -1.93,0s-0.46,-1.12 -0.78,-1.35a13.34,13.34 0 0 0 -2.39,-1.57c-1.4,-0.67 -3.43,-1 -4.55,-2c-1.94,-1.8 -1.55,-2.65 -4.9,-2.76c-0.08,-2.49 -1.57,-2.18 -3,-3.13c-1.2,-0.82 -2.35,-2.78 -4.24,-1.81c-0.54,-1.57 -1.52,-1.74 -3.16,-2.15c-0.24,-0.06 -0.5,0 -0.75,0c0.23,-2 -1.52,-2.76 -2.88,-1.66c-0.35,-3.57 -29.56,-10.85 -32.29,-11.04l-6.21,413.13c0,15.72 -0.24,31.35 1.28,47c1.29,13.38 3.25,26.78 5,40.12c1.8,13.86 8.17,25.57 22.61,28.62c13.74,2.9 28.74,0.94 42.23,-2.57c5.94,-1.54 11.52,-5.06 17.75,-5.23c5.37,-0.15 10.45,0.43 15.82,-0.2c6.53,-0.76 18.53,-0.49 22.12,-6.61c0.86,-1.46 0.1,-1.56 1.85,-2.63c1.2,-0.74 3,-0.74 3.72,-2.38c1.52,-3.67 -2.56,-6.55 -4.86,-2.58c-0.89,1.53 -0.21,2.5 -2,3.57c-0.89,0.52 -2.9,1.16 -3.72,0c-1.89,-2.79 4.86,-4.86 5.66,-6.76c0.66,-1.59 -0.57,-6.76 -2.2,-7.62c-0.75,-0.4 -4.09,0.14 -4.27,1c-0.22,1 2.63,2.51 3,3.45c1,2.57 -2.09,6.17 -4.75,5.5c0.93,-3.83 -4.14,-2.58 -5.87,-1.07c-2.18,1.9 -1.42,4.78 -3.8,6.72c-4,3.27 -2.82,-3.19 -6,-3.46a30.84,30.84 0 0 0 -2.79,1.61a9.53,9.53 0 0 1 -3.73,1.22c-0.56,-3.13 -3.85,-2.43 -5.33,-4.26c-0.58,-0.71 -0.33,-1.85 -0.85,-2.57c-0.84,-1.16 -0.64,-0.66 -1.75,-1.33c-1.55,-0.92 -2.16,0.8 -3,-1.56a1.54,1.54 0 0 1 1.34,-2.13c0,-2.63 3.45,-0.64 5.08,-1.5c1.29,-0.67 3.38,-3 3.15,-4.53c2.64,-0.14 7.62,1.35 9.76,-0.62c1.3,-1.21 1.53,-6 4.42,-5.19c0.32,2.82 3.06,1.65 4.34,3.56a3.64,3.64 0 0 1 2.89,-2c2,0 2,1.7 3.84,2.13c3.82,0.89 4.39,-4.39 7.44,-4.48c-0.62,3.2 -0.17,5.59 3.24,6c3.74,0.5 7.43,-2 7.08,-5.87c-0.1,-1.21 -0.61,-4.18 -2.38,-3.87c-1.17,0.2 -1.5,3.5 -2.69,4c-3.64,1.57 -1.15,-5 -4.7,-4.59c-2,0.21 -4.08,5.38 -6.08,1.64c-0.49,-0.92 -0.53,-3.43 0.19,-4.28c1,-1.12 2,-0.46 3.24,-1.05c3.21,-1.57 5.15,-13.87 -0.48,-12.37c-0.06,2.13 1.69,6 0,7.9c-1.28,1.47 -3.48,0.22 -5.1,1.5c-2.09,1.65 -0.08,3.83 -1.1,6.15c-1.14,2.61 -6.46,3.71 -6.81,0c1.2,0 3,-0.73 3.41,-2.05s-1.18,-2 -1.06,-3s1.47,-1.54 1.64,-2.65s-1,-1.83 -1.08,-2.9c-0.11,-2.77 4.43,-3.56 3.65,-6.29c-0.45,0 -1.09,-0.26 -1.46,-0.23a3.24,3.24 0 0 0 0.52,-3.33c-0.2,-0.53 -1.16,0.12 -1.48,-0.43s-0.25,-1.91 -0.63,-2.22c-2.63,-2.16 -2.88,2.59 -2.5,4.76c-1,-1 -3.62,-1.3 -3.92,0.35c-0.08,-0.32 -2.46,-2.08 -3.17,-3.24a15,15 0 0 1 -1.57,-4.65c-0.32,-1.22 -1.16,-7.63 -2.91,-4.89c-2.91,-1.28 -2.15,1.77 -2.71,3.51c-1.25,-1.57 -2.45,-0.42 -3.85,0c-0.39,-2.76 -2.32,-1.79 -3.75,-3.13c1.68,-0.15 5.8,-2.91 2.4,-3c1.55,-0.55 2.35,-3.18 -0.2,-2.56c1.31,-1.1 1.33,-3.53 -0.87,-3.21c0.67,-1.08 1,-2.54 -0.51,-2.66c0.58,-1.2 0.51,-2.64 -1,-2.65c0.34,-1.73 -1.68,-3.53 -2.48,-1.56c0,-0.31 -0.47,-1.33 -0.52,-1.81c-0.71,0.51 -1.27,0.26 -2,0.49c0.19,-1.55 -0.34,-2.16 -1.29,-3.14c-0.57,-0.59 -2.27,-1.07 -2.51,-1.39c-1.33,-1.72 0.49,-3.9 -0.23,-6.24c-1.17,0.15 -2.67,-2 -2.64,-3.22s1.92,-1.55 1.08,-2.9c4.86,-0.34 9.74,-0.26 14.58,-0.9c1.72,-0.23 6.51,-0.25 7.93,-1.67c1.68,-1.67 0.28,-2.19 -1.82,-2.7c0.44,-2.1 3.76,-1.59 5.45,-1.63a5.34,5.34 0 0 0 -3.09,-2.38a97.31,97.31 0 0 0 11.77,-0.94c4.7,-0.5 19.41,-5.29 7.45,-7.47c2.9,-0.29 5,-0.48 5.6,-3.1c0.35,-1.62 -0.46,-3.08 0.58,-4.56c1.56,-2.24 2.76,-1.63 3,-4.69c0.14,-1.42 -0.31,-3.75 1.56,-3.73a7.37,7.37 0 0 0 2.62,4.43c0.9,-1.76 -0.82,-4.24 1.06,-5.5c1.18,2.5 0.14,6.22 1.64,8.4c2.24,-1 0.18,-10.16 2.64,-8.92c0.69,-0.89 0.58,-2 0.83,-3.15c1,-0.4 2.48,0.65 3.14,0.23c1.38,-0.89 0,-3.65 1.31,-5c1.69,-1.78 4.64,-1.11 4.27,-4.66c3.83,-0.31 4.33,-2.1 6,-5.37c1.87,0.32 2.21,2.31 4.24,1.84s2.1,-2.8 2.68,-4.39c3.7,3.12 8.62,-2.48 8.37,-6.18c-0.06,-1.06 -1.53,-0.86 -1.52,-1.81s1.31,-1.35 1.51,-2a4.94,4.94 0 0 0 -1.28,-4.81c0.87,0 3.86,0.05 4.4,-0.82c0.85,-1.37 -1.07,-2.19 -1,-3.21s1.5,-0.79 1.38,-1.83s-1.9,-1 -1.87,-1.58c3.2,-1.8 2.52,-3.49 -0.05,-5c3.68,-3.65 -8.5,-1.26 -9.42,-1.36c-0.18,-1.39 -1.61,-1.78 -2.9,-1.59c-0.7,-2.13 -1.15,-3.8 -4,-3.92c3.24,0.19 7.12,-1.36 10,-2.63c-1.35,-1.9 -5.95,-2.14 -8.17,-2.91a12.65,12.65 0 0 1 2.88,-1.32c-1.06,-1.45 -4.8,-1.71 -6.58,-1.59c2.51,-3 -10.47,-3.21 -11.62,-3.43c0.86,0 5.51,-1.41 5.83,-2.17c0.61,-1.47 -1.66,-2.06 -2.92,-2.59c-1.79,-2.7 -2.74,-3.58 -6.3,-3.72c-0.09,-1.52 0.46,-4.31 -1,-5.33c-0.93,-0.64 -3.19,0.16 -3.77,1c-0.92,-0.78 -2.71,-0.54 -4,-0.44c0.1,-4.19 -2.63,-7.68 -7.42,-6.1c-0.51,-0.84 -0.35,-2.6 -1,-3.15c3.48,1.53 12.92,1.84 9.78,-3.92c1.43,-0.07 3.3,0.29 4.64,-0.24c2.09,-0.84 0.71,-0.18 0.69,-1.44s-0.86,-3.4 -2.68,-3.15c0.18,-0.25 0.34,-0.77 0.55,-1c-0.31,-0.21 -1.78,-0.39 -1.89,-0.5a9.19,9.19 0 0 1 -0.84,-1.34a5.78,5.78 0 0 0 -3.87,-1.09a2.31,2.31 0 0 0 -2.68,-2.08c1.1,-0.35 4.29,-2.15 4.23,-3.45c-0.14,-3.15 -4.44,-0.49 -5.82,-0.25c6.32,-3.36 1.94,-8.25 -1.58,-3.69c1,-1.57 2.63,-3.13 1.34,-5c-2,0.45 -3.11,2.68 -4,4.25c-0.88,-0.87 -0.16,-2.1 -1.06,-3l-0.75,0.26c0.07,-1.73 0,-3.91 -2.38,-3.43a3.83,3.83 0 0 0 -2.42,-3.4a2.37,2.37 0 0 0 2.28,-2.7l0,0c0.06,-1 1.52,-2.56 2.7,-2s0.69,1.43 0.79,2.43c0.14,1.45 -0.72,7.59 2.89,4.74c1.94,1.43 4.18,-1.06 3.68,-3.13c1.75,4.25 7.2,-2.37 3.76,-3.63a2.71,2.71 0 0 0 -1,-4.4c1.25,-1.05 2,-2.88 0.71,-4.25c2.21,1.84 5.91,2.54 7.43,-0.32c0.4,-0.75 -0.46,-1.64 0,-2.39c0.27,-0.5 1.62,-0.65 1.9,-1.24c0.71,-1.55 -0.73,-2.72 -0.84,-4.25c-0.09,-1.23 1.54,-2.46 -0.42,-2.88c0.87,-2.09 -1.49,-2.37 -2.46,-0.84c-1.39,-1.05 -2.69,-0.49 -4.5,-0.49c1.82,-0.57 3.25,-1.94 5.08,-2.52c1.63,-0.52 3.31,-0.11 4.87,-0.7c2,-0.75 6.07,-5.12 1.69,-5.54c0.82,-1.52 2.8,-2.17 3.38,-3.35c-0.44,0.08 -1.06,-0.11 -1.51,-0.07c-0.09,-1.53 -0.61,-3.82 1,-4.5c-0.73,-1.28 -2.5,-1.71 -3.41,-2.87c2.78,-3.63 3.44,-3 2.63,-7.55c-0.27,-1.55 0.87,-5.88 -0.47,-6.49a2.92,2.92 0 0 0 -1.08,-3.59c2.51,-1.21 1.24,-3.11 -0.47,-4.25a18.48,18.48 0 0 0 7,0.71a5.21,5.21 0 0 0 -0.48,-2.33c2,0.58 3.47,2.18 5.75,1.8a3.2,3.2 0 0 0 -1.73,-2.57c2.07,0.43 8.78,4.65 8.64,0.24c1.67,1.39 6.28,3 7.43,0.56c2.93,0 6.33,0.55 5.26,-3.19a16.67,16.67 0 0 0 2.89,-0.6c-0.38,-0.37 -0.62,-1.11 -1.19,-1.48zm-41.22,-25.34l-0.08,-0.06a0.12,0.12 0 0 1 0.08,0.06z" class="cls-8"/>
   <path id="svg_82" d="m779.24,456.370001c-2.85,-22.32 -6,-44.74 -9.64,-66.95c-1.41,-8.68 -7.59,-24.48 -3.61,-33.15l-2.24,-272.67c-5,-10.85 -9.12,-22.18 -15.1,-32.58a73.1,73.1 0 0 0 -10.51,-14.38c-1.87,-1.95 -5.08,-3.72 -6.52,-5.94c-1.28,-2 -1.28,-4.93 -2.35,-7.08c-1.35,-2.74 -4.79,-4.66 -5.71,-8c-1,-3.59 3,-13.2 -4.47,-13.57c-2.43,-0.12 -2.63,1.63 -2.24,3.58c0.19,0.9 2,0.89 2.25,1.89c0.42,1.63 -0.14,2.18 -0.25,3.7c-0.21,3.14 -1.17,5.21 -0.22,8.49s3.55,5.49 3,9.27c-4.82,0.87 -3.87,-5.62 -5.3,-8c-1.76,-2.94 -4.07,-2.79 -4.94,1.33c-1.29,6.11 4.11,9.53 6.72,13.88c2.43,4.05 0.71,3.05 -1.89,4.38c-1,0.49 -2.05,0.26 -3.37,1.1c-1.14,0.72 -1.54,2.5 -2.92,3.39c-4.46,2.86 -12,-0.6 -10.55,7.62c5.36,1.16 9,4.47 7.09,10c-1.25,3.64 -5.19,10.35 -8.4,6.69c-1.43,-1.62 0.15,-5.7 -3.71,-4.41c-2.09,0.7 -1.41,3.62 -4.46,4.43c-5.1,1.34 -6.17,-1.6 -6.33,5.74c-2.9,-0.45 -5.53,0.69 -4.93,4c-3.18,-0.65 -5.58,1.81 -3.06,4.54c-3,0.66 -5.57,-1.06 -5.37,-4c0.19,-2.73 2.7,-2.63 3.71,-4.43c1.58,-2.81 0.44,-11.76 -1.55,-13.94c-4.75,-5.18 -5.17,2.33 -4.74,5.37c0.31,2.22 1.77,4.3 -0.54,6c-3.32,2.4 -3.27,-1 -4.49,-2.46s0,-4.1 -3.6,-3.05c-2.16,0.64 -2.52,2.79 -2.22,5c0.44,3.26 3,5.33 4,8.5s2.45,7.07 5.81,8.51c3.65,1.57 7.67,1.33 10.31,5.37c1.55,2.37 0.13,7.75 -0.07,11.57c-7.37,0.52 8.89,9.53 9.37,11.36c1.08,4.06 -5.45,2.45 -8.57,3c-3.75,0.69 -18.46,5.1 -17.57,9.78c4.77,1.28 9.84,0.24 14.5,2.21c-4.08,0.91 -7.5,1.79 -10.69,4.56c1.63,2.28 5.28,1.58 6.28,4.51c-8.89,2.13 -17.88,4.29 -26.82,7.16c-1.38,0.44 -6.86,1 -7.19,2.66c-0.63,3.05 5.3,3.48 7.18,3.7c-2.4,0.42 -5.66,0.1 -7.07,2.8c-1.53,2.91 0.21,5 2.69,6.06a0.71,0.71 0 0 1 -1,0.44c-3.06,-0.82 -7.63,0.07 -9.87,-1.31c-1.85,-1.14 -1.61,-4.88 -3,-6.33c-3.07,-3.25 -8.48,-2 -10.43,-6.67c-2.07,-5 2.94,-7.86 2.69,-12.1c-0.38,-6.67 -5.94,-2 -7.07,2c-0.64,2.29 -0.42,4.77 -1.1,6.83c-0.73,2.23 -2.77,2.8 -1.81,6.37c0.66,2.43 8.9,9.67 1,9c-5.63,-0.48 -5,-9.09 -8.59,-11.69c-1.53,-1.1 -3.78,-1 -4.86,-2.22c-1.75,-2 0.43,-4.67 -0.41,-6.3c-2.2,-4.24 -7.1,-0.09 -7.3,3.72c-0.17,3 2.42,6.93 5.14,8.73c1.19,0.78 3.59,0.41 4.39,1.08c1.76,1.47 1,2.65 1.77,4.41c1.59,3.77 3.48,4.2 6.18,7.15c1.3,1.42 1.14,3.36 2.89,4.37c1.47,0.86 2.94,0 4.36,0.56c2.54,1 4.87,3.41 0.91,4.94c-1.46,0.56 -2.74,-1 -4,-0.92s-3.47,1.4 -4.49,1.28a5.39,5.39 0 0 1 -4.09,-8c-2.94,-2.61 -6.66,-3.59 -6.77,0.57c0,1.94 4.85,7.39 1,8.43s-3.34,-6 -5.35,-7.1c-4.93,-2.81 -8.08,4.35 -6.33,7.89c1.16,2.37 7.26,6.95 9.87,7.35c2.88,0.44 7.09,-2.07 10,-3.14c1.76,-0.66 6.45,-2.63 8.42,-1.46c1.78,1.07 2,5.64 2.16,8c-3.42,0.46 -5,2.49 -6.1,5.53c-0.41,1.09 0.17,2.39 -0.17,3.5s-2.77,1.87 -2.22,3.58c2.54,7.86 10.52,-5 11.76,-7.11c4.48,0.52 3.47,0.15 5.86,-3.09c0.93,-1.26 3.36,-6.06 6.07,-4.05c1.8,1.34 -0.21,5.42 -0.46,7.08c-0.62,4.12 -0.47,7.55 -3.07,11.19c-1.07,1.49 -2.84,2.81 -3.67,4.45c-2.32,4.64 -0.17,6.42 -5.24,4.95s-15.89,-5.35 -14.72,4.41c2.42,0.66 5.55,-0.08 7.55,0.48c2.65,0.76 3.72,3.54 6.63,3.7c1.37,2.62 -0.6,4.48 -0.88,7c-3.19,-0.65 -5.24,3.12 -5.87,5.42c-1.23,4.48 0.28,6.31 5,6.81c3.3,6.26 1,4.63 -4,5.74c-2.57,0.58 -12,4.93 -13.43,7.18c-3.54,5.72 7.26,2.95 9.75,3.1c4.68,0.28 7.67,2.61 12.59,1.89c-0.92,4.16 -9.41,1.71 -11.57,5.29c8.13,6.74 15.62,1.48 24.61,3.6c5.07,1.19 2.72,3.36 -1.81,4c-1.73,0.25 -4.1,-0.57 -5.71,0.1c-2,0.83 -2.55,2.55 -4.5,3.1c0.4,4.06 8.72,4.3 12,4.48a12.23,12.23 0 0 1 0.07,3.52c-0.61,2.36 -3.44,1.33 -5.74,1c-0.39,2.81 -4.19,2.65 -5.46,5.3c-0.56,1.17 1.12,1.65 0.85,2.68c-0.34,1.3 -1.44,2.57 -1.82,4c-4.31,-0.87 -3.35,4.12 -2.2,6.71c-3.46,-0.3 -3.25,3.48 -1.3,5.44c-3.31,-0.4 -2.12,2.59 -3.68,4c-2.45,2.28 -1.18,1.64 -4.15,1.23c-1.52,-0.2 -2.1,-2.71 -4.26,-1.53c-1.65,0.9 -0.6,3 -1.34,3.88c-0.45,0.55 -1.27,1.68 -1.67,2.15c0,0 -2.07,-0.15 -2.73,0.51s-0.12,2.73 -0.59,3.59a8.64,8.64 0 0 1 -5.19,4.4c-3.61,1.37 -12.45,0.88 -12.62,6.29c3.68,-0.24 5.62,2.49 8.86,2.38c-0.11,0.27 -19.43,7.86 -11.63,10.31c-5.2,3.92 8.65,5.73 11.26,5.73a62.42,62.42 0 0 1 12.44,0.91c2.08,0.39 9.55,0.3 10.84,1.75c3.52,3.95 -4.7,4.24 -6.66,5.93a5.46,5.46 0 0 0 2.48,6.2c-10.32,4 5.74,9.62 8.64,11.63c-0.19,1.26 -1.65,3.15 -1.43,4.38c0.38,2.14 3.11,3.15 3.8,4.91c1.59,4.06 -2,8.2 1.1,12.46c6.47,8.81 18,4.24 25.63,8.7c-3.14,0.52 -9.93,0.42 -11.21,4c-1.17,3.29 3.11,4.6 5.37,4.94c6.36,1 12.84,0.74 19,3c-2.41,2.08 -4.32,2.25 -2,5.42c2.13,2.91 9.21,3.58 12.49,4.64c0,2.64 3.08,3.21 5.39,3.13c0.73,3.91 -2.51,2.29 -4.42,3.49c-2.75,1.71 -3.47,3.42 -3.19,7.11c-4.59,-0.33 -9.36,-5.59 -9,2.7c-0.58,-0.36 -2.38,-0.43 -3,-0.78c-1.19,2.67 -0.38,5.11 1.25,7.11c-2.06,-0.59 -5.32,1.69 -6.27,2.66c-1.94,2 -3,3.8 -2.69,7.19c-0.31,-1.31 -2.19,-1.87 -3.61,-2.21c-0.33,1.34 -0.66,2.91 -0.94,4.4c-3.76,-1.95 -5,4.48 -5.36,7.08c-2.88,-3.42 -5.35,2.93 -5.82,5.43c-3.61,0.16 -5.24,-5.2 -2.77,-7.57a4.21,4.21 0 0 0 -4.36,2.33c0.78,-2.51 -3.11,-4.13 -5,-2.33c2.21,-3.26 1.76,-8.48 -2.92,-8.1c-0.38,-0.75 0.35,-0.55 0.39,-0.82a4.49,4.49 0 0 0 -4,-2.7c0.42,-2.35 0.9,-15.32 -4.41,-8.1c-1.09,-6 -4.14,0.14 -4.19,3.14c-9.87,-0.2 -7.58,14.07 -4.42,20.64c-2.88,1.5 -2.73,7.58 -2.24,10.85c0.7,4.75 6.87,6.67 7.21,10.18c0.3,3 -5,5.69 -4.65,9.31c0.14,1.59 1.63,3 1.94,4.59c0.43,2.15 -1,3.75 0.43,6.26c-1.76,0.89 -3.07,4.69 -3.2,6.66c-4.63,-0.26 -2.08,-5.86 -7.53,-3.09c-2.31,1.18 -0.33,4 -3.94,1.36c-2.21,-1.63 -1.67,-5.46 -3.68,-7.17c-5.24,-4.48 -4.86,2.58 -4,5.82c0.91,3.63 1,10.39 -4.35,5.51c-3.9,-3.58 -0.91,-11.36 -0.57,-15.78c0.22,-2.9 1.53,-5 -2.26,-5.88c-3.31,-0.77 -3.8,1.22 -4.46,3.74c-0.76,2.92 1,5.34 -1.33,7.61c-1.88,1.79 -4.11,0 -5.71,2.56c-2.53,4.11 4.44,10.43 -1.9,13.58c-7.07,3.51 -6.24,-8.82 -4.52,-12.61c-12.44,-1.94 -7.49,14.06 -2.74,19.09c4.43,4.71 7.83,2.91 13.08,1c3,-1.08 9.08,-1.56 11.09,1.89c1.79,3.07 -1.92,7.83 -5.12,8.43c-5,0.92 -8.33,-6.41 -11,0.1c-2.2,5.36 3.24,7.2 7.83,6.59c3.57,-0.47 6.58,-3.16 10.17,-3.62c4.53,4.52 -3.53,8.64 -4.92,12.13c-6.4,16 64.52,19.47 73.57,16.76c11,-3.3 19.8,-9.45 32,-8.14c6.08,0.65 11.92,2.35 18.06,2.75c5.58,0.36 11.58,-0.55 17.08,0.16c8.58,1.12 15.68,5.77 24.65,6.32c10,0.61 18.73,-0.87 26.2,-7.86c11.9,-11.12 16,-31.05 17.65,-46.55c2.4,-24.31 0.01,-48.56 -3.06,-72.56z" class="cls-8"/>
   <path id="svg_83" d="m144.23,288.670001a3,3 0 1 1 -3,-3a3,3 0 0 1 3,3z" class="cls-5"/>
   <path id="svg_84" d="m155.56,296.140001a2.47,2.47 0 1 1 -2.47,-2.47a2.47,2.47 0 0 1 2.47,2.47z" class="cls-5"/>
   <path id="svg_85" d="m149.68,304.180001a1.55,1.55 0 1 1 -1.55,-1.55a1.55,1.55 0 0 1 1.55,1.55z" class="cls-5"/>
   <circle id="svg_86" r="3.05" cy="366.45" cx="213.74" class="cls-5"/>
   <path id="svg_87" d="m198.93,382.430001a2.12,2.12 0 1 1 -2.12,-2.12a2.11,2.11 0 0 1 2.12,2.12z" class="cls-5"/>
   <path id="svg_88" d="m213.73,390.300001a1.53,1.53 0 1 1 -1.52,-1.53a1.53,1.53 0 0 1 1.52,1.53z" class="cls-5"/>
   <circle id="svg_89" r="1.64" cy="399.82" cx="217.5" class="cls-5"/>
   <path id="svg_90" d="m569.53,351.180001a2.35,2.35 0 1 1 -2.35,-2.35a2.35,2.35 0 0 1 2.35,2.35z" class="cls-5"/>
   <circle id="svg_91" r="2.11" cy="368.57" cx="571.37" class="cls-5"/>
   <path id="svg_92" d="m582.58,360.960001a2.44,2.44 0 1 1 -2.44,-2.43a2.44,2.44 0 0 1 2.44,2.43z" class="cls-5"/>
   <path id="svg_93" d="m495.47,424.550001a3.53,3.53 0 1 1 -3.53,-3.52a3.53,3.53 0 0 1 3.53,3.52z" class="cls-5"/>
   <path id="svg_94" d="m507.45,435.890001a2.47,2.47 0 1 1 -2.46,-2.47a2.46,2.46 0 0 1 2.46,2.47z" class="cls-5"/>
   <path id="svg_95" d="m493.35,435.890001a2.47,2.47 0 1 1 -2.46,-2.47a2.46,2.46 0 0 1 2.46,2.47z" class="cls-5"/>
   <path id="svg_96" d="m512.39,373.150001a2.47,2.47 0 1 1 -2.47,-2.47a2.47,2.47 0 0 1 2.47,2.47z" class="cls-5"/>
  </g>
 </g>
</svg>