<svg width="747.25" height="499.37" xmlns="http://www.w3.org/2000/svg">
 <defs>
  <style>.cls-1{fill:none;}.cls-2{clip-path:url(#clip-path);}.cls-3{fill:#58f9f1;}.cls-4{fill:#51f2eb;}.cls-5{fill:#67fff2;}.cls-6{fill:#19dde9;}.cls-7{fill:#19acd1;}.cls-8{fill:#0b87a9;}</style>
  <clipPath id="clip-path">
   <rect id="svg_1" height="500" width="750" class="cls-1"/>
  </clipPath>
 </defs>
 <title>298990-P7H2SR-977</title>
 <g>
  <title>background</title>
  <rect fill="none" id="canvas_background" height="501.37" width="749.25" y="-1" x="-1"/>
 </g>
 <g>
  <title>Layer 1</title>
  <g id="svg_2" class="cls-2">
   <path stroke-width="0" stroke-dasharray="5,5" id="svg_9" d="m299.52,281.040001a2.34,2.34 0 1 1 -2.33,-2.34a2.33,2.33 0 0 1 2.33,2.34z" class="cls-6"/>
   <path stroke-width="0" stroke-dasharray="5,5" id="svg_10" d="m309.99,259.370001a1.33,1.33 0 1 1 -1.33,-1.33a1.33,1.33 0 0 1 1.33,1.33z" class="cls-6"/>
   <circle stroke-width="0" stroke-dasharray="5,5" id="svg_11" r="1.5" cy="264.54" cx="289.69" class="cls-6"/>
   <path stroke-width="0" stroke-dasharray="5,5" id="svg_12" d="m279.85,186.260001a2.56,2.56 0 1 1 -2.56,-2.56a2.56,2.56 0 0 1 2.56,2.56z" class="cls-6"/>
   <path stroke-width="0" stroke-dasharray="5,5" id="svg_13" d="m287.52,182.370001a1.34,1.34 0 1 1 -1.34,-1.33a1.33,1.33 0 0 1 1.34,1.33z" class="cls-6"/>
   <path stroke-width="0" stroke-dasharray="5,5" id="svg_14" d="m279.85,170.370001a1.28,1.28 0 1 1 -1.28,-1.28a1.28,1.28 0 0 1 1.28,1.28z" class="cls-6"/>
   <path stroke-width="0" stroke-dasharray="5,5" id="svg_15" d="m342.85,111.530001a2.29,2.29 0 1 1 -2.28,-2.29a2.28,2.28 0 0 1 2.28,2.29z" class="cls-6"/>
   <circle stroke-width="0" stroke-dasharray="5,5" id="svg_16" r="1.14" cy="107.18" cx="325.26" class="cls-6"/>
   <path stroke-width="0" stroke-dasharray="5,5" id="svg_17" d="m231.85,159.160001a3.17,3.17 0 1 1 -3.17,-3.16a3.17,3.17 0 0 1 3.17,3.16z" class="cls-6"/>
   <circle stroke-width="0" stroke-dasharray="5,5" id="svg_18" r="1" cy="150.04" cx="220.85" class="cls-6"/>
   <path stroke-width="0" stroke-dasharray="5,5" id="svg_19" d="m236.85,128.730001a1.36,1.36 0 1 1 -1.36,-1.36a1.36,1.36 0 0 1 1.36,1.36z" class="cls-6"/>
   <circle stroke-width="0" stroke-dasharray="5,5" id="svg_20" r="1.67" cy="120.16" cx="145.1" class="cls-6"/>
   <path stroke-width="0" stroke-dasharray="5,5" id="svg_21" d="m153.97,126.250001a1.12,1.12 0 1 1 -1.12,-1.12a1.12,1.12 0 0 1 1.12,1.12z" class="cls-6"/>
   <circle stroke-width="0" stroke-dasharray="5,5" id="svg_22" r="1.44" cy="89.08" cx="178.54" class="cls-6"/>
   <path stroke-width="0" stroke-dasharray="5,5" id="svg_23" d="m115.69,38.940001a2.74,2.74 0 1 1 -2.73,-2.74a2.73,2.73 0 0 1 2.73,2.74z" class="cls-6"/>
   <path stroke-width="0" stroke-dasharray="5,5" id="svg_24" d="m124.11,41.810001a2,2 0 1 1 -2,-2a2,2 0 0 1 2,2z" class="cls-6"/>
   <path stroke-width="0" stroke-dasharray="5,5" id="svg_25" d="m119.05,50.140001a1,1 0 1 1 -1,-1a1,1 0 0 1 1,1z" class="cls-6"/>
   <path stroke-width="0" stroke-dasharray="5,5" id="svg_26" d="m255.68,243.500001a2.87,2.87 0 1 1 -2.87,-2.86a2.87,2.87 0 0 1 2.87,2.86z" class="cls-6"/>
   <circle stroke-width="0" stroke-dasharray="5,5" id="svg_27" r="0.67" cy="251.37" cx="259.85" class="cls-6"/>
   <path stroke-width="0" stroke-dasharray="5,5" id="svg_28" d="m261.52,304.200001a2.17,2.17 0 1 1 -2.17,-2.16a2.17,2.17 0 0 1 2.17,2.16z" class="cls-6"/>
   <path stroke-width="0" stroke-dasharray="5,5" id="svg_29" d="m259.18,316.370001a1.75,1.75 0 1 1 -1.75,-1.75a1.75,1.75 0 0 1 1.75,1.75z" class="cls-6"/>
   <circle stroke-width="0" stroke-dasharray="5,5" id="svg_30" r="3.5" cy="461.37" cx="165.69" class="cls-6"/>
   <path stroke-width="0" stroke-dasharray="5,5" id="svg_31" d="m178.25,474.590001a1.39,1.39 0 1 1 -1.39,-1.39a1.38,1.38 0 0 1 1.39,1.39z" class="cls-6"/>
   <circle stroke-width="0" stroke-dasharray="5,5" id="svg_32" r="1.62" cy="477.59" cx="189.14" class="cls-6"/>
   <circle stroke-width="0" stroke-dasharray="5,5" id="svg_33" r="2.5" cy="496.71" cx="183.85" class="cls-6"/>
   <circle stroke-width="0" stroke-dasharray="5,5" id="svg_34" r="3.5" cy="504.09" cx="205.69" class="cls-6"/>
   <path stroke-width="0" stroke-dasharray="5,5" id="svg_35" d="m341.36,389.860001a2.16,2.16 0 1 1 -2.15,-2.16a2.16,2.16 0 0 1 2.15,2.16z" class="cls-6"/>
   <path stroke-width="0" stroke-dasharray="5,5" id="svg_36" d="m328.74,379.870001a1.17,1.17 0 1 1 -1.17,-1.17a1.18,1.18 0 0 1 1.17,1.17z" class="cls-6"/>
   <path stroke-width="0" stroke-dasharray="5,5" id="svg_37" d="m334.47,379.510001a1.9,1.9 0 1 1 -1.89,-1.89a1.9,1.9 0 0 1 1.89,1.89z" class="cls-6"/>
   <path stroke-width="0" stroke-dasharray="5,5" id="svg_38" d="m409.01,299.760001a2.58,2.58 0 1 1 -2.58,-2.58a2.59,2.59 0 0 1 2.58,2.58z" class="cls-6"/>
   <path stroke-width="0" stroke-dasharray="5,5" id="svg_39" d="m417,295.440001a1.74,1.74 0 1 1 -1.74,-1.74a1.74,1.74 0 0 1 1.74,1.74z" class="cls-6"/>
   <path stroke-width="0" stroke-dasharray="5,5" id="svg_40" d="m408.76,290.540001a1.17,1.17 0 1 1 -1.16,-1.17a1.16,1.16 0 0 1 1.16,1.17z" class="cls-6"/>
   <circle stroke-width="0" stroke-dasharray="5,5" id="svg_41" r="3" cy="255.04" cx="533.19" class="cls-6"/>
   <path stroke-width="0" stroke-dasharray="5,5" id="svg_42" d="m524.85,252.200001a0.84,0.84 0 0 1 -0.83,0.84a0.85,0.85 0 0 1 -0.84,-0.84a0.84,0.84 0 0 1 0.84,-0.83a0.83,0.83 0 0 1 0.83,0.83z" class="cls-6"/>
   <circle stroke-width="0" stroke-dasharray="5,5" id="svg_43" r="1.5" cy="245" cx="531.69" class="cls-6"/>
   <path stroke-width="0" stroke-dasharray="5,5" id="svg_44" d="m537.36,238.550001a2.09,2.09 0 1 1 -2.09,-2.09a2.1,2.1 0 0 1 2.09,2.09z" class="cls-6"/>
   <circle stroke-width="0" stroke-dasharray="5,5" id="svg_45" r="3" cy="260.7" cx="582.19" class="cls-6"/>
   <circle stroke-width="0" stroke-dasharray="5,5" id="svg_46" r="1.64" cy="334.58" cx="551.52" class="cls-6"/>
   <circle stroke-width="0" stroke-dasharray="5,5" id="svg_47" r="2" cy="340.5" cx="519.45" class="cls-6"/>
   <path stroke-width="0" stroke-dasharray="5,5" id="svg_48" d="m521.43,330.200001a2,2 0 1 1 -4,-0.57a2,2 0 0 1 4,0.57z" class="cls-6"/>
   <circle stroke-width="0" stroke-dasharray="5,5" id="svg_49" r="2.07" cy="336.66" cx="527.19" class="cls-6"/>
   <circle stroke-width="0" stroke-dasharray="5,5" id="svg_50" r="1.77" cy="360.36" cx="491.56" class="cls-6"/>
   <circle stroke-width="0" stroke-dasharray="5,5" id="svg_51" r="1.54" cy="344.04" cx="494.87" class="cls-6"/>
   <path stroke-width="0" stroke-dasharray="5,5" id="svg_52" d="m501.45,350.730001l0,0z" class="cls-6"/>
   <path stroke-width="0" stroke-dasharray="5,5" id="svg_53" d="m484.45,393.080001a1.67,1.67 0 1 1 -1.67,-1.66a1.67,1.67 0 0 1 1.67,1.66z" class="cls-6"/>
   <circle stroke-width="0" stroke-dasharray="5,5" id="svg_54" r="1.5" cy="179.54" cx="595.35" class="cls-6"/>
   <path stroke-width="0" stroke-dasharray="5,5" id="svg_55" d="m582.18,177.200001a1.17,1.17 0 1 1 -1.16,-1.16a1.16,1.16 0 0 1 1.16,1.16z" class="cls-6"/>
   <path stroke-width="0" stroke-dasharray="5,5" id="svg_56" d="m591.63,186.260001a2.56,2.56 0 1 1 -2.55,-2.56a2.55,2.55 0 0 1 2.55,2.56z" class="cls-6"/>
   <path stroke-width="0" stroke-dasharray="5,5" id="svg_57" d="m609.46,122.840001a2.81,2.81 0 1 1 -2.81,-2.8a2.8,2.8 0 0 1 2.81,2.8z" class="cls-6"/>
   <circle stroke-width="0" stroke-dasharray="5,5" id="svg_58" r="1" cy="128.37" cx="597.85" class="cls-6"/>
   <path stroke-width="0" stroke-dasharray="5,5" id="svg_59" d="m707.77,87.370001a2.16,2.16 0 1 1 -2.16,-2.16a2.17,2.17 0 0 1 2.16,2.16z" class="cls-6"/>
   <circle stroke-width="0" stroke-dasharray="5,5" id="svg_60" r="3" cy="48.27" cx="706.45" class="cls-6"/>
   <path stroke-width="0" stroke-dasharray="5,5" id="svg_61" d="m693.85,48.040001a1.78,1.78 0 1 1 -1.78,-1.78a1.78,1.78 0 0 1 1.78,1.78z" class="cls-6"/>
   <path stroke-width="0" stroke-dasharray="5,5" id="svg_62" d="m703.67,59.480001a1.88,1.88 0 1 1 -1.88,-1.88a1.88,1.88 0 0 1 1.88,1.88z" class="cls-6"/>
   <circle stroke-width="0" stroke-dasharray="5,5" id="svg_63" r="3.36" cy="129.01" cx="563.55" class="cls-6"/>
   <circle stroke-width="0" stroke-dasharray="5,5" id="svg_64" r="1.5" cy="137.87" cx="570.35" class="cls-6"/>
   <path stroke-width="0" stroke-dasharray="5,5" id="svg_65" d="m563.85,146.890001a1.82,1.82 0 1 1 -1.82,-1.82a1.82,1.82 0 0 1 1.82,1.82z" class="cls-6"/>
   <path stroke-width="0" stroke-dasharray="5,5" id="svg_66" d="m498.36,83.620001a1.92,1.92 0 1 1 -1.92,-1.92a1.92,1.92 0 0 1 1.92,1.92z" class="cls-6"/>
   <path stroke-width="0" stroke-dasharray="5,5" id="svg_67" d="m519.26,85.370001a1.71,1.71 0 1 1 -1.7,-1.71a1.71,1.71 0 0 1 1.7,1.71z" class="cls-6"/>
   <path stroke-width="0" stroke-dasharray="5,5" id="svg_68" d="m508.47,88.680001a1.65,1.65 0 1 1 -1.62,-1.64a1.65,1.65 0 0 1 1.62,1.64z" class="cls-6"/>
   <circle stroke-width="0" stroke-dasharray="5,5" id="svg_69" r="1.5" cy="55.82" cx="435.02" class="cls-6"/>
   <path stroke-width="0" stroke-dasharray="5,5" id="svg_70" d="m440.57,66.230001a1.2,1.2 0 1 1 -1.19,-1.19a1.19,1.19 0 0 1 1.19,1.19z" class="cls-6"/>
   <path stroke-width="0" stroke-dasharray="5,5" id="svg_71" d="m431.53,69.430001a2,2 0 1 1 -2,-2a2,2 0 0 1 2,2z" class="cls-6"/>
   <path stroke-width="0" stroke-dasharray="5,5" id="svg_72" d="m424.18,131.420001a1.33,1.33 0 1 1 -1.33,-1.33a1.33,1.33 0 0 1 1.33,1.33z" class="cls-6"/>
   <circle stroke-width="0" stroke-dasharray="5,5" id="svg_73" r="1.5" cy="137.87" cx="433.03" class="cls-6"/>
   <path stroke-width="0" stroke-dasharray="5,5" id="svg_74" d="m421.52,141.630001a2.26,2.26 0 1 1 -2.26,-2.26a2.26,2.26 0 0 1 2.26,2.26z" class="cls-6"/>
   <circle stroke-width="0" stroke-dasharray="5,5" id="svg_75" r="1.45" cy="148.33" cx="427.63" class="cls-6"/>
   <path stroke-width="0" id="svg_77" d="m295.01,402.990001c-2.33,-13 1.63,-25.9 -0.54,-38.89c-2.73,-16.36 -9.7,-31.3 -16.18,-46.42c-2.24,-1.89 -4.54,-7.73 -8.45,-3.83c0.33,-2.14 -0.43,-4.64 -1,-6.64c-2.61,-0.16 -9.79,3.73 -11.62,2.3c-3.76,-2.92 1.85,-8.07 4.28,-9.2c-5.63,-0.78 -2,-4.1 -4.35,-6.75c-4.05,-4.62 -5.94,-4.74 -12.86,-5.89c-10.12,-1.68 -15.28,-5.53 -24.19,-7.73c-0.85,-11.31 -5.09,-3.91 -10.1,-5.14a24.35,24.35 0 0 1 -13.85,-10.05c4.06,-3.87 11.12,-2.18 16.15,-4.94c-1.6,-1 -2.11,-3 -5,-3.64c10.34,-6.14 16.11,-8.27 5.41,-15.89c-4.51,-3.2 -10.73,-5.9 -13,-11.7c-7.72,3.81 -8.89,-7.66 -13.52,-8.61c-6.51,-1.33 -8.48,5.77 -15.24,2.61c-6,-2.79 -8.6,-13.33 -1.73,-16.89c5.45,-2.83 10.7,1.5 15.73,-4.87c2.93,-3.73 3.41,-9.12 2.77,-13.61c-1.19,0.16 -2.8,-0.41 -4,-0.25c0.18,-3.3 0.08,-6.9 -1.12,-9.86a10.6,10.6 0 0 0 -3.93,0c-1.77,5.79 -12.84,6.19 -11.2,-0.4c0.51,-2 6.94,-0.71 6.9,-4.82c0,-3 -5.05,-4.15 -6.84,-5c-4.28,-2.12 -13.79,-5.79 -18.4,-6.17c-6.26,-0.52 -8.21,5.62 -13.58,4.32c0.94,-8.31 -7.9,-8.24 -6,-15.92c2.25,-9.36 -8.78,-8.78 -14.3,-10.13c2.67,-6.78 -8.53,-9.81 -13.33,-10.75c1.93,-0.94 3.31,-3.39 4.93,-4.45c-3.21,-5.05 -10.66,-4.5 -16.18,-4.25c-11.79,0.54 -26.76,0.55 -38,3.38c4.83,6.88 0.52,20.11 2.54,27.93c3.2,12.42 11.86,22.06 18.11,34.5c6.1,12.14 15.38,21.58 19.66,34.85c5,15.62 -6.68,32.11 -3.2,48.13c4.28,19.7 8.16,31 -0.48,48.14c-11.64,23 -4.66,50.28 7.61,73.65c11.66,22.14 26.54,31.26 50.94,26.13c15.66,-3.29 30.49,-10.05 46.65,-11.13c17.44,-1.16 34.22,5 51.57,5.25c16.75,0.19 33.17,-2.17 49.85,-2.22c-0.29,-1.68 -0.6,-3.39 -0.91,-5.15z" class="cls-6"/>
   <path stroke-width="0" id="svg_78" d="m641.71,154.960001c-9.06,0 -20.6,-2 -29.32,0.28c-4.41,1.14 -8.36,6.28 -15.58,7c1,1.72 0.64,4.48 2.42,6.53c-8.86,3.78 -15.19,13.4 -23.55,14.16c-0.51,-1.91 -1.36,-3.24 -1.89,-5.14c-7.53,-1 -10.58,5.31 -9.84,12.23c-13.69,2.79 -6.37,-25 -23.75,-23.47c-13,1.16 9.9,16.64 5.42,27.7c-8.09,1.63 -11.21,-5.25 -9.87,-12.36c-7.44,3.47 -5.85,8.26 -2.63,14.05c0.25,0.44 11.84,13.14 11.23,12.69c8.92,6.69 21.79,5.67 18.19,22.27c-4.94,0.18 -10.13,0.3 -15.08,0.36c0.87,3.7 -0.44,7.86 1,11.21c-6.21,2.28 -14.54,0.91 -20.73,2.57c-1,-4 -4,-5.4 -5.91,-8.42c-5,1.85 -8.83,4.87 -11.11,9.62c5.32,5.43 12.61,7.37 19.21,11.35c-6.62,1.33 -46.06,5.89 -46.08,15.89c0,7.88 24.18,7.07 30.53,6.95c-7.79,1.93 -15.66,0.15 -22.08,6.09c6.79,3 16.89,4.2 24.93,5.19c-4.79,2.12 -17.27,3.05 -16.61,9.9c0.65,6.67 12.39,4.62 16.89,6.74c-22.21,1.24 -30.69,18.06 -51.84,6.13c-0.45,1.37 -0.05,2.55 -0.44,3.94c-11.51,-17.57 -20.55,0.84 -12.93,7.12c-5.78,2.9 -8.12,9 -8.23,15.3c-10,1.45 -21.86,15.05 -22,25.31c-0.24,15.37 15.73,15.9 26.44,22.61c13.75,8.6 17.51,26.24 29.49,35.73c11.56,9.16 31.53,5.56 45.2,5.45c55.7,-0.46 98.68,-32.35 140.56,-65.78c32.88,-26.25 44.27,-55.81 52.3,-96.55c5.58,-28.3 12.67,-50.51 -7.86,-74c-15,-17.18 -27.8,-19.75 -49,-21.73c-9.68,-0.9 -18.49,-2 -24.56,-9.86" class="cls-6"/>
   <path stroke-width="0" id="svg_79" d="m359.61,393.370001c0.11,-1.89 0.31,-3.68 0.31,-5c0,-6.67 0.58,-13.3 -1.2,-19.82c-1.13,-4.15 -2.73,-7.66 -3.17,-13.94c-0.61,-8.89 -10,-24.72 -3.44,-32c8.36,6.08 5.55,28.61 9.11,37.77c2.35,6 5.7,7.62 6.86,14.79c0.93,5.68 -0.08,11.89 -1,17.53c-0.17,1.09 -1.57,4.36 0.08,4.71c1.2,0.25 2.89,-2.71 3.21,-3.57c0.94,-2.53 0,-4.66 0,-7.14c-0.08,-4.93 2.06,-8.56 0.5,-13.65a71,71 0 0 1 -1.37,-7.15c-0.55,-2.75 -1.74,-3.9 -2.84,-6.32c-2.35,-5.13 1.18,-12 0.66,-17.57c-0.15,-1.59 -1.38,-5.34 1.27,-5.6c2.22,-0.22 2.38,2.65 2.35,4.15a76.68,76.68 0 0 1 -1.2,11.48c-0.29,1.57 -1.09,2.93 -0.8,4.62c0.36,2.09 2,2.72 3,4c2.7,3.26 2.14,8.19 2.93,12.05c0.54,2.67 -1.05,12.27 1.95,13.34s4.64,-3.73 4.66,-5.78c0,-2.73 -1.78,-5.1 -2.49,-7.75a31.79,31.79 0 0 1 -0.71,-9.86c0.18,-3.93 -1.05,-6.36 -1.87,-10.09c-0.42,-1.94 -1.05,-5.08 0.73,-6.41s2.85,-0.32 3.57,1.42c0.83,2 -0.53,4 -0.59,6s0.54,2.82 1.07,4.55c0.72,2.37 -1,12.92 2.58,12.87c4.46,-0.05 1,-12.72 0.85,-15c-0.17,-3.53 -1.29,-6.9 -1.44,-10.41c-0.14,-3.27 0.64,-6.37 0.88,-9.59c0.21,-2.92 -0.82,-9.8 3.42,-10.49c2.61,5 -2.06,9.2 -2,14.18c0,4.38 1.64,8.74 1.72,13.11c0.05,2.54 0.06,4.51 1.27,6.72s2.39,3.23 2.43,6.18c0.08,4.7 -0.19,8.8 0.28,13.37c0.15,1.39 0.11,6.16 1.43,7.05c2,1.34 3.52,-1.86 4,-3.31c1,-2.83 0.35,-5 -0.4,-7.58s-0.61,-4.69 -0.48,-7.55a56.58,56.58 0 0 0 -0.65,-10.32c-0.52,-3.88 -0.23,-7.44 -0.5,-11.27c-0.08,-1.19 -2.2,-10.55 2,-8.17c2,1.13 0.85,8.73 0.78,10.7c-0.15,4 1.56,7.58 2.27,11.69c0.59,3.4 0.32,6.82 0.93,10a18.73,18.73 0 0 1 -0.21,7.81c-0.48,2.63 -1.58,12.2 3.42,8.64c3.36,-2.4 3.49,-5.88 3.32,-9.34a107.09,107.09 0 0 1 0.32,-13.31c0.17,-2.39 -0.59,-4.6 -0.86,-6.94c-0.36,-2.93 0.49,-4 1.13,-6.7s0.17,-5 -0.3,-7.45c-0.26,-1.39 -1.17,-5.34 0.87,-6.2c2.53,-1.05 2.18,5.06 2.27,6.79c0.19,3.66 1.58,8.18 0.52,11.68c-0.51,1.65 -1.47,2 -1.37,4s1.3,3.23 1.79,5.12c0.62,2.44 -0.58,4.4 -0.67,6.79a21.8,21.8 0 0 0 0.87,5c0.92,4.86 -3.23,10.8 -6.13,15c-1.55,2.23 -2.35,4.76 -4.3,6.67c-4.34,4.26 -11,6.43 -16.93,6.86c-6.19,0.45 -16.8,1.38 -22.36,-2.3c-2.42,-1.58 -2.53,-5.47 -2.33,-9.06z" class="cls-6"/>
   <path stroke-width="0" id="svg_80" d="m-2,185.670001c12.94,-3.25 30.14,-3.27 43.69,-3.89c6.34,-0.29 14.9,-0.92 18.59,4.89c-1.86,1.21 -3.45,4 -5.67,5.11c5.51,1.08 18.39,4.55 15.31,12.35c6.35,1.55 19,0.89 16.44,11.64c-2.13,8.83 8,8.74 6.94,18.3c6.17,1.48 8.41,-5.57 15.61,-5c5.29,0.44 16.23,4.65 21.14,7.09c2.06,1 7.83,2.36 7.86,5.79c0,4.72 -7.35,3.21 -7.93,5.54c-1.88,7.57 10.83,7.12 12.87,0.46a12.21,12.21 0 0 1 4.51,0c1.38,3.4 1.5,7.54 1.29,11.34c1.34,-0.19 3.2,0.46 4.56,0.27c0.74,5.17 0.19,11.37 -3.18,15.65c-5.78,7.32 -11.81,2.34 -18.08,5.59c-7.89,4.09 -4.88,16.2 2,19.41c7.77,3.64 10,-4.52 17.52,-3c5.32,1.09 6.67,14.28 15.54,9.9c2.58,6.66 9.73,9.76 14.9,13.44c12.3,8.76 5.67,11.21 -6.21,18.26c3.35,0.72 3.93,3 5.77,4.18c-5.78,3.18 -13.89,1.23 -18.56,5.67c3.28,5.48 10.15,10.15 15.92,11.56s10.62,-7.1 11.6,5.9c10.25,2.53 16.17,7 27.8,8.88c8,1.33 10.12,1.46 14.78,6.78c2.66,3 -1.47,6.85 5,7.75c-2.8,1.3 -9.24,7.21 -4.92,10.57c2.1,1.65 10.35,-2.83 13.35,-2.64c0.62,2.3 1.49,5.18 1.11,7.62c5.62,-5.58 8.33,6.27 11.65,4.95c8.59,-3.42 0.36,-7.71 -2.06,-12s-5,-8.73 -1.84,-12.11c5.92,-6.38 7.83,0.9 10.49,3.9c1.75,2 1.89,11.12 8,7.36s-1.67,-9 -3,-12.48c-2,-5.26 -1.09,-9.82 -1.89,-15.31s-2.63,-8.94 -3.93,-14.23c-1.55,-6.3 0.47,-12.93 0.09,-19.06c-0.28,-4.55 -3.57,-8.35 -4,-12.73c-0.19,-1.92 0.19,-2.51 -1.16,-4.18c-1.14,-1.4 -2.76,-2.13 -3.22,-4c-0.6,-2.51 1.66,-4.09 1.32,-6.4c3.23,-0.25 2.71,6.81 3.15,8.47c1,3.92 4.85,4.69 4,9.05c-0.21,1.13 -0.87,2.64 -0.32,3.83s2.22,2.21 2.88,3.62a14.89,14.89 0 0 1 1.16,7.72c-0.32,3.37 -1.61,6.52 0.16,9.76c1,1.78 1.73,2.4 1.77,4.54c0,1.6 -1,4.24 0.29,5.43c1.41,1.34 2.55,-0.49 3.36,1.94c0.72,2.15 0,4.73 0.78,7c0.9,2.63 0.81,13.19 6.32,8c3.54,-3.31 -1.8,-7.71 -2,-11.36c-0.2,-3.45 0,-4.53 -2.53,-6.89s-2.36,-3.59 -2.81,-6.76c-0.77,-5.48 -0.69,-11 -1.21,-16.65c-0.3,-3.34 -2.65,-4.38 -3.68,-7.28c-0.39,-1.11 0,-2.17 -0.16,-3.28c-0.32,-1.83 -0.19,-1 -1.27,-2.41c-0.81,-1.06 -1.49,-1.37 -1.66,-2.86c-0.12,-1 0.67,-2 0.47,-3a22.72,22.72 0 0 0 -2.68,-5.72c-1.27,-1.92 -3.22,-2 -3.19,-4.73c0,-1.91 1.13,-4 2.86,-3.4c1.28,0.47 2.28,3.24 3.11,4.36a9,9 0 0 1 2,3.54c0.34,1.47 -0.45,3.34 0,4.74c0.73,2.19 3.09,2.5 3.86,4.83c0.91,2.76 0.12,4.51 1.75,6.86a12.34,12.34 0 0 1 2.14,6c0.43,3.5 0.57,3.92 2.91,6.38c3.68,3.88 -1.26,7.62 0.46,11.73c0.68,1.63 2,1.89 2.31,3.92c0.36,2.42 -1.19,5.25 0.54,7.06c0.51,0.53 1.74,0.37 2.34,1.12s0.34,1.91 0.76,2.7a48.62,48.62 0 0 0 3.27,5.27c0.84,1.17 2,1.89 2.5,3.2c0.82,2.05 -0.48,4.63 0.49,6.58c0.88,1.77 4,4.3 5.42,2.12c1,-1.46 0.32,-4 -0.36,-5.34c-0.36,-0.68 -1.14,-0.84 -1.43,-1.62c-0.52,-1.41 0.6,-3.46 0,-4.85c-1.07,-2.41 -2.9,-2.31 -3.43,-5.18s-0.2,-7.44 -1.5,-10c-1.59,-3.15 -4.88,-2.42 -3.22,-6.73c1.8,-4.69 4.41,-8.44 2.19,-13.62c-2.31,-5.41 -6.61,-10.71 -2.28,-16.16c2.95,1 3,3 2.74,5.9c-0.36,3.84 1.75,4 3.29,7.23c1,2.11 1.19,6.56 1,9c-0.14,2.2 -2.83,5.1 -1.39,7.29c1.31,2 3.7,1.34 4.29,4.3c0.3,1.52 -0.29,3.23 -0.25,4.78c0.06,2.23 0.72,2.95 1.76,4.8c1.22,2.2 2.84,4.53 3.64,6.79a45.33,45.33 0 0 0 2.61,6.51c-0.06,1.72 1,2.48 2.68,1.28c1.47,-1.07 0.38,-2.83 0.17,-4.23c-0.33,-2.28 0.23,-3.84 0.49,-6c0.41,-3.4 -1.7,-5.34 -2.63,-8.41c-0.73,-2.42 -0.3,-4.66 -0.23,-7.14c0.13,-3.9 -0.65,-6.27 0.93,-10c2.17,-5.16 1.17,-9.14 1.25,-14.54c0.06,-3.5 2.09,-6.1 3.12,-9.32s0,-4.94 -1.42,-7.86a11.07,11.07 0 0 1 -1.47,-6.17c0.13,-1 1.61,-5.58 2.94,-5.51c1.71,0.09 0.9,4.44 0.73,5.48s-1.29,3.25 -1,4.29c0.15,0.5 1.54,1.32 1.93,1.84c2.68,3.58 2.54,5.53 0.9,9.58c-1.26,3.13 -2.87,7.16 -1.95,10.58c1.11,4.09 2,5.26 0.55,9.52a9.54,9.54 0 0 0 -0.31,5a19.25,19.25 0 0 1 0.06,8.31c-0.3,1.69 -0.42,3.08 0.5,4.56s2.62,1.82 3.18,3.7c0.67,2.28 0.37,6.87 0.41,9.28c0,0.95 -0.66,3.61 0,4.28c2.48,2.43 3.16,-2.44 3.19,-3.71c0.07,-2.83 -0.81,-5.54 -1,-8.35c-0.2,-3.2 1.13,-6.45 0.75,-9.62c-0.32,-2.72 -2.08,-4.77 -2.2,-7.64c-0.16,-3.73 1.37,-7.6 2.67,-11.05c0.5,-1.32 0.76,-3.66 2.37,-3.75c2,3.42 -1.68,7.46 -1.35,11.14c0.38,4.27 1.71,8 1.71,12.21s3.28,8.48 2.63,12.78c-0.31,2 -1.79,4.11 -1.07,6.27c0.25,0.75 1.25,1.11 1.49,1.81c0.18,0.52 -0.28,2 0,2.33c1.52,1.84 3.11,-1.16 3.67,-2.56c1.3,-3.24 0.31,-5 -0.27,-8c-0.51,-2.61 1.09,-4.33 1.85,-6.76c1,-3.14 0.75,-6.93 0.6,-10.2c-0.14,-2.89 -0.82,-5.75 0.71,-8.37c2,-3.49 4.6,-5.64 5.42,-9.83c0.58,-3 0.77,-6.66 -1,-9.37c-1.45,-2.18 -2.73,-2.59 -2.91,-5.46c-0.11,-1.72 -0.25,-5.42 1.7,-6.36s2,0.49 1.95,2s-0.95,3.16 -0.27,4.81s2.46,2.81 3.42,4.24a16.91,16.91 0 0 1 1.44,14.77c-1.81,4.32 -4.34,7.17 -4.6,12.11c-0.12,2.33 0.49,3.88 1,6.07c0.68,2.73 0.05,4 -0.8,6.56c-0.38,1.12 -1.15,2.91 -1,4.08c0.2,1.51 0.94,1.39 1.39,2.54c1,2.57 0.06,3.9 -0.64,6.51c-0.77,2.84 1,6.08 -0.95,8.37c-1,1.15 -2.28,1.36 -3.11,2.91s-0.2,2 -0.52,3.32c-0.42,1.76 -3.45,5.07 -0.94,5.9s3.54,-3.1 5.9,-2c1.64,0.79 1.17,3.79 3,4.4c1.08,0.35 1.95,-0.55 2.93,-0.11s2.09,2.55 3.15,3.25c0.87,-0.21 0.89,-1.66 1.67,-2.18s1.6,0.13 2.22,-0.23c1.63,-0.95 1.82,-2.1 2.59,-3.7c1.19,-2.45 0.79,-2 2.92,-1.67c1.83,0.25 1.55,0.87 3.48,0.08c0.08,0.55 0.55,1 0.5,1.61c1.33,-1.13 4,-4 5.32,-0.82c-0.66,-2.7 3.46,-4.52 5.1,-2.64c-1,-3.51 3.39,-1.26 4.36,0.32c-0.25,-1.37 0.13,-3.58 1.62,-3.92c-0.68,-2.3 -1.47,-5.07 2,-4.9c-3.21,-4.15 4.14,-9 3.26,-3.62c0.54,-0.91 1,-1 1.7,-0.45c0.53,-0.53 1.15,-0.4 1.62,-0.65a25,25 0 0 1 0.54,3c2,-2.48 3.8,-2.94 6,-0.63c0.16,-0.14 0.36,-0.37 0.53,-0.51a2.51,2.51 0 0 1 1.16,2c-0.06,-2.87 3.24,-1.92 4.37,-0.35c1.71,-1.91 4.49,-5 5.39,-0.53a1.84,1.84 0 0 1 1.9,2.22c1.77,0 5.07,-2 6.24,-3.14c3.41,-3.37 6.22,-10.9 12.41,-9.94c0.27,2.16 -0.94,4.5 -1.83,6.41c2.13,-1.72 5.14,-5.65 8.16,-5.68a11.87,11.87 0 0 1 -1.41,4.32c1.67,-0.83 4,-3.22 6,-3.1c2.4,0.14 1.65,1.77 1.77,3.84c5.26,-1.56 10.5,-9.87 16.66,-8.78c7.72,1.36 -7.74,18.77 -9.42,20.92c1.67,-0.79 4.81,-1.65 4.9,1.21c1.73,-2.08 5.12,-3.44 7.07,-0.75c0.51,-0.49 1.8,-1.59 2.6,-1.46c2.38,0.37 1.12,3.77 2.2,5.16s1,0.15 2.9,0.46c1,0.16 1.51,0 1.76,1.17c2.45,-2 2.67,2.42 4.06,3.39c0.68,0.48 1.89,0 2.74,0.53a3.9,3.9 0 0 1 1.63,2.92c5.93,-3.28 -0.6,-8.62 -1.41,-12.26c-0.73,-3.25 1.76,-6.36 1.43,-9.75s-2.72,-5.91 -3.68,-9c-0.78,-2.52 -1.52,-8.38 1,-10.49c1.76,-1.49 2.53,-0.69 3.24,1c1.44,3.45 -0.07,6.53 2.3,9.88c2.91,4.11 3.74,6.31 1.93,10.92a13.33,13.33 0 0 0 -0.9,6c0.24,2.7 1.54,3.06 3,5.08c1.63,2.18 0.56,13.34 5.89,8.89c1.79,-1.48 1.76,-6.08 0.8,-8s-3.13,-2.78 -4.16,-4.61c-2.44,-4.32 0.91,-7.8 1.41,-12.13a9.44,9.44 0 0 0 -0.72,-5.63c-0.83,-1.59 -2.1,-2.51 -2.39,-4.38s0.38,-4.38 2.5,-4.93c2.64,-0.69 2.63,1.23 2.86,3.36c0.45,4.18 -0.39,8.57 0.17,12.66c0.61,4.52 2.84,7.22 5.41,10.7c2.11,2.86 1.69,6 1.69,9.4c0,2 -0.28,3.56 0.94,5.2c2,2.65 4.43,0.81 5.08,-1.94c0.77,-3.24 -2.77,-6.89 -3.29,-10.24c-0.32,-2.07 1.11,-4.09 0.7,-6s-3,-3 -3.38,-5.07a4.61,4.61 0 0 1 2.69,-4.9c2.48,-0.89 2.65,1 3.14,3.23c0.59,2.56 -0.17,4.84 0.18,7.34s2.19,3.13 2.69,5.42c0.45,2 -0.12,4 0.47,6c0.76,2.54 1,3.19 0.07,5.89c-0.69,2.06 -1.7,4 -0.08,6c1.49,1.78 3.36,1.82 4.64,0.06c2.25,-3.07 -1,-7.15 -0.51,-10.39c0.31,-2 1,-4.15 1.24,-6.26c0.19,-1.54 -0.14,-5 0.47,-6.33c1.75,-3.86 3.61,1.17 3.41,3.39c-0.37,4.22 -3,5.42 -0.49,9.5c2.15,3.47 0.11,7.23 2.61,10.81s3.75,4.6 2.66,8.84c-0.46,1.81 -0.61,3 0.23,4.43s3.23,2.14 1.05,4.55a30.66,30.66 0 0 1 3.92,-1.96c1.07,-0.3 1.79,0.62 2.84,-0.24c1.37,-1.13 0.51,-4 1.15,-5.57c1.59,0.7 2,-0.52 3.35,-1c1.54,-0.55 2.84,0.15 4.12,-0.23c6.32,-1.84 3.49,-2.22 5.42,-6.24c0.39,-0.81 -2.48,-4 -1.65,-5.94c1.19,-2.79 4.06,-2.61 5.48,-4.57c4.17,-5.73 7.81,-9.57 0.27,-16.53c2.71,-0.87 7,-4.16 9.7,-4.2c2.43,0 5.52,5 7.75,4.1c7.64,-3 0.37,-12.29 -1.23,-15.63c-9.82,-20.53 -4.08,-44.31 -8.46,-66c-0.75,-3.72 -3.87,-5.71 -2.81,-10.53c11.06,1.38 10.28,29.81 11.46,38c1,7.1 4.65,14.07 5.87,21.33c1.72,10.25 4.55,10.24 10.46,18.23c3.37,-18.95 -3.07,-28.85 -8.09,-43.68c-2.83,-8.39 -0.9,-14.47 -2.56,-22.83c-1.09,-5.45 -8.86,-11.48 -3.69,-16.11c7.69,4.72 3.7,12.56 5.8,19.53c1.93,6.38 7.12,12.39 9.52,18.43c2.05,5.18 2.28,12.29 4.08,18.47c2.11,7.28 7.31,12.16 7,21.19c14.59,-1.72 2.82,-22.57 1.8,-29c-0.88,-5.59 -0.49,-9.78 -1.94,-15.22c-1,-3.77 -4.7,-15.35 3.68,-8.78c2.39,1.87 4.4,11.62 4.86,14.3c1.3,7.57 1.2,11.13 4.1,17.5c7.83,17.21 8.73,1.87 9.84,-8.57c4.13,-1.49 8.75,-1.42 11.5,1.79c7.8,-4.37 -2.35,-15 6.65,-14.71a15,15 0 0 1 0.29,-3.61c1.44,1.24 5,2.67 6.65,4.85c9.07,-7.05 -0.42,-9.81 -4,-14.71c3.78,-8.44 13.06,-4.1 18.78,-12c5.41,-7.49 3.27,-10.22 12.56,-13.42c14,-4.82 22.92,2.34 33.86,10.15c5.12,3.55 21.11,17.55 28.59,16.06c8.81,-1.72 5.22,-14 15.06,1.07c12.06,18.46 7.08,37.73 1.1,57.25c-9.16,29.88 -12.46,61.17 -22.76,90.64c-5.86,16.78 -13.77,42.06 -33.95,45.39c-12,2 -24.63,0.95 -36.87,3.07c-20.88,3.63 -36.85,-0.84 -57.5,-2.87c-19.23,-1.9 -37.22,3.93 -56.12,5.65c-21.59,2 -43.55,0.26 -64.93,4.15c-40,7.27 -76.78,5.48 -117.23,5.48c-20.68,0 -40.05,-4.17 -60.56,-5.77c-23.89,-1.86 -47.08,2.35 -70.85,2.08c-19.94,-0.23 -39.21,-7.36 -59.25,-6c-18.58,1.24 -35.62,9 -53.61,12.78c-28.05,5.89 -45.15,-4.58 -58.54,-30.07c-14.11,-26.85 -13.17,-56.29 0.2,-82.75c9.94,-19.66 18.87,-35.68 14,-58.31c-4,-18.41 -12.89,-36.24 -18.68,-54.19c-4.92,-15.25 -5.53,-34.22 -12.54,-48.17c-7.18,-14.3 -27.19,-17.25 -30.87,-31.52c-2.35,-9.02 2.59,-24.22 -2.95,-32.12z" class="cls-7"/>
   <path stroke-width="0" stroke="null" id="svg_81" d="m154.896085,187.710001a20.958661,23 0 0 1 2.423915,-0.83c-0.59231,-1.35 -2.168766,-1.53 -2.733738,-2.79c-0.382723,-0.83 0,-2 -0.091125,-2.85c-0.282486,-2.09 -0.437398,-3.42 -2.533264,-1.52c-0.246036,-1.55 -1.758705,-0.85 -2.9251,-0.51c1.22107,-0.73 1.512669,-3.86 -0.227812,-4c-1.07527,-0.08 -1.284857,1.55 -1.922729,1.89a16.47533,18.08 0 0 1 -2.141428,0.46c-0.273374,-2.1 -1.22107,-0.28 -2.150541,-0.47s-1.640243,-1.33 -3.180249,-1.07a2.341903,2.57 0 0 0 -4.082383,1.49c-0.619647,-2.94 -2.478589,-1 -3.818121,0.07c-0.637872,-2.59 -2.733738,-0.6 -3.845459,-1.87c-0.975033,-1.1 0.601422,-3.57 -2.177878,-2.37c0.054675,-0.82 -0.127574,-1.75 -0.0729,-2.56c-1.603793,-0.15 -4.920729,0.41 -5.977775,-0.31a3.453623,3.79 0 0 0 3.289598,-0.29c-0.127574,-1.88 -1.886279,-2.42 -2.797526,-3.62c3.162024,-0.49 -0.911246,-3.07 -2.278115,-4l0.10935,-0.05c1.066158,-2.46 -3.007112,-4.75 -4.556231,-5.78c3.189361,-0.64 2.150541,-3.34 -0.209587,-4.41c0.51941,-1.41 -1.959179,-4.17 -3.216699,-4.3c1.822492,0.18 1.603793,-5.59 -0.455623,-5.59c-0.273374,-1.27 -0.054675,-1 -1.193732,-1.31c0.738109,-3.71 -3.471848,-2.9 -5.303452,-3.18c0.318936,-2.21 -1.330419,-3.13 -3.116462,-2.9c0.574085,-3.3 -3.644984,-1.64 -3.171137,-6c1.18462,0.67 7.344644,3.51 6.943695,-0.22c-2.132316,-1 -4.802267,-1.33 -6.752334,-2.69c1.202845,-0.45 8.456364,-0.49 5.649726,-2.69c-1.139058,-0.89 -4.291969,0.82 -5.130316,-0.21c-1.822492,-2.26 4.692918,-1.58 4.437769,-3.71a2.33279,2.56 0 0 0 2.095866,-1.55c0.993258,0.41 4.03682,2.2 4.765817,1.83a5.166766,5.67 0 0 1 -0.264261,-0.7c1.348644,0.65 4.984516,1.93 3.900133,-0.89c0.264261,-0.54 1.11172,-0.33 0.574085,-1.29c0.911246,0.94 5.622389,-5 0.719884,-5.62c0,-0.31 -0.154912,-0.87 -0.127574,-1.24c-0.400948,0.06 -0.975033,-0.16 -1.366869,-0.08c-0.200474,-1.31 -1.467106,-1.76 -2.651726,-1.58c-0.063787,-0.25 0,-0.47 -0.0729,-0.72c-1.549118,1.51 -3.44451,-1.26 -5.020966,0.76a1.977404,2.17 0 0 0 -2.833975,0.24c-0.783672,-1 -1.540006,-1.1 -1.767817,0.25c-1.029708,-0.2 -2.068529,-0.15 -2.159653,1c-0.911246,-0.16 -1.157283,0 -1.658468,0.57a1.631131,1.79 0 0 0 -2.88865,0.24c-1.266632,-1.07 -3.371611,-1.77 -4.319307,0.22c-1.157283,-1.2 -2.460365,-2.4 -4.045933,-2.57c5.139428,0 10.934953,0.14 15.163135,-3.43c-0.546748,-1.48 -2.587939,-1.26 -3.872796,-1.53c1.694918,-0.36 3.599422,-0.25 5.194103,-0.85c-2.269003,-1.74 -5.467477,-1.61 -8.046303,-2.58c3.526522,-0.3 7.563343,0.36 10.789154,-0.59c-3.963921,-3.51 -9.303823,-3.78 -14.388576,-3.69c1.248407,-0.57 3.644984,-1 4.73848,-1.79c3.298711,-2.47 -0.792784,-2 -2.414802,-2.18c1.366869,-0.29 4.191732,-1.4 3.818121,-3.4c-1.558231,-0.4 -2.269003,1.09 -3.736109,1c0.728997,-0.54 2.861313,-1.9 2.269003,-3.18c-0.710772,-1.56 -2.843088,0.21 -3.918358,1c1.211957,-1.07 3.225811,-4.21 0.838346,-4.5c-1.239295,-0.15 -3.143799,4.25 -4.045933,5.22c-1.093495,-3.39 -4.009483,0 -5.29434,1.11c-0.464736,-1.75 -1.931842,-1.5 -3.171137,-1c2.041191,-1.48 0.364498,-3.42 -1.631131,-2.84c0.601422,-1.46 -0.118462,-2.66 -1.70403,-2.21c0.264261,-2.12 -0.318936,-3.62 -2.44214,-3.14c0.391836,-2 -0.48296,-3.39 -2.36924,-2.94c0,-0.63 -0.355386,-1.15 -0.309824,-1.77c-1.011483,-0.12 -1.448881,-0.09 -1.640243,0.93c-0.911246,-2.53 -3.736109,-0.83 -2.733738,1.59a3.143799,3.45 0 0 0 -2.141428,-0.25a2.168766,2.38 0 0 0 -2.305453,-1.44c1.275745,-1.81 0.264261,-3.53 -1.822492,-3.2c0.492073,-1.65 1.385094,-3.19 1.084383,-5c-0.218699,0.13 -0.464736,0.27 -0.70166,0.43c-1.11172,-1.7 -0.765447,-3.32 -3.116462,-3.79c2.733738,-0.78 4.055045,-1.35 1.339532,-3.81c-3.963921,-3.62 -10.451993,-4.39 -15.263373,-6.56c2.642614,1.09 10.789154,3.19 11.909987,0.48c0.984146,-2.38 -4.802267,-5.54 -6.105349,-6.24a13.039932,14.31 0 0 0 3.644984,0.19c-0.70166,-1.66 -2.651726,-2.47 -4.264632,-3.14c2.460365,-0.41 4.756705,2 7.180619,0.74c-1.25752,-3.25 -5.540376,-3 -7.289969,-5.5c-0.911246,-1.36 -1.038821,-4.85 -3.499185,-2.46a3.362498,3.69 0 0 0 -1.913617,-2.7c1.093495,-0.21 1.940954,-1.78 2.141428,-3c1.375982,0 3.644984,0 3.353386,-2.09c0.801897,1.17 4.610905,2.73 5.968662,2.54c-0.063787,-0.45 0.145799,-1.08 0.063787,-1.52c1.057046,0.26 1.922729,1 3.052675,1c0.145799,-2 -1.412431,-3.27 -2.788413,-3.93c-0.464736,-0.22 -1.321307,0.29 -1.758705,0s-0.419173,-1.12 -0.710772,-1.35a12.156023,13.34 0 0 0 -2.177878,-1.57c-1.275745,-0.67 -3.125574,-1 -4.14617,-2c-1.767817,-1.8 -1.412431,-2.65 -4.465106,-2.76c-0.0729,-2.49 -1.430656,-2.18 -2.733738,-3.13c-1.093495,-0.82 -2.141428,-2.78 -3.863684,-1.81c-0.492073,-1.57 -1.385094,-1.74 -2.879538,-2.15c-0.218699,-0.06 -0.455623,0 -0.683435,0c0.209587,-2 -1.385094,-2.76 -2.624389,-1.66c-0.318936,-3.57 -26.936435,-10.85 -29.424137,-11.04l-5.658838,413.13c0,15.72 -0.218699,31.35 1.166395,47c1.175507,13.38 2.96155,26.78 4.556231,40.12c1.640243,13.86 7.444881,25.57 20.603275,28.62c12.520522,2.9 26.189214,0.94 38.481924,-2.57c5.412802,-1.54 10.497555,-5.06 16.174619,-5.23c4.893392,-0.15 9.522522,0.43 14.415914,-0.2c5.950437,-0.76 16.885391,-0.49 20.156764,-6.61c0.783672,-1.46 0.091125,-1.56 1.685805,-2.63c1.093495,-0.74 2.733738,-0.74 3.389836,-2.38c1.385094,-3.67 -2.33279,-6.55 -4.428656,-2.58c-0.811009,1.53 -0.191362,2.5 -1.822492,3.57c-0.811009,0.52 -2.642614,1.16 -3.389836,0c-1.722255,-2.79 4.428656,-4.86 5.157653,-6.76c0.601422,-1.59 -0.51941,-6.76 -2.004741,-7.62c-0.683435,-0.4 -3.726997,0.14 -3.891021,1c-0.200474,1 2.396577,2.51 2.733738,3.45c0.911246,2.57 -1.904504,6.17 -4.328419,5.5c0.847459,-3.83 -3.772559,-2.58 -5.349015,-1.07c-1.986517,1.9 -1.293969,4.78 -3.462735,6.72c-3.644984,3.27 -2.569714,-3.19 -5.467477,-3.46a28.10283,30.84 0 0 0 -2.542377,1.61a8.684176,9.53 0 0 1 -3.398948,1.22c-0.510298,-3.13 -3.508298,-2.43 -4.856942,-4.26c-0.528523,-0.71 -0.300711,-1.85 -0.774559,-2.57c-0.765447,-1.16 -0.583198,-0.66 -1.594681,-1.33c-1.412431,-0.92 -1.968292,0.8 -2.733738,-1.56a1.403319,1.54 0 0 1 1.22107,-2.13c0,-2.63 3.143799,-0.64 4.62913,-1.5c1.175507,-0.67 3.080012,-3 2.870425,-4.53c2.40569,-0.14 6.943695,1.35 8.893762,-0.62c1.18462,-1.21 1.394207,-6 4.027708,-5.19c0.291599,2.82 2.788413,1.65 3.954808,3.56a3.316936,3.64 0 0 1 2.633501,-2c1.822492,0 1.822492,1.7 3.499185,2.13c3.48096,0.89 4.00037,-4.39 6.779671,-4.48c-0.564973,3.2 -0.154912,5.59 2.952437,6c3.40806,0.5 6.770559,-2 6.451623,-5.87c-0.091125,-1.21 -0.55586,-4.18 -2.168766,-3.87c-1.066158,0.2 -1.366869,3.5 -2.451252,4c-3.316936,1.57 -1.047933,-5 -4.282857,-4.59c-1.822492,0.21 -3.717884,5.38 -5.540376,1.64c-0.446511,-0.92 -0.48296,-3.43 0.173137,-4.28c0.911246,-1.12 1.822492,-0.46 2.952437,-1.05c2.9251,-1.57 4.692918,-13.87 -0.437398,-12.37c-0.054675,2.13 1.540006,6 0,7.9c-1.166395,1.47 -3.171137,0.22 -4.647355,1.5c-1.904504,1.65 -0.0729,3.83 -1.002371,6.15c-1.038821,2.61 -5.88665,3.71 -6.205586,0c1.093495,0 2.733738,-0.73 3.107349,-2.05s-1.07527,-2 -0.965921,-3s1.339532,-1.54 1.494444,-2.65s-0.911246,-1.83 -0.984146,-2.9c-0.100237,-2.77 4.03682,-3.56 3.326048,-6.29c-0.410061,0 -0.993258,-0.26 -1.330419,-0.23a2.952437,3.24 0 0 0 0.473848,-3.33c-0.182249,-0.53 -1.057046,0.12 -1.348644,-0.43s-0.227812,-1.91 -0.574085,-2.22c-2.396577,-2.16 -2.624389,2.59 -2.278115,4.76c-0.911246,-1 -3.298711,-1.3 -3.572085,0.35c-0.0729,-0.32 -2.241665,-2.08 -2.88865,-3.24a13.668692,15 0 0 1 -1.430656,-4.65c-0.291599,-1.22 -1.057046,-7.63 -2.651726,-4.89c-2.651726,-1.28 -1.959179,1.77 -2.469477,3.51c-1.139058,-1.57 -2.232553,-0.42 -3.508298,0c-0.355386,-2.76 -2.114091,-1.79 -3.417173,-3.13c1.530893,-0.15 5.285228,-2.91 2.186991,-3c1.412431,-0.55 2.141428,-3.18 -0.182249,-2.56c1.193732,-1.1 1.211957,-3.53 -0.792784,-3.21c0.610535,-1.08 0.911246,-2.54 -0.464736,-2.66c0.528523,-1.2 0.464736,-2.64 -0.911246,-2.65c0.309824,-1.73 -1.530893,-3.53 -2.25989,-1.56c0,-0.31 -0.428286,-1.33 -0.473848,-1.81c-0.646985,0.51 -1.157283,0.26 -1.822492,0.49c0.173137,-1.55 -0.309824,-2.16 -1.175507,-3.14c-0.51941,-0.59 -2.068529,-1.07 -2.287228,-1.39c-1.211957,-1.72 0.446511,-3.9 -0.209587,-6.24c-1.066158,0.15 -2.433027,-2 -2.40569,-3.22s1.749593,-1.55 0.984146,-2.9c4.428656,-0.34 8.875537,-0.26 13.285968,-0.9c1.567343,-0.23 5.932212,-0.25 7.226182,-1.67c1.530893,-1.67 0.255149,-2.19 -1.658468,-2.7c0.400948,-2.1 3.426285,-1.59 4.966291,-1.63a4.866054,5.34 0 0 0 -2.815751,-2.38a88.67336,97.31 0 0 0 10.725367,-0.94c4.282857,-0.5 17.687287,-5.29 6.788784,-7.47c2.642614,-0.29 4.556231,-0.48 5.102978,-3.1c0.318936,-1.62 -0.419173,-3.08 0.528523,-4.56c1.421544,-2.24 2.515039,-1.63 2.733738,-4.69c0.127574,-1.42 -0.282486,-3.75 1.421544,-3.73a6.715884,7.37 0 0 0 2.387465,4.43c0.820122,-1.76 -0.747222,-4.24 0.965921,-5.5c1.07527,2.5 0.127574,6.22 1.494444,8.4c2.041191,-1 0.164024,-10.16 2.40569,-8.92c0.62876,-0.89 0.528523,-2 0.756334,-3.15c0.911246,-0.4 2.25989,0.65 2.861313,0.23c1.25752,-0.89 0,-3.65 1.193732,-5c1.540006,-1.78 4.228182,-1.11 3.891021,-4.66c3.490073,-0.31 3.945696,-2.1 5.467477,-5.37c1.70403,0.32 2.013854,2.31 3.863684,1.84s1.913617,-2.8 2.44214,-4.39c3.371611,3.12 7.854942,-2.48 7.62713,-6.18c-0.054675,-1.06 -1.394207,-0.86 -1.385094,-1.81s1.193732,-1.35 1.375982,-2a4.501556,4.94 0 0 0 -1.166395,-4.81c0.792784,0 3.51741,0.05 4.009483,-0.82c0.774559,-1.37 -0.975033,-2.19 -0.911246,-3.21s1.366869,-0.79 1.25752,-1.83s-1.731368,-1 -1.70403,-1.58c2.915988,-1.8 2.29634,-3.49 -0.045562,-5c3.353386,-3.65 -7.745592,-1.26 -8.583938,-1.36c-0.164024,-1.39 -1.467106,-1.78 -2.642614,-1.59c-0.637872,-2.13 -1.047933,-3.8 -3.644984,-3.92c2.952437,0.19 6.488072,-1.36 9.112461,-2.63c-1.230182,-1.9 -5.421914,-2.14 -7.444881,-2.91a11.527263,12.65 0 0 1 2.624389,-1.32c-0.965921,-1.45 -4.373981,-1.71 -5.995999,-1.59c2.287228,-3 -9.540747,-3.21 -10.58868,-3.43c0.783672,0 5.020966,-1.41 5.312565,-2.17c0.55586,-1.47 -1.512669,-2.06 -2.660839,-2.59c-1.631131,-2.7 -2.496814,-3.58 -5.740851,-3.72c-0.082012,-1.52 0.419173,-4.31 -0.911246,-5.33c-0.847459,-0.64 -2.906875,0.16 -3.435398,1c-0.838346,-0.78 -2.469477,-0.54 -3.644984,-0.44c0.091125,-4.19 -2.396577,-7.68 -6.761446,-6.1c-0.464736,-0.84 -0.318936,-2.6 -0.911246,-3.15c3.171137,1.53 11.7733,1.84 8.911987,-3.92c1.303082,-0.07 3.007112,0.29 4.228182,-0.24c1.904504,-0.84 0.646985,-0.18 0.62876,-1.44s-0.783672,-3.4 -2.44214,-3.15c0.164024,-0.25 0.309824,-0.77 0.501185,-1c-0.282486,-0.21 -1.622018,-0.39 -1.722255,-0.5a8.374352,9.19 0 0 1 -0.765447,-1.34a5.267003,5.78 0 0 0 -3.526522,-1.09a2.104979,2.31 0 0 0 -2.44214,-2.08c1.002371,-0.35 3.909246,-2.15 3.854571,-3.45c-0.127574,-3.15 -4.045933,-0.49 -5.303452,-0.25c5.759075,-3.36 1.767817,-8.25 -1.439769,-3.69c0.911246,-1.57 2.396577,-3.13 1.22107,-5c-1.822492,0.45 -2.833975,2.68 -3.644984,4.25c-0.801897,-0.87 -0.145799,-2.1 -0.965921,-3l-0.683435,0.26c0.063787,-1.73 0,-3.91 -2.168766,-3.43a3.490073,3.83 0 0 0 -2.205216,-3.4a2.159653,2.37 0 0 0 2.077641,-2.7l0,0c0.054675,-1 1.385094,-2.56 2.460365,-2s0.62876,1.43 0.719884,2.43c0.127574,1.45 -0.656097,7.59 2.633501,4.74c1.767817,1.43 3.809009,-1.06 3.353386,-3.13c1.594681,4.25 6.560972,-2.37 3.426285,-3.63a2.469477,2.71 0 0 0 -0.911246,-4.4c1.139058,-1.05 1.822492,-2.88 0.646985,-4.25c2.013854,1.84 5.385465,2.54 6.770559,-0.32c0.364498,-0.75 -0.419173,-1.64 0,-2.39c0.246036,-0.5 1.476219,-0.65 1.731368,-1.24c0.646985,-1.55 -0.66521,-2.72 -0.765447,-4.25c-0.082012,-1.23 1.403319,-2.46 -0.382723,-2.88c0.792784,-2.09 -1.357757,-2.37 -2.241665,-0.84c-1.266632,-1.05 -2.451252,-0.49 -4.100608,-0.49c1.658468,-0.57 2.96155,-1.94 4.62913,-2.52c1.485331,-0.52 3.016225,-0.11 4.437769,-0.7c1.822492,-0.75 5.531264,-5.12 1.540006,-5.54c0.747222,-1.52 2.551489,-2.17 3.080012,-3.35c-0.400948,0.08 -0.965921,-0.11 -1.375982,-0.07c-0.082012,-1.53 -0.55586,-3.82 0.911246,-4.5c-0.66521,-1.28 -2.278115,-1.71 -3.107349,-2.87c2.533264,-3.63 3.134687,-3 2.396577,-7.55c-0.246036,-1.55 0.792784,-5.88 -0.428286,-6.49a2.660839,2.92 0 0 0 -0.984146,-3.59c2.287228,-1.21 1.129945,-3.11 -0.428286,-4.25a16.839828,18.48 0 0 0 6.378723,0.71a4.747592,5.21 0 0 0 -0.437398,-2.33c1.822492,0.58 3.162024,2.18 5.239665,1.8a2.915988,3.2 0 0 0 -1.576456,-2.57c1.886279,0.43 8.000741,4.65 7.873166,0.24c1.521781,1.39 5.722626,3 6.770559,0.56c2.669951,0 5.768188,0.55 4.793155,-3.19a15.190473,16.67 0 0 0 2.633501,-0.6c-0.346274,-0.37 -0.564973,-1.11 -1.084383,-1.48zm-37.561565,-25.34l-0.0729,-0.06a0.10935,0.12 0 0 1 0.0729,0.06z" class="cls-8"/>
   <path stroke-width="0" id="svg_82" d="m763.24,473.370001c-2.85,-22.32 -6,-44.74 -9.64,-66.95c-1.41,-8.68 -7.59,-24.48 -3.61,-33.15l-2.24,-272.67c-5,-10.85 -9.12,-22.18 -15.1,-32.58a73.1,73.1 0 0 0 -10.51,-14.38c-1.87,-1.95 -5.08,-3.72 -6.52,-5.94c-1.28,-2 -1.28,-4.93 -2.35,-7.08c-1.35,-2.74 -4.79,-4.66 -5.71,-8c-1,-3.59 3,-13.2 -4.47,-13.57c-2.43,-0.12 -2.63,1.63 -2.24,3.58c0.19,0.9 2,0.89 2.25,1.89c0.42,1.63 -0.14,2.18 -0.25,3.7c-0.21,3.14 -1.17,5.21 -0.22,8.49s3.55,5.49 3,9.27c-4.82,0.87 -3.87,-5.62 -5.3,-8c-1.76,-2.94 -4.07,-2.79 -4.94,1.33c-1.29,6.11 4.11,9.53 6.72,13.88c2.43,4.05 0.71,3.05 -1.89,4.38c-1,0.49 -2.05,0.26 -3.37,1.1c-1.14,0.72 -1.54,2.5 -2.92,3.39c-4.46,2.86 -12,-0.6 -10.55,7.62c5.36,1.16 9,4.47 7.09,10c-1.25,3.64 -5.19,10.35 -8.4,6.69c-1.43,-1.62 0.15,-5.7 -3.71,-4.41c-2.09,0.7 -1.41,3.62 -4.46,4.43c-5.1,1.34 -6.17,-1.6 -6.33,5.74c-2.9,-0.45 -5.53,0.69 -4.93,4c-3.18,-0.65 -5.58,1.81 -3.06,4.54c-3,0.66 -5.57,-1.06 -5.37,-4c0.19,-2.73 2.7,-2.63 3.71,-4.43c1.58,-2.81 0.44,-11.76 -1.55,-13.94c-4.75,-5.18 -5.17,2.33 -4.74,5.37c0.31,2.22 1.77,4.3 -0.54,6c-3.32,2.4 -3.27,-1 -4.49,-2.46s0,-4.1 -3.6,-3.05c-2.16,0.64 -2.52,2.79 -2.22,5c0.44,3.26 3,5.33 4,8.5s2.45,7.07 5.81,8.51c3.65,1.57 7.67,1.33 10.31,5.37c1.55,2.37 0.13,7.75 -0.07,11.57c-7.37,0.52 8.89,9.53 9.37,11.36c1.08,4.06 -5.45,2.45 -8.57,3c-3.75,0.69 -18.46,5.1 -17.57,9.78c4.77,1.28 9.84,0.24 14.5,2.21c-4.08,0.91 -7.5,1.79 -10.69,4.56c1.63,2.28 5.28,1.58 6.28,4.51c-8.89,2.13 -17.88,4.29 -26.82,7.16c-1.38,0.44 -6.86,1 -7.19,2.66c-0.63,3.05 5.3,3.48 7.18,3.7c-2.4,0.42 -5.66,0.1 -7.07,2.8c-1.53,2.91 0.21,5 2.69,6.06a0.71,0.71 0 0 1 -1,0.44c-3.06,-0.82 -7.63,0.07 -9.87,-1.31c-1.85,-1.14 -1.61,-4.88 -3,-6.33c-3.07,-3.25 -8.48,-2 -10.43,-6.67c-2.07,-5 2.94,-7.86 2.69,-12.1c-0.38,-6.67 -5.94,-2 -7.07,2c-0.64,2.29 -0.42,4.77 -1.1,6.83c-0.73,2.23 -2.77,2.8 -1.81,6.37c0.66,2.43 8.9,9.67 1,9c-5.63,-0.48 -5,-9.09 -8.59,-11.69c-1.53,-1.1 -3.78,-1 -4.86,-2.22c-1.75,-2 0.43,-4.67 -0.41,-6.3c-2.2,-4.24 -7.1,-0.09 -7.3,3.72c-0.17,3 2.42,6.93 5.14,8.73c1.19,0.78 3.59,0.41 4.39,1.08c1.76,1.47 1,2.65 1.77,4.41c1.59,3.77 3.48,4.2 6.18,7.15c1.3,1.42 1.14,3.36 2.89,4.37c1.47,0.86 2.94,0 4.36,0.56c2.54,1 4.87,3.41 0.91,4.94c-1.46,0.56 -2.74,-1 -4,-0.92s-3.47,1.4 -4.49,1.28a5.39,5.39 0 0 1 -4.09,-8c-2.94,-2.61 -6.66,-3.59 -6.77,0.57c0,1.94 4.85,7.39 1,8.43s-3.34,-6 -5.35,-7.1c-4.93,-2.81 -8.08,4.35 -6.33,7.89c1.16,2.37 7.26,6.95 9.87,7.35c2.88,0.44 7.09,-2.07 10,-3.14c1.76,-0.66 6.45,-2.63 8.42,-1.46c1.78,1.07 2,5.64 2.16,8c-3.42,0.46 -5,2.49 -6.1,5.53c-0.41,1.09 0.17,2.39 -0.17,3.5s-2.77,1.87 -2.22,3.58c2.54,7.86 10.52,-5 11.76,-7.11c4.48,0.52 3.47,0.15 5.86,-3.09c0.93,-1.26 3.36,-6.06 6.07,-4.05c1.8,1.34 -0.21,5.42 -0.46,7.08c-0.62,4.12 -0.47,7.55 -3.07,11.19c-1.07,1.49 -2.84,2.81 -3.67,4.45c-2.32,4.64 -0.17,6.42 -5.24,4.95s-15.89,-5.35 -14.72,4.41c2.42,0.66 5.55,-0.08 7.55,0.48c2.65,0.76 3.72,3.54 6.63,3.7c1.37,2.62 -0.6,4.48 -0.88,7c-3.19,-0.65 -5.24,3.12 -5.87,5.42c-1.23,4.48 0.28,6.31 5,6.81c3.3,6.26 1,4.63 -4,5.74c-2.57,0.58 -12,4.93 -13.43,7.18c-3.54,5.72 7.26,2.95 9.75,3.1c4.68,0.28 7.67,2.61 12.59,1.89c-0.92,4.16 -9.41,1.71 -11.57,5.29c8.13,6.74 15.62,1.48 24.61,3.6c5.07,1.19 2.72,3.36 -1.81,4c-1.73,0.25 -4.1,-0.57 -5.71,0.1c-2,0.83 -2.55,2.55 -4.5,3.1c0.4,4.06 8.72,4.3 12,4.48a12.23,12.23 0 0 1 0.07,3.52c-0.61,2.36 -3.44,1.33 -5.74,1c-0.39,2.81 -4.19,2.65 -5.46,5.3c-0.56,1.17 1.12,1.65 0.85,2.68c-0.34,1.3 -1.44,2.57 -1.82,4c-4.31,-0.87 -3.35,4.12 -2.2,6.71c-3.46,-0.3 -3.25,3.48 -1.3,5.44c-3.31,-0.4 -2.12,2.59 -3.68,4c-2.45,2.28 -1.18,1.64 -4.15,1.23c-1.52,-0.2 -2.1,-2.71 -4.26,-1.53c-1.65,0.9 -0.6,3 -1.34,3.88c-0.45,0.55 -1.27,1.68 -1.67,2.15c0,0 -2.07,-0.15 -2.73,0.51s-0.12,2.73 -0.59,3.59a8.64,8.64 0 0 1 -5.19,4.4c-3.61,1.37 -12.45,0.88 -12.62,6.29c3.68,-0.24 5.62,2.49 8.86,2.38c-0.11,0.27 -19.43,7.86 -11.63,10.31c-5.2,3.92 8.65,5.73 11.26,5.73a62.42,62.42 0 0 1 12.44,0.91c2.08,0.39 9.55,0.3 10.84,1.75c3.52,3.95 -4.7,4.24 -6.66,5.93a5.46,5.46 0 0 0 2.48,6.2c-10.32,4 5.74,9.62 8.64,11.63c-0.19,1.26 -1.65,3.15 -1.43,4.38c0.38,2.14 3.11,3.15 3.8,4.91c1.59,4.06 -2,8.2 1.1,12.46c6.47,8.81 18,4.24 25.63,8.7c-3.14,0.52 -9.93,0.42 -11.21,4c-1.17,3.29 3.11,4.6 5.37,4.94c6.36,1 12.84,0.74 19,3c-2.41,2.08 -4.32,2.25 -2,5.42c2.13,2.91 9.21,3.58 12.49,4.64c0,2.64 3.08,3.21 5.39,3.13c0.73,3.91 -2.51,2.29 -4.42,3.49c-2.75,1.71 -3.47,3.42 -3.19,7.11c-4.59,-0.33 -9.36,-5.59 -9,2.7c-0.58,-0.36 -2.38,-0.43 -3,-0.78c-1.19,2.67 -0.38,5.11 1.25,7.11c-2.06,-0.59 -5.32,1.69 -6.27,2.66c-1.94,2 -3,3.8 -2.69,7.19c-0.31,-1.31 -2.19,-1.87 -3.61,-2.21c-0.33,1.34 -0.66,2.91 -0.94,4.4c-3.76,-1.95 -5,4.48 -5.36,7.08c-2.88,-3.42 -5.35,2.93 -5.82,5.43c-3.61,0.16 -5.24,-5.2 -2.77,-7.57a4.21,4.21 0 0 0 -4.36,2.33c0.78,-2.51 -3.11,-4.13 -5,-2.33c2.21,-3.26 1.76,-8.48 -2.92,-8.1c-0.38,-0.75 0.35,-0.55 0.39,-0.82a4.49,4.49 0 0 0 -4,-2.7c0.42,-2.35 0.9,-15.32 -4.41,-8.1c-1.09,-6 -4.14,0.14 -4.19,3.14c-9.87,-0.2 -7.58,14.07 -4.42,20.64c-2.88,1.5 -2.73,7.58 -2.24,10.85c0.7,4.75 6.87,6.67 7.21,10.18c0.3,3 -5,5.69 -4.65,9.31c0.14,1.59 1.63,3 1.94,4.59c0.43,2.15 -1,3.75 0.43,6.26c-1.76,0.89 -3.07,4.69 -3.2,6.66c-4.63,-0.26 -2.08,-5.86 -7.53,-3.09c-2.31,1.18 -0.33,4 -3.94,1.36c-2.21,-1.63 -1.67,-5.46 -3.68,-7.17c-5.24,-4.48 -4.86,2.58 -4,5.82c0.91,3.63 1,10.39 -4.35,5.51c-3.9,-3.58 -0.91,-11.36 -0.57,-15.78c0.22,-2.9 1.53,-5 -2.26,-5.88c-3.31,-0.77 -3.8,1.22 -4.46,3.74c-0.76,2.92 1,5.34 -1.33,7.61c-1.88,1.79 -4.11,0 -5.71,2.56c-2.53,4.11 4.44,10.43 -1.9,13.58c-7.07,3.51 -6.24,-8.82 -4.52,-12.61c-12.44,-1.94 -7.49,14.06 -2.74,19.09c4.43,4.71 7.83,2.91 13.08,1c3,-1.08 9.08,-1.56 11.09,1.89c1.79,3.07 -1.92,7.83 -5.12,8.43c-5,0.92 -8.33,-6.41 -11,0.1c-2.2,5.36 3.24,7.2 7.83,6.59c3.57,-0.47 6.58,-3.16 10.17,-3.62c4.53,4.52 -3.53,8.64 -4.92,12.13c-6.4,16 64.52,19.47 73.57,16.76c11,-3.3 19.8,-9.45 32,-8.14c6.08,0.65 11.92,2.35 18.06,2.75c5.58,0.36 11.58,-0.55 17.08,0.16c8.58,1.12 15.68,5.77 24.65,6.32c10,0.61 18.73,-0.87 26.2,-7.86c11.9,-11.12 16,-31.05 17.65,-46.55c2.4,-24.31 0.01,-48.56 -3.06,-72.56z" class="cls-8"/>
   <path stroke-width="0" stroke-dasharray="5,5" id="svg_83" d="m173.23,299.670001a3,3 0 1 1 -3,-3a3,3 0 0 1 3,3z" class="cls-5"/>
   <path stroke-width="0" stroke-dasharray="5,5" id="svg_84" d="m184.56,307.140001a2.47,2.47 0 1 1 -2.47,-2.47a2.47,2.47 0 0 1 2.47,2.47z" class="cls-5"/>
   <path stroke-width="0" stroke-dasharray="5,5" id="svg_85" d="m178.68,315.180001a1.55,1.55 0 1 1 -1.55,-1.55a1.55,1.55 0 0 1 1.55,1.55z" class="cls-5"/>
   <circle stroke-width="0" stroke-dasharray="5,5" id="svg_86" r="3.05" cy="377.45" cx="242.74" class="cls-5"/>
   <path stroke-width="0" stroke-dasharray="5,5" id="svg_87" d="m227.93,393.430001a2.12,2.12 0 1 1 -2.12,-2.12a2.11,2.11 0 0 1 2.12,2.12z" class="cls-5"/>
   <path stroke-width="0" stroke-dasharray="5,5" id="svg_88" d="m242.73,401.300001a1.53,1.53 0 1 1 -1.52,-1.53a1.53,1.53 0 0 1 1.52,1.53z" class="cls-5"/>
   <circle stroke-width="0" stroke-dasharray="5,5" id="svg_89" r="1.64" cy="410.82" cx="246.5" class="cls-5"/>
   <path stroke-width="0" stroke-dasharray="5,5" id="svg_90" d="m598.53,362.180001a2.35,2.35 0 1 1 -2.35,-2.35a2.35,2.35 0 0 1 2.35,2.35z" class="cls-5"/>
   <circle stroke-width="0" stroke-dasharray="5,5" id="svg_91" r="2.11" cy="379.57" cx="600.37" class="cls-5"/>
   <path stroke-width="0" stroke-dasharray="5,5" id="svg_92" d="m611.58,371.960001a2.44,2.44 0 1 1 -2.44,-2.43a2.44,2.44 0 0 1 2.44,2.43z" class="cls-5"/>
   <path stroke-width="0" stroke-dasharray="5,5" id="svg_93" d="m524.47,435.550001a3.53,3.53 0 1 1 -3.53,-3.52a3.53,3.53 0 0 1 3.53,3.52z" class="cls-5"/>
   <path stroke-width="0" stroke-dasharray="5,5" id="svg_94" d="m536.45,446.890001a2.47,2.47 0 1 1 -2.46,-2.47a2.46,2.46 0 0 1 2.46,2.47z" class="cls-5"/>
   <path stroke-width="0" stroke-dasharray="5,5" id="svg_95" d="m522.35,446.890001a2.47,2.47 0 1 1 -2.46,-2.47a2.46,2.46 0 0 1 2.46,2.47z" class="cls-5"/>
   <path stroke-width="0" stroke-dasharray="5,5" id="svg_96" d="m541.39,384.150001a2.47,2.47 0 1 1 -2.47,-2.47a2.47,2.47 0 0 1 2.47,2.47z" class="cls-5"/>
  </g>
 </g>
</svg>