<svg xmlns="http://www.w3.org/2000/svg" viewBox="0 0 750 417" width="750" height="417">
	<defs>
		<radialGradient id="grd1" gradientUnits="userSpaceOnUse"  cx="492.22" cy="245.55" r="122.55">
			<stop offset="0" stop-color="#fff2ec"  />
			<stop offset="0.05" stop-color="#fff2ec" stop-opacity="0.91" />
			<stop offset="0.2" stop-color="#fff2ec" stop-opacity="0.67" />
			<stop offset="0.35" stop-color="#fff2ec" stop-opacity="0.47" />
			<stop offset="0.5" stop-color="#fff2ec" stop-opacity="0.3" />
			<stop offset="0.64" stop-color="#fff2ec" stop-opacity="0.17" />
			<stop offset="0.77" stop-color="#fff2ec" stop-opacity="0.08" />
			<stop offset="0.9" stop-color="#fff2ec" stop-opacity="0.02" />
			<stop offset="1" stop-color="#fff2ec" stop-opacity="0" />
		</radialGradient>
	</defs>
	<style>
		tspan { white-space:pre }
		.shp0 { fill: #34494c } 
		.shp1 { opacity: 0.6;mix-blend-mode: screen;fill: url(#grd1) } 
		.shp2 { fill: #afc1b3 } 
		.shp3 { fill: #8aa9a1 } 
		.shp4 { fill: #7c9a92 } 
	</style>
	<g id="Layer">
		<g id="OBJECTS">
			<path id="Layer" class="shp0" d="M492.53 453.68L633.64 453.68L633.64 507.04L492.53 507.04L492.53 453.68Z" />
			<path id="Layer" class="shp1" d="M492.22 368.1C424.45 368.1 369.67 313.32 369.67 245.55C369.67 177.78 424.45 123 492.22 123C559.99 123 614.77 177.78 614.77 245.55C614.77 313.32 559.99 368.1 492.22 368.1Z" />
			<path id="Layer" class="shp2" d="M750 250.6C745.3 246.51 739.54 244.02 732.91 242.27C723.35 240.63 713.6 237 703.81 235.9C694.02 232.78 684.19 233.69 674.5 230.38C666.78 232.26 659.06 230.67 651.34 225.71C643.62 231.97 635.9 216.48 628.18 221.05C620.45 220.39 612.73 221.9 605.01 216.39C603.83 216.12 602.63 215.89 601.43 215.72C600.22 215.55 599.01 215.42 597.8 215.35C596.59 215.27 595.37 215.25 594.16 215.27C592.94 215.3 591.73 215.38 590.52 215.5C585.65 215.57 580.76 216.09 575.89 212.05C571.03 210.32 566.19 209.55 561.44 212.69C560.23 212.65 559.03 212.69 557.83 212.81C556.62 212.93 555.43 213.13 554.26 213.4C553.08 213.68 551.93 214.03 550.8 214.45C549.67 214.88 548.57 215.37 547.5 215.94C543.4 215.38 539.5 216.81 535.83 220.77C532.1 223.44 528.5 225.64 524.89 229.62C521.27 235.32 517.64 237.35 513.89 238.11C510.12 239.28 506.21 239.11 502.01 242.53C498.24 244.53 494.43 246.02 490.59 245.89C486.75 245.45 482.88 243.77 479 244.67C478.12 244.18 477.2 243.76 476.24 243.42C475.29 243.07 474.32 242.81 473.32 242.63C472.33 242.44 471.32 242.34 470.31 242.32C469.3 242.3 468.29 242.36 467.29 242.5C463.38 240.3 459.45 241.98 455.53 240.11C451.6 238.79 447.67 237.67 443.75 239.11C442.82 238.6 441.88 238.13 440.92 237.68C439.97 237.23 439 236.81 438.02 236.42C437.03 236.03 436.04 235.67 435.04 235.33C434.03 235 433.02 234.7 432 234.43C428 233.43 424.07 231.43 420.09 231.83C416.11 232.23 412.09 229.69 408.09 232.11C404.09 228.85 400.09 227.74 396.09 228.11C392.09 228.48 388.09 230.38 384.04 233.11C376.04 239.8 368.04 232.52 360.04 236.19C348.49 238.19 336.9 242.11 325.47 242.63C314.03 251.63 302.74 256.49 291.77 252.32C280.77 256.69 270.15 256.45 259.99 266.78C249.84 272.54 240.2 281.36 231.57 287.55C222.94 296.43 215.32 303.82 209.21 314.43C207.69 316.9 206.27 319.43 204.95 322.02C203.63 324.6 202.41 327.23 201.3 329.91C200.18 332.59 199.17 335.31 198.27 338.06C197.36 340.82 196.57 343.61 195.88 346.43C195.45 348.23 195.09 350.04 194.8 351.86C194.51 353.69 194.3 355.52 194.16 357.36C194.01 359.2 193.95 361.05 193.95 362.9C193.95 364.74 194.03 366.59 194.18 368.43C194.31 370.23 194.57 372.03 194.93 373.8C195.3 375.57 195.78 377.31 196.37 379.02C196.96 380.73 197.66 382.4 198.46 384.02C199.27 385.64 200.17 387.21 201.18 388.71C209.64 400.91 224.61 406.61 238.89 410.71C290.89 425.61 345.42 428.31 399.42 430.91L676.28 444.23C699.28 445.34 723.52 446.18 743.92 435.52C744.44 435.24 744.96 434.96 745.48 434.67C745.99 434.38 746.5 434.09 747.01 433.78C747.52 433.48 748.02 433.17 748.52 432.85C749.02 432.53 749.51 432.21 750 431.88L750 250.6Z" />
			<path id="Layer" class="shp3" d="M750 237.66C738.77 241.42 727.59 247.01 716.93 251.66C692.47 262.41 666.67 268.4 640.25 271.52C627.04 273.08 613.67 273.92 600.25 274.27C586.82 274.88 573.32 274.07 559.84 274.1C546.36 272.43 532.91 275.9 519.57 272.42C513.05 277.47 505.14 282.69 496.47 288.52C487.79 289.79 478.36 295.71 468.81 294.84C459.25 299.5 449.57 293.91 440.4 295.19C431.49 296.11 421.69 289.8 411.97 279.97C402.25 273.97 392.6 261.88 383.97 261.97C379.77 266.35 375.77 262.04 371.9 261.04C368.02 257.18 364.27 262.22 360.59 263.73C356.9 267.81 353.28 266.36 349.65 268.33C346.02 265.85 342.38 271.46 338.65 273.08C334.94 277.5 331.16 271.89 327.23 275.88C323.31 274.62 319.23 271.72 314.98 276.17C309.62 273.59 303.4 272.27 296.98 268.26C293.77 263.32 290.5 263.94 287.27 260.39C284.04 258.96 280.85 251.39 277.77 253.25C274.69 251.45 271.77 251.83 268.98 244.37C266.22 238.85 263.67 239.11 261.41 235.46C254.01 241.08 247.41 246.68 241.35 241.38C235.35 240.66 229.84 240.25 224.76 238.15C219.67 233.08 214.97 229.15 210.45 228.74C205.93 228.74 201.6 218.74 197.26 219.74C192.91 215.6 188.55 211.93 183.99 211.39C179.42 209.91 174.65 210.59 169.47 208.52C165.33 207.52 161.32 206.96 157.42 206.03C153.51 202.84 149.7 199.22 145.94 198.58C145.12 197.47 144.28 196.38 143.4 195.32C142.53 194.26 141.62 193.22 140.69 192.21C139.75 191.2 138.79 190.21 137.8 189.25C136.81 188.29 135.8 187.36 134.76 186.46C131.05 182.69 127.35 179.37 123.61 177.8C119.86 171.94 116.08 171.05 112.2 167.97C108.33 165.73 104.36 168.09 100.26 164.19C96.43 169.99 92.35 169.9 88.07 175.53C83.79 176.61 79.31 179.53 74.68 181.42C70.05 183.59 65.27 184.73 60.38 188C55.5 189.51 50.51 191.43 45.46 191.07C41.61 187.85 38.56 188.8 35.79 183.29C33.01 180.54 30.52 175.36 27.79 170.46C25.07 166.31 22.13 165.8 18.45 160.97C14.78 161.14 10.37 159.97 4.72 161.97C3.38 168.62 1.09 155.97 -0.02 160.17L-0.02 539.23L750 539.23L750 237.66Z" />
			<path id="Layer" class="shp4" d="M750 205.23C746.45 204.41 742.92 204.36 739.44 208.78C735.21 211.63 731.04 214.78 726.96 215.57C722.89 220.3 718.9 220.57 715.03 221.06C711.17 223.38 707.43 230.82 703.84 231.06C700.26 237.99 696.61 240.79 692.91 240.77C689.2 243.92 685.43 249.77 681.59 247.56C677.75 248.73 673.84 252.29 669.85 255.36C665.85 251.43 661.8 258.88 657.65 260.43C653.5 265.62 649.27 262.17 644.95 264.17C640.62 261.63 636.21 269.28 631.7 264.45C624.03 266.37 616.85 262.45 609.7 262.77C602.6 260.77 595.58 264.13 588.22 258.96C584.55 253.59 580.79 253.54 576.89 256.11C573 254.26 568.97 250.95 564.76 249.38C559.85 254.87 555.17 261.79 550.65 259.06C546.13 260.73 541.77 260.67 537.48 268.75C533.19 275.43 528.98 278.45 524.77 278.68C520.56 281.1 516.34 285.46 512.04 289.08C507.58 294.42 502.81 295.35 497.81 297.89C492.81 304.08 487.6 303.12 482.24 302.25C476.88 296.25 471.37 302.25 465.79 302.33C460.21 297.25 454.57 297.95 448.94 301.02C443.3 300.73 437.68 297.9 432.15 296.65C430.75 296.32 429.37 295.95 427.99 295.55C426.61 295.15 425.24 294.72 423.89 294.26C422.53 293.79 421.18 293.3 419.85 292.77C418.52 292.24 417.2 291.68 415.89 291.09C410.62 285.2 405.51 283.86 400.64 284.95C395.78 281.95 391.17 283.01 386.87 278.14C382.18 272.4 378.15 281.68 374.61 283.93C371.06 287.35 368 288.02 365.23 292.21C359.68 292.16 355.3 309.16 350.58 307.46C345.86 306.7 340.8 315.72 333.89 319.46C328.71 318.99 323.17 326.1 317.53 324.26C311.88 327.62 306.13 326.55 300.53 325.03C294.91 325.64 289.44 325.34 284.34 320.83C279.25 318.77 274.54 317.97 270.45 312.32C267.37 309.84 264.79 308.25 262.56 302.32C260.33 293.52 258.44 291.38 256.75 291.32C255.06 289.57 253.57 287.67 252.12 279.78C250.67 275.78 249.27 275.78 247.77 267.23C244.21 272.02 240.16 271.01 234.93 275.01C229.71 274.65 223.29 273.01 215.01 272.68C212.41 276.03 209.65 269.6 206.84 267.15C204.04 264.01 201.19 266.36 198.43 256.05C195.66 246.34 192.97 245.69 190.49 243.94C188.01 246.08 185.73 242.24 183.78 235.28C178.7 233.53 173.45 237.07 168.19 239.28C162.92 240.96 157.65 239.49 152.52 238.72C147.4 237.07 144.41 235.04 141.16 229.78C137.91 228.57 134.42 219.58 128.31 214.72C125.66 217.42 123.22 221.34 120.95 224.48C118.69 223.96 116.59 232.9 114.6 233.34C110.6 237.93 107.12 244.94 103.6 250.01C98.81 258.12 96 256.85 92.6 263.23C89.2 266.6 85.2 268.54 78.02 273.54C74.71 271.97 71.31 280.85 67.83 278.89C66.9 278.99 65.98 279.13 65.07 279.32C64.15 279.51 63.25 279.75 62.36 280.03C61.47 280.31 60.6 280.63 59.74 281C58.88 281.37 58.05 281.78 57.23 282.23C53.59 281.81 49.88 280.99 46.1 282.82C42.31 282.38 38.46 285.13 34.54 283.07C30.36 281.87 25.61 283.07 20.62 281.07C15.62 280.39 10.38 278.3 5.22 279.93C3.46 279.79 1.72 279.77 0 279.8L0 539.23L750 539.23L750 205.23Z" />
		</g>
	</g>
</svg>