<?xml version="1.0" encoding="iso-8859-1"?>
<!-- Generator: Adobe Illustrator 19.0.0, SVG Export Plug-In . SVG Version: 6.00 Build 0)  -->
<svg xmlns="http://www.w3.org/2000/svg" xmlns:xlink="http://www.w3.org/1999/xlink" version="1.1" id="Layer_1" x="0px" y="0px" viewBox="0 0 512 512" style="enable-background:new 0 0 512 512;" xml:space="preserve">
<rect x="188.071" y="127.24" style="fill:#A0815C;" width="316.325" height="214.939"/>
<g>
	<path style="fill:#806749;" d="M232.681,127.24h-44.61v60.832c17.61,0,33.49-7.532,44.61-19.535v132.345   c-11.12-12.002-27-19.535-44.61-19.535v60.832h44.61h16.222h54.749V127.24h-54.749H232.681z"/>
	<path style="fill:#806749;" d="M504.396,188.071V127.24h-44.61h-16.222h-54.749v214.939h54.749h16.222h44.61v-60.832   c-17.61,0-33.49,7.532-44.61,19.535V168.536C470.906,180.539,486.786,188.071,504.396,188.071z"/>
</g>
<g>
	<circle style="fill:#898890;" cx="171.85" cy="407.065" r="30.416"/>
	<path style="fill:#898890;" d="M96.824,119.129H22.812c-8.399,0-15.208-6.809-15.208-15.208l0,0   c0-8.399,6.809-15.208,15.208-15.208h74.012V119.129z"/>
	<circle style="fill:#898890;" cx="376.65" cy="407.065" r="30.416"/>
</g>
<g>
	<path style="fill:#FFC853;" d="M228.626,342.178h-40.554v-40.554C210.471,301.624,228.626,319.779,228.626,342.178z"/>
	<path style="fill:#FFC853;" d="M463.842,342.178h40.554v-40.554C481.997,301.624,463.842,319.779,463.842,342.178z"/>
	<path style="fill:#FFC853;" d="M228.626,127.24h-40.554v40.554C210.471,167.794,228.626,149.639,228.626,127.24z"/>
	<path style="fill:#FFC853;" d="M463.842,127.24h40.554v40.554C481.997,167.794,463.842,149.639,463.842,127.24z"/>
</g>
<g>
	<rect x="252.958" y="127.24" style="fill:#57565C;" width="30.416" height="214.939"/>
	<rect x="409.093" y="127.24" style="fill:#57565C;" width="30.416" height="214.939"/>
</g>
<path style="fill:#FFC853;" d="M283.374,100.879v-6.083c0-11.199,9.078-20.277,20.277-20.277h85.164  c11.199,0,20.277,9.078,20.277,20.277v6.083H283.374z"/>
<path style="fill:#FFFFFF;" d="M388.816,165.259h-14.194v-15.208h14.194V165.259z M359.414,165.259h-55.762v-15.208h55.762V165.259z  "/>
<path d="M171.85,369.046c-20.965,0-38.02,17.055-38.02,38.02s17.055,38.02,38.02,38.02s38.02-17.055,38.02-38.02  S192.814,369.046,171.85,369.046z M171.85,429.877c-12.578,0-22.812-10.234-22.812-22.812s10.234-22.812,22.812-22.812  c12.578,0,22.812,10.234,22.812,22.812S184.427,429.877,171.85,429.877z"/>
<rect x="222.543" y="399.461" width="103.414" height="15.208"/>
<rect x="164.246" y="399.461" width="15.208" height="15.208"/>
<path d="M376.65,369.046c-20.965,0-38.02,17.055-38.02,38.02s17.055,38.02,38.02,38.02c20.965,0,38.02-17.055,38.02-38.02  S397.614,369.046,376.65,369.046z M376.65,429.877c-12.578,0-22.812-10.234-22.812-22.812s10.234-22.812,22.812-22.812  s22.812,10.234,22.812,22.812S389.227,429.877,376.65,429.877z"/>
<rect x="369.046" y="399.461" width="15.208" height="15.208"/>
<path d="M456.238,119.636h-9.125h-30.416v-11.152V94.796c0-15.373-12.508-27.881-27.881-27.881h-85.164  c-15.373,0-27.881,12.508-27.881,27.881v13.687v11.152h-30.416h-9.125h-55.762v55.762V294.02v40.554h-4.562  c-12.578,0-22.812-10.234-22.812-22.812V135.35c0-20.965-17.055-38.02-38.02-38.02h-10.646V81.109H22.812  C10.234,81.109,0,91.343,0,103.921s10.234,22.812,22.812,22.812h81.616v-14.194h10.646c12.578,0,22.812,10.234,22.812,22.812  v176.412c0,20.965,17.055,38.02,38.02,38.02h4.562h55.762h9.125h45.624h110.511h45.624h9.125h15.715  c13.697,0,24.84,11.142,24.84,24.84s-11.142,24.84-24.84,24.84h-46.638v15.208h46.638c22.082,0,40.048-17.966,40.048-40.048  c0-9.378-3.249-18.007-8.669-24.84H512V294.02V175.398v-55.762H456.238z M89.22,111.525H22.812c-4.193,0-7.604-3.411-7.604-7.604  c0-4.193,3.411-7.604,7.604-7.604H89.22V111.525z M496.792,134.844v24.461c-12.074-2.863-21.598-12.387-24.461-24.461H496.792z   M388.816,82.123c0.422,0,0.837,0.022,1.249,0.063c0.137,0.013,0.271,0.04,0.407,0.058c0.272,0.035,0.542,0.071,0.808,0.124  c0.158,0.031,0.311,0.074,0.467,0.112c0.237,0.057,0.475,0.113,0.708,0.182c0.162,0.049,0.32,0.107,0.48,0.162  c0.218,0.075,0.436,0.151,0.649,0.238c0.16,0.066,0.317,0.139,0.475,0.211c0.204,0.093,0.406,0.188,0.603,0.291  c0.155,0.081,0.306,0.167,0.457,0.254c0.191,0.111,0.379,0.223,0.564,0.343c0.147,0.095,0.291,0.194,0.434,0.295  c0.178,0.127,0.353,0.258,0.524,0.392c0.137,0.108,0.273,0.217,0.405,0.331c0.167,0.143,0.327,0.292,0.487,0.443  c0.125,0.119,0.25,0.238,0.37,0.362c0.154,0.159,0.301,0.325,0.447,0.492c0.112,0.128,0.225,0.254,0.333,0.387  c0.143,0.177,0.276,0.362,0.41,0.547c0.096,0.134,0.196,0.264,0.287,0.401c0.134,0.201,0.254,0.41,0.376,0.618  c0.077,0.132,0.159,0.26,0.232,0.394c0.132,0.246,0.249,0.502,0.365,0.757c0.048,0.105,0.103,0.206,0.148,0.313  c0.153,0.364,0.291,0.737,0.411,1.118c0.031,0.099,0.052,0.203,0.08,0.303c0.082,0.285,0.161,0.572,0.223,0.865  c0.032,0.154,0.052,0.312,0.078,0.468c0.035,0.208,0.071,0.416,0.096,0.627H291.079c0.025-0.211,0.06-0.419,0.096-0.627  c0.026-0.156,0.046-0.314,0.078-0.468c0.062-0.293,0.141-0.579,0.223-0.865c0.028-0.1,0.05-0.205,0.08-0.303  c0.12-0.381,0.257-0.754,0.411-1.118c0.045-0.105,0.098-0.205,0.145-0.308c0.117-0.258,0.234-0.514,0.368-0.762  c0.072-0.135,0.155-0.263,0.232-0.394c0.122-0.209,0.243-0.418,0.376-0.618c0.091-0.137,0.191-0.268,0.287-0.401  c0.134-0.185,0.267-0.37,0.41-0.547c0.106-0.133,0.221-0.26,0.333-0.387c0.146-0.167,0.293-0.333,0.447-0.492  c0.12-0.124,0.245-0.243,0.37-0.362c0.159-0.151,0.32-0.3,0.487-0.443c0.132-0.114,0.268-0.223,0.405-0.331  c0.171-0.135,0.346-0.267,0.524-0.392c0.143-0.101,0.287-0.2,0.434-0.295c0.185-0.12,0.373-0.233,0.564-0.343  c0.151-0.087,0.302-0.173,0.457-0.254c0.198-0.103,0.4-0.199,0.604-0.291c0.157-0.072,0.314-0.145,0.474-0.21  c0.213-0.086,0.431-0.162,0.649-0.238c0.159-0.055,0.317-0.114,0.48-0.162c0.232-0.07,0.47-0.126,0.708-0.182  c0.156-0.038,0.309-0.08,0.467-0.112c0.266-0.053,0.537-0.088,0.808-0.124c0.136-0.018,0.269-0.044,0.407-0.058  c0.412-0.041,0.827-0.063,1.249-0.063h85.165V82.123z M290.978,108.483h110.511v11.152H290.978V108.483z M195.675,134.844h24.461  c-2.863,12.074-12.387,21.598-24.461,24.461V134.844z M195.675,334.574v-24.461c12.074,2.863,21.598,12.387,24.461,24.461H195.675z   M235.623,334.574c-3.263-20.476-19.473-36.686-39.948-39.948V174.792c20.476-3.263,36.686-19.473,39.948-39.948h9.731v199.731  H235.623z M260.562,334.574V134.844h15.208v199.731H260.562z M290.978,334.574V134.844h110.511v199.731H290.978z M416.697,334.574  V134.844h15.208v199.731H416.697z M447.113,334.574V134.844h9.731c3.263,20.476,19.473,36.686,39.948,39.948v119.833  c-20.476,3.263-36.687,19.473-39.948,39.948h-9.731V334.574z M496.792,334.574h-24.461c2.863-12.074,12.387-21.598,24.461-24.461  V334.574z"/>
<rect x="370.566" y="218.994" width="15.208" height="15.208"/>
<rect x="340.151" y="218.994" width="15.208" height="15.208"/>
<rect x="309.735" y="218.994" width="15.208" height="15.208"/>
<g>
</g>
<g>
</g>
<g>
</g>
<g>
</g>
<g>
</g>
<g>
</g>
<g>
</g>
<g>
</g>
<g>
</g>
<g>
</g>
<g>
</g>
<g>
</g>
<g>
</g>
<g>
</g>
<g>
</g>
</svg>
