<svg xmlns="http://www.w3.org/2000/svg" xmlns:xlink="http://www.w3.org/1999/xlink" viewBox="0 0 750 416.23"><defs><style>.cls-1{isolation:isolate;}.cls-2{fill:#34494c;}.cls-3{opacity:0.6;mix-blend-mode:screen;fill:url(#Безымянный_градиент_27);}.cls-4{fill:url(#Безымянный_градиент_19);}.cls-5{fill:#afc1b3;}.cls-6{fill:#8aa9a1;}.cls-7{fill:#7c9a92;}</style><radialGradient id="Безымянный_градиент_27" cx="492.22" cy="122.55" r="122.55" gradientUnits="userSpaceOnUse"><stop offset="0" stop-color="#fff2ec"/><stop offset="0.05" stop-color="#fff2ec" stop-opacity="0.91"/><stop offset="0.2" stop-color="#fff2ec" stop-opacity="0.67"/><stop offset="0.35" stop-color="#fff2ec" stop-opacity="0.47"/><stop offset="0.5" stop-color="#fff2ec" stop-opacity="0.3"/><stop offset="0.64" stop-color="#fff2ec" stop-opacity="0.17"/><stop offset="0.77" stop-color="#fff2ec" stop-opacity="0.08"/><stop offset="0.9" stop-color="#fff2ec" stop-opacity="0.02"/><stop offset="1" stop-color="#fff2ec" stop-opacity="0"/></radialGradient><radialGradient id="Безымянный_градиент_19" cx="492.22" cy="122.55" r="42.66" gradientUnits="userSpaceOnUse"><stop offset="0.87" stop-color="#fff2ec"/><stop offset="0.87" stop-color="#fff2ec" stop-opacity="0.9"/><stop offset="0.89" stop-color="#fff2ec" stop-opacity="0.69"/><stop offset="0.9" stop-color="#fff2ec" stop-opacity="0.51"/><stop offset="0.92" stop-color="#fff2ec" stop-opacity="0.35"/><stop offset="0.93" stop-color="#fff2ec" stop-opacity="0.22"/><stop offset="0.95" stop-color="#fff2ec" stop-opacity="0.13"/><stop offset="0.96" stop-color="#fff2ec" stop-opacity="0.06"/><stop offset="0.98" stop-color="#fff2ec" stop-opacity="0.01"/><stop offset="1" stop-color="#fff2ec" stop-opacity="0"/></radialGradient></defs><title>mountains</title><g class="cls-1"><g id="OBJECTS"><rect class="cls-2" x="492.53" y="330.68" width="141.11" height="53.36"/><circle class="cls-3" cx="492.22" cy="122.55" r="122.55"/><circle class="cls-4" cx="492.22" cy="122.55" r="42.66"/><path class="cls-5" d="M750,211.37c-4.7-4.09-10.46-6.58-17.09-8.33-9.56-1.64-19.31-5.27-29.1-6.37-9.79-3.12-19.62-2.21-29.31-5.52-7.72,1.88-15.44.29-23.16-4.67-7.72,6.26-15.44-9.23-23.16-4.66-7.73-.66-15.45.85-23.17-4.66a44.38,44.38,0,0,0-14.49-.89c-4.87.07-9.76.59-14.63-3.45-4.86-1.73-9.7-2.5-14.45.64a27.81,27.81,0,0,0-13.94,3.25c-4.1-.56-8,.87-11.67,4.83-3.73,2.67-7.33,4.87-10.94,8.85-3.62,5.7-7.25,7.73-11,8.49-3.77,1.17-7.68,1-11.88,4.42-3.77,2-7.58,3.49-11.42,3.36-3.84-.44-7.71-2.12-11.59-1.22a18.65,18.65,0,0,0-11.71-2.17c-3.91-2.2-7.84-.52-11.76-2.39-3.93-1.32-7.86-2.44-11.78-1A53,53,0,0,0,432,195.2c-4-1-7.93-3-11.91-2.6s-8-2.14-12,.28c-4-3.26-8-4.37-12-4s-8,2.27-12.05,5c-8,6.69-16-.59-24,3.08-11.55,2-23.14,5.92-34.57,6.44-11.44,9-22.73,13.86-33.7,9.69-11,4.37-21.62,4.13-31.78,14.46-10.15,5.76-19.79,14.58-28.42,20.77-8.63,8.88-16.25,16.27-22.36,26.88a111.81,111.81,0,0,0-13.33,32,69.94,69.94,0,0,0-1.7,22,42.08,42.08,0,0,0,7,20.28c8.46,12.2,23.43,17.9,37.71,22,52,14.9,106.53,17.6,160.53,20.2L676.28,405c23,1.11,47.24,1.95,67.64-8.71a66,66,0,0,0,6.08-3.64Z" transform="translate(0 -83.77)"/><path class="cls-6" d="M750,198.43c-11.23,3.76-22.41,9.35-33.07,14-24.46,10.75-50.26,16.74-76.68,19.86-13.21,1.56-26.58,2.4-40,2.75-13.43.61-26.93-.2-40.41-.17-13.48-1.67-26.93,1.8-40.27-1.68-6.52,5.05-14.43,10.27-23.1,16.1-8.68,1.27-18.11,7.19-27.66,6.32-9.56,4.66-19.24-.93-28.41.35-8.91.92-18.71-5.39-28.43-15.22-9.72-6-19.37-18.09-28-18-4.2,4.38-8.2.07-12.07-.93-3.88-3.86-7.63,1.18-11.31,2.69-3.69,4.08-7.31,2.63-10.94,4.6-3.63-2.48-7.27,3.13-11,4.75-3.71,4.42-7.49-1.19-11.42,2.8-3.92-1.26-8-4.16-12.25.29-5.36-2.58-11.58-3.9-18-7.91-3.21-4.94-6.48-4.32-9.71-7.87-3.23-1.43-6.42-9-9.5-7.14-3.08-1.8-6-1.42-8.79-8.88-2.76-5.52-5.31-5.26-7.57-8.91-7.4,5.62-14,11.22-20.06,5.92-6-.72-11.51-1.13-16.59-3.23-5.09-5.07-9.79-9-14.31-9.41-4.52,0-8.85-10-13.19-9-4.35-4.14-8.71-7.81-13.27-8.35-4.57-1.48-9.34-.8-14.52-2.87-4.14-1-8.15-1.56-12.05-2.49-3.91-3.19-7.72-6.81-11.48-7.45a74.36,74.36,0,0,0-11.18-12.12c-3.71-3.77-7.41-7.09-11.15-8.66-3.75-5.86-7.53-6.75-11.41-9.83-3.87-2.24-7.84.12-11.94-3.78-3.83,5.8-7.91,5.71-12.19,11.34-4.28,1.08-8.76,4-13.39,5.89-4.63,2.17-9.41,3.31-14.3,6.58-4.88,1.51-9.87,3.43-14.92,3.07-3.85-3.22-6.9-2.27-9.67-7.78-2.78-2.75-5.27-7.93-8-12.83-2.72-4.15-5.66-4.66-9.34-9.49-3.67.17-8.08-1-13.73,1-1.34,6.65-3.63-6-4.74-1.8V500H750Z" transform="translate(0 -83.77)"/><path class="cls-7" d="M750,166c-3.55-.82-7.08-.87-10.56,3.55-4.23,2.85-8.4,6-12.48,6.79-4.07,4.73-8.06,5-11.93,5.49-3.86,2.32-7.6,9.76-11.19,10-3.58,6.93-7.23,9.73-10.93,9.71-3.71,3.15-7.48,9-11.32,6.79-3.84,1.17-7.75,4.73-11.74,7.8-4-3.93-8.05,3.52-12.2,5.07-4.15,5.19-8.38,1.74-12.7,3.74-4.33-2.54-8.74,5.11-13.25.28-7.67,1.92-14.85-2-22-1.68-7.1-2-14.12,1.36-21.48-3.81-3.67-5.37-7.43-5.42-11.33-2.85-3.89-1.85-7.92-5.16-12.13-6.73-4.91,5.49-9.59,12.41-14.11,9.68-4.52,1.67-8.88,1.61-13.17,9.69-4.29,6.68-8.5,9.7-12.71,9.93-4.21,2.42-8.43,6.78-12.73,10.4-4.46,5.34-9.23,6.27-14.23,8.81-5,6.19-10.21,5.23-15.57,4.36-5.36-6-10.87,0-16.45.08-5.58-5.08-11.22-4.38-16.85-1.31-5.64-.29-11.26-3.12-16.79-4.37a90,90,0,0,1-16.26-5.56c-5.27-5.89-10.38-7.23-15.25-6.14-4.86-3-9.47-1.94-13.77-6.81-4.69-5.74-8.72,3.54-12.26,5.79-3.55,3.42-6.61,4.09-9.38,8.28-5.55-.05-9.93,16.95-14.65,15.25-4.72-.76-9.78,8.26-16.69,12-5.18-.47-10.72,6.64-16.36,4.8-5.65,3.36-11.4,2.29-17,.77-5.62.61-11.09.31-16.19-4.2-5.09-2.06-9.8-2.86-13.89-8.51-3.08-2.48-5.66-4.07-7.89-10-2.23-8.8-4.12-10.94-5.81-11-1.69-1.75-3.18-3.65-4.63-11.54-1.45-4-2.85-4-4.35-12.55-3.56,4.79-7.61,3.78-12.84,7.78-5.22-.36-11.64-2-19.92-2.33-2.6,3.35-5.36-3.08-8.17-5.53-2.8-3.14-5.65-.79-8.41-11.1-2.77-9.71-5.46-10.36-7.94-12.11-2.48,2.14-4.76-1.7-6.71-8.66-5.08-1.75-10.33,1.79-15.59,4-5.27,1.68-10.54.21-15.67-.56-5.12-1.65-8.11-3.68-11.36-8.94-3.25-1.21-6.74-10.2-12.85-15.06-2.65,2.7-5.09,6.62-7.36,9.76-2.26-.52-4.36,8.42-6.35,8.86-4,4.59-7.48,11.6-11,16.67-4.79,8.11-7.6,6.84-11,13.22-3.4,3.37-7.4,5.31-14.58,10.31-3.31-1.57-6.71,7.31-10.19,5.35A28,28,0,0,0,57.23,243c-3.64-.42-7.35-1.24-11.13.59-3.79-.44-7.64,2.31-11.56.25-4.18-1.2-8.93,0-13.92-2-5-.68-10.24-2.77-15.4-1.14-1.76-.14-3.5-.16-5.22-.13V500H750Z" transform="translate(0 -83.77)"/></g></g></svg>